<?xml version="1.0" encoding="utf-8"?>
<!-- Generator: Adobe Illustrator 16.0.0, SVG Export Plug-In . SVG Version: 6.00 Build 0)  -->
<!DOCTYPE svg PUBLIC "-//W3C//DTD SVG 1.1//EN" "http://www.w3.org/Graphics/SVG/1.1/DTD/svg11.dtd">
<svg version="1.1" xmlns="http://www.w3.org/2000/svg" xmlns:xlink="http://www.w3.org/1999/xlink" x="0px" y="0px" width="288px"
	 height="288px" viewBox="0 0 288 288" enable-background="new 0 0 288 288" xml:space="preserve">
<g id="Layer_2">
</g>
<g id="Layer_1">
	<g>
		<radialGradient id="XMLID_2_" cx="145.1235" cy="86.8145" r="211.1483" gradientUnits="userSpaceOnUse">
			<stop  offset="0.1882" style="stop-color:#FFFFFF"/>
			<stop  offset="0.4129" style="stop-color:#FBFBFB"/>
			<stop  offset="0.6435" style="stop-color:#EFEFEF"/>
			<stop  offset="0.876" style="stop-color:#DADADB"/>
			<stop  offset="1" style="stop-color:#CCCCCD"/>
		</radialGradient>
		<rect id="XMLID_16_" fill="url(#XMLID_2_)" width="288" height="288"/>
		
			<radialGradient id="XMLID_3_" cx="145.1235" cy="721.1958" r="211.151" gradientTransform="matrix(1 0 0 0.2824 0 27.5173)" gradientUnits="userSpaceOnUse">
			<stop  offset="0.1882" style="stop-color:#FFFFFF"/>
			<stop  offset="0.4129" style="stop-color:#FBFBFB"/>
			<stop  offset="0.6435" style="stop-color:#EFEFEF"/>
			<stop  offset="0.876" style="stop-color:#DADADB"/>
			<stop  offset="1" style="stop-color:#CCCCCD"/>
		</radialGradient>
		<rect id="XMLID_15_" y="206.666" fill="url(#XMLID_3_)" width="288" height="81.333"/>
		<g>
			<g>
				<g>
					<polygon fill="#0091B5" points="40.06,174.726 46.13,169.585 38.643,166.899 					"/>
				</g>
				<g>
					<polygon fill="#0091B5" points="27.761,147.624 23.169,149.996 27.52,152.786 					"/>
				</g>
				<g>
					<polygon fill="#0091B5" points="24.916,131.768 34.871,134.593 32.339,124.56 					"/>
				</g>
				<g>
					<polygon fill="#0091B5" points="70.487,94.625 69.809,85.847 62.545,90.823 					"/>
				</g>
				<g>
					<polygon fill="#0091B5" points="26.204,82.494 23.096,76.472 19.434,82.174 					"/>
				</g>
				<g>
					<polygon fill="#0091B5" points="28.602,39.176 22.802,46.563 32.098,47.892 					"/>
				</g>
				<g>
					<polygon fill="#0091B5" points="54.909,41.313 61.029,36.329 53.653,33.521 					"/>
				</g>
				<g>
					<polygon fill="#0091B5" points="72.378,66.124 81.969,66.913 77.857,58.212 					"/>
				</g>
				<g>
					<polygon fill="#0091B5" points="96.521,39.828 91.569,37.681 92.188,43.043 					"/>
				</g>
				<g>
					<polygon fill="#0091B5" points="121.222,64.665 114.389,63.09 116.443,69.795 					"/>
				</g>
				<g>
					<polygon fill="#0091B5" points="140.031,26.286 134.783,23.369 134.881,29.372 					"/>
				</g>
				<g>
					<polygon fill="#0091B5" points="149.031,77.226 144.004,69.059 139.445,77.496 					"/>
				</g>
				<g>
					<polygon fill="#0091B5" points="181.039,46.988 174.436,52.266 182.308,55.345 					"/>
				</g>
				<g>
					<polygon fill="#0091B5" points="190.772,92.649 184.524,97.166 191.56,100.317 					"/>
				</g>
				<g>
					<polygon fill="#0091B5" points="207.861,40.873 216.284,43.82 214.625,35.053 					"/>
				</g>
				<g>
					<polygon fill="#0091B5" points="262.673,32.786 258.968,37.233 264.672,38.218 					"/>
				</g>
				<g>
					<polygon fill="#0091B5" points="227.1,80.965 234.407,84.339 233.675,76.323 					"/>
				</g>
				<g>
					<polygon fill="#0091B5" points="256.398,62.294 265.601,65.821 264.053,56.088 					"/>
				</g>
				<g>
					<polygon fill="#0091B5" points="272.572,101.289 267.659,93.642 263.493,101.72 					"/>
				</g>
				<g>
					<polygon fill="#0091B5" points="275.614,141.271 269.624,137.561 269.406,144.604 					"/>
				</g>
				<g>
					<polygon fill="#0091B5" points="219.337,142.225 226.255,141.33 222.02,135.786 					"/>
				</g>
				<g>
					<polygon fill="#0091B5" points="253.459,177.38 257.874,169.704 249.018,169.719 					"/>
				</g>
				<g>
					<polygon fill="#0091B5" points="225.333,170.453 217.416,174.149 224.576,179.158 					"/>
				</g>
				<g>
					<polygon fill="#0091B5" points="247.775,194.709 244.763,190.198 242.363,195.063 					"/>
				</g>
			</g>
			<g>
				<g>
					<polygon fill="#ED3A4F" points="31.361,168.326 26.843,161.98 23.607,169.066 					"/>
				</g>
				<g>
					<polygon fill="#ED3A4F" points="47.016,140.451 43.213,135.442 40.776,141.239 					"/>
				</g>
				<g>
					<polygon fill="#ED3A4F" points="28.565,101.151 18.637,103.618 25.738,110.983 					"/>
				</g>
				<g>
					<polygon fill="#ED3A4F" points="99.52,81.786 97.245,76.393 93.711,81.06 					"/>
				</g>
				<g>
					<polygon fill="#ED3A4F" points="30.276,69.787 36.082,68.321 31.91,64.026 					"/>
				</g>
				<g>
					<polygon fill="#ED3A4F" points="19.541,68.859 17.514,59.72 10.613,66.045 					"/>
				</g>
				<g>
					<polygon fill="#ED3A4F" points="102.114,111.466 98.6,102.738 92.799,110.146 					"/>
				</g>
				<g>
					<polygon fill="#ED3A4F" points="31.811,29.694 36.932,36.06 39.884,28.442 					"/>
				</g>
				<g>
					<polygon fill="#ED3A4F" points="80.355,20.519 74.665,19.328 76.478,24.851 					"/>
				</g>
				<g>
					<polygon fill="#ED3A4F" points="110.328,34.206 106.293,27.15 102.2,34.172 					"/>
				</g>
				<g>
					<polygon fill="#ED3A4F" points="139.363,50.33 134.509,53.801 139.942,56.269 					"/>
				</g>
				<g>
					<polygon fill="#ED3A4F" points="161.005,59.064 157.276,63.141 162.671,64.332 					"/>
				</g>
				<g>
					<polygon fill="#ED3A4F" points="162.099,25.469 167.166,18.994 159.025,17.844 					"/>
				</g>
				<g>
					<polygon fill="#ED3A4F" points="198.817,38.352 196.19,32.672 192.584,37.787 					"/>
				</g>
				<g>
					<polygon fill="#ED3A4F" points="232.889,28.097 242.142,34.971 243.468,23.521 					"/>
				</g>
				<g>
					<polygon fill="#ED3A4F" points="199.971,113.254 192.326,106.172 190.015,116.333 					"/>
				</g>
				<g>
					<polygon fill="#ED3A4F" points="244.865,77.011 237.23,82.101 245.456,86.167 					"/>
				</g>
				<g>
					<polygon fill="#ED3A4F" points="278.311,34.466 274.383,25.716 268.77,33.492 					"/>
				</g>
				<g>
					<polygon fill="#ED3A4F" points="251.054,108.646 260.052,106.011 253.27,99.536 					"/>
				</g>
				<g>
					<polygon fill="#ED3A4F" points="279.33,124.174 270.283,120.479 271.606,130.162 					"/>
				</g>
				<g>
					<polygon fill="#ED3A4F" points="243.078,122.506 248.127,123.929 246.835,118.844 					"/>
				</g>
				<g>
					<polygon fill="#ED3A4F" points="263.774,202.638 258.052,197.048 256.073,204.798 					"/>
				</g>
				<g>
					<polygon fill="#ED3A4F" points="47.347,98.759 54.329,102.755 54.298,94.71 					"/>
				</g>
				<g>
					<polygon fill="#ED3A4F" points="273.711,177.503 281.615,173.194 273.932,168.503 					"/>
				</g>
				<g>
					<polygon fill="#ED3A4F" points="39.072,190.03 31.316,188.691 34.035,196.078 					"/>
				</g>
			</g>
			<g>
				<g>
					<polygon fill="#FDB913" points="226.735,114.634 220.285,115.01 223.836,120.408 					"/>
				</g>
				<g>
					<polygon fill="#FDB913" points="235.417,154.637 229.36,159.592 236.68,162.359 					"/>
				</g>
				<g>
					<polygon fill="#FDB913" points="267.375,73.409 275.123,77.694 274.959,68.843 					"/>
				</g>
				<g>
					<polygon fill="#FDB913" points="194.509,103.693 199.563,104.689 197.898,99.815 					"/>
				</g>
				<g>
					<polygon fill="#FDB913" points="53.564,65.74 58.564,60.492 51.52,58.786 					"/>
				</g>
				<g>
					<polygon fill="#FDB913" points="237.063,90.349 232.248,88.62 233.159,93.655 					"/>
				</g>
				<g>
					<polygon fill="#FDB913" points="205.544,62.125 210.875,59.616 206.037,56.254 					"/>
				</g>
				<g>
					<polygon fill="#FDB913" points="135.512,29.41 132.332,33.441 137.413,34.179 					"/>
				</g>
				<g>
					<polygon fill="#FDB913" points="169.625,71.395 173.522,65.218 166.224,64.93 					"/>
				</g>
				<g>
					<polygon fill="#FDB913" points="130.306,67.271 126.371,71.389 131.904,72.738 					"/>
				</g>
				<g>
					<polygon fill="#FDB913" points="103.669,67.052 105.171,60.995 99.174,62.723 					"/>
				</g>
				<g>
					<polygon fill="#FDB913" points="82.565,77.61 92.112,77.932 87.617,69.502 					"/>
				</g>
				<g>
					<polygon fill="#FDB913" points="10.539,93.721 18.705,96.918 17.39,88.247 					"/>
				</g>
				<g>
					<polygon fill="#FDB913" points="77.764,117.113 79.609,111.938 74.205,112.929 					"/>
				</g>
				<g>
					<polygon fill="#FDB913" points="31.777,39.151 27.242,34.242 25.258,40.625 					"/>
				</g>
				<g>
					<polygon fill="#FDB913" points="47.241,123.699 37.6,121.445 40.468,130.92 					"/>
				</g>
				<g>
					<polygon fill="#FDB913" points="47.085,153.595 53.238,148.375 45.64,145.657 					"/>
				</g>
				<g>
					<polygon fill="#FDB913" points="100.86,90.234 104.999,85.61 98.926,84.337 					"/>
				</g>
				<g>
					<polygon fill="#FDB913" points="63.24,179.106 54.733,181.628 61.171,187.733 					"/>
				</g>
				<g>
					<polygon fill="#FDB913" points="13.251,178.847 18.853,184.107 20.607,176.626 					"/>
				</g>
				<g>
					<polygon fill="#FDB913" points="242.504,112.274 248.55,118.041 250.521,109.921 					"/>
				</g>
				<g>
					<polygon fill="#FDB913" points="63.268,151.991 69.231,147.675 62.511,144.669 					"/>
				</g>
			</g>
			<g>
				<path fill="#FDB913" d="M235.25,127.786c2.601,0.793,5.128,2.248,7.186,4.017c1.615,1.39,1.969,2.859,1.95,4.871
					c-0.024,2.499-1.718,4.344-3.878,5.419c-1.414,0.704-5.556,1.007-5.598-1.429c-0.032-1.822,0.156-2.551,2.092-3.147
					c2.362-0.728,4.449-0.278,6.249,1.352c1.353,1.224,2.354,2.794,2.366,4.643c0.012,2.094-0.532,3.103-2.857,3.311
					c0.038-0.005-0.065-1.741,0-1.747c1.307-0.117,2.715-0.484,2.85-1.996c-0.002,0.542-0.003,1.085-0.005,1.626
					c-0.046-2.224-2.288-4.383-4.11-5.362c-1.421-0.762-6.201-0.686-6.58,1.439c0-0.583,0-1.165,0-1.746
					c0.204,2.205,3.821,1.975,5.219,1.47c2.115-0.763,4.198-2.858,4.243-5.206c0.001,0.542,0.003,1.085,0.004,1.627
					c-0.336-3.842-5.919-6.418-9.129-7.396C235.075,129.48,235.399,127.832,235.25,127.786L235.25,127.786z"/>
			</g>
			<g>
				<path fill="#0091B5" d="M59.278,98.441c2.094,0.856,4.038,2.128,5.48,3.887c1.03,1.256,1.104,2.592,1.088,4.117
					c-0.039,3.937-5.306,4.413-5.59,7.97c0.001-0.577,0.001-1.154,0.002-1.73c0.182,3.437,4.381,3.992,6.299,6.123
					c0.608,0.676,1.312,2.574,0.511,3.379c-0.811,0.815-1.958,1.171-2.771,2.088c-1.116,1.258-0.665,1.905-0.381,3.456
					c0.279,1.53,0.269,3.433-0.233,4.899c0.178-0.522-0.182-1.233,0-1.762c0.587-1.714-0.24-3.849-0.222-5.718
					c0.012-1.216,0.378-2.12,1.193-3.039c0.501-0.565,2.582-1.337,2.629-2.111c0.001,0.577,0.001,1.154,0.002,1.731
					c-0.669-2.367-3.837-3.056-5.537-4.424c-1.379-1.111-1.51-2.616-1.501-4.215c0.022-3.764,5.497-4.279,5.589-8.118
					c0.001,0.577,0.002,1.154,0.002,1.731c-0.31-3.217-3.854-5.393-6.562-6.5C59.062,100.115,59.472,98.521,59.278,98.441
					L59.278,98.441z"/>
			</g>
			<g>
				<path fill="#FDB913" d="M144.945,39.441c2.094,0.856,4.038,2.128,5.48,3.887c1.03,1.256,1.104,2.592,1.088,4.117
					c-0.039,3.937-5.306,4.413-5.59,7.97c0.001-0.577,0.001-1.154,0.002-1.73c0.182,3.437,4.381,3.992,6.299,6.123
					c0.608,0.676,1.312,2.574,0.511,3.379c-0.811,0.815-1.958,1.171-2.771,2.088c-1.116,1.258-0.665,1.905-0.381,3.456
					c0.279,1.53,0.269,3.433-0.233,4.899c0.178-0.522-0.182-1.233,0-1.762c0.587-1.714-0.24-3.849-0.222-5.718
					c0.012-1.216,0.378-2.12,1.193-3.039c0.501-0.565,2.582-1.337,2.629-2.111c0.001,0.577,0.001,1.154,0.002,1.731
					c-0.669-2.367-3.837-3.056-5.537-4.424c-1.379-1.111-1.51-2.616-1.501-4.215c0.022-3.764,5.497-4.279,5.589-8.118
					c0.001,0.577,0.002,1.154,0.002,1.731c-0.31-3.217-3.854-5.393-6.562-6.5C144.728,41.115,145.139,39.521,144.945,39.441
					L144.945,39.441z"/>
			</g>
			<g>
				<path fill="#ED3A4F" d="M80.415,84.119c4.3-1.238,6.439,4.191,4.536,7.4c-0.888,1.495-3.243,2.196-4.802,1.453
					c-0.774-0.368-0.536-1.83-0.457-2.517c0.091-0.804,1.254-1.249,1.904-1.374c1.034-0.199,2.16,0.198,3.092,0.602
					c1.557,0.676,3.458,2.137,3.49,3.994c0.028,1.584-0.024,2.757-1.215,3.968c-1.473,1.496-4.121,2.5-6.21,2.157
					c-0.102-0.017,0.077-1.673,0-1.687c1.718,0.281,3.478-0.375,4.951-1.214c0.778-0.444,1.442-1.051,1.964-1.775
					c0.338-0.469,0.252-1.32,0.433-0.423c-0.08-0.397-0.32-0.758-0.541-1.089c-0.938-1.411-2.692-2.318-4.283-2.738
					c-1.165-0.308-3.424-0.146-3.605,1.433c0-0.563,0-1.124,0-1.687c0.167,1.161,2.022,0.989,2.821,0.834
					c1.693-0.329,2.901-1.738,3.06-3.425c-0.001,0.524-0.003,1.048-0.005,1.571c-0.044-2.7-2.575-4.536-5.133-3.798
					C80.553,85.766,80.254,84.166,80.415,84.119L80.415,84.119z"/>
			</g>
			<g>
				<path fill="#0091B5" d="M264.355,145.271c-1.202-0.942-2.751-1.657-4.093-0.568c-1.335,1.084-0.938,2.618-0.228,3.921
					c0.636,1.167,1.374,3.001,2.838,3.277c0.649,0.123,1.314-0.446,1.59-0.971c0.094-0.337,0.116-0.269,0.066,0.204
					c-0.038-0.142-0.093-0.278-0.163-0.407c-0.128-0.274-0.363-0.476-0.601-0.651c-1.123-0.83-2.884,0.125-3.679,0.973
					c-0.974,1.039-1.322,2.587-1.465,3.956c-0.056,0.542,0.053,1.23,0.239,2.095c0.157,0.729,0.322,1.225,1.012,1.582
					c1.124,0.582,3.088,0.166,3.266-1.24c0,0.422,0,0.844,0,1.265c-0.115-1.289-2.722,0.389-3.135,0.737
					c-1.762,1.482-1.154,4.148,0.431,5.426c0.211,0.17-0.201,1.103,0,1.264c-2.814-2.27-2.095-9.047,2.218-9.145
					c0.607-0.014,0.493,0.678,0.493,1.084c0,0.782-0.065,1.428-0.848,1.822c-0.923,0.465-2.293,0.376-3.024-0.379
					c-0.597-0.617-0.621-2.108-0.679-2.926c-0.119-1.661-0.046-3.414,0.478-5c0.59-1.788,2.906-4.101,4.875-2.644
					c0.97,0.716,0.908,3.004,0.111,3.791c-1.971,1.949-4.073-2.679-4.539-4.014c-0.399-1.145-0.373-2.816-0.055-3.984
					c0.688-2.533,3.297-1.983,4.891-0.734C264.566,144.172,264.156,145.115,264.355,145.271L264.355,145.271z"/>
			</g>
			<g>
				<path fill="#ED3A4F" d="M45.895,52.783c-1.413,0.813-2.038,2.559-1.702,4.146c0.379,1.787,1.894,3.125,2.158,4.877
					c0.131,0.87,0.238,1.749,0.302,2.626c0.091,1.251-0.709,1.534-1.601,2.166c-3.028,2.147-1.292,5.413-0.963,8.354
					c0.396,3.532-0.231,6.405-1.813,9.604c0.216-0.437-0.414-1.302-0.191-1.752c0.933-1.884,1.72-3.772,1.971-5.875
					c0.234-1.96-0.542-3.805-0.844-5.718c-0.401-2.535-0.404-4.909,1.923-6.559c1.158-0.821,1.611-1.132,0.849-2.518
					c-0.812-1.476-1.552-2.705-1.776-4.411c-0.299-2.281-0.872-5.33,1.497-6.693C45.51,51.143,46.11,52.659,45.895,52.783
					L45.895,52.783z"/>
			</g>
			<g>
				<path fill="#ED3A4F" d="M246.268,45.64c2.63,0.552,5.162,2.465,7.251,4.056c1.969,1.499,3.316,2.928,3.324,5.428
					c0.006,2.401-0.193,3.944-2.083,5.683c-2.33,2.141-5.703,3.548-5.753,7.183c-0.003-0.932-0.005-1.861-0.007-2.792
					c0.418,3.43,5.363,3.805,5.423,7.162c0.02,1.075,0.133,2.224,0.001,3.292c-0.333,2.72-3.585,3.233-3.69,6.173
					c-0.001-0.981-0.003-1.961-0.004-2.942c0.291,2.153,1.384,3.75,2.728,5.407c0.498,0.613-0.479,2.405,0,2.996
					c-2.012-2.481-2.758-4.583-2.741-7.661c0.008-1.298,0.05-2.19,0.896-3.248c1.071-1.336,2.582-1.854,2.811-3.721
					c-0.002,0.93-0.005,1.86-0.007,2.791c-0.042-2.26-2.348-3.221-3.878-4.445c-1.572-1.26-1.558-2.882-1.554-4.704
					c0.007-2.393,0.475-4.06,2.311-5.743c2.057-1.885,5.422-3.286,5.528-6.477c0.001,0.98,0.003,1.961,0.004,2.942
					c-0.289-2.333-2.697-3.908-4.458-5.182c-1.771-1.28-3.925-2.745-6.102-3.203C246.045,48.59,246.447,45.678,246.268,45.64
					L246.268,45.64z"/>
			</g>
			<g>
				<path fill="#FDB913" d="M13.268,127.14c2.63,0.552,5.162,2.465,7.251,4.056c1.969,1.499,3.316,2.928,3.324,5.428
					c0.006,2.401-0.193,3.944-2.083,5.683c-2.33,2.141-5.703,3.548-5.753,7.183c-0.003-0.932-0.005-1.861-0.007-2.792
					c0.418,3.43,5.363,3.805,5.423,7.162c0.02,1.075,0.133,2.224,0.001,3.292c-0.333,2.72-3.585,3.233-3.69,6.173
					c-0.001-0.981-0.003-1.961-0.004-2.942c0.291,2.153,1.384,3.75,2.728,5.407c0.498,0.613-0.479,2.405,0,2.996
					c-2.012-2.481-2.758-4.583-2.741-7.661c0.008-1.298,0.05-2.19,0.896-3.248c1.071-1.336,2.582-1.854,2.811-3.721
					c-0.002,0.93-0.005,1.86-0.007,2.791c-0.042-2.26-2.348-3.221-3.878-4.445c-1.572-1.26-1.558-2.882-1.554-4.704
					c0.007-2.393,0.475-4.06,2.311-5.743c2.057-1.885,5.422-3.286,5.528-6.477c0.001,0.98,0.003,1.961,0.004,2.942
					c-0.289-2.333-2.697-3.908-4.458-5.182c-1.771-1.28-3.925-2.745-6.102-3.203C13.045,130.09,13.447,127.178,13.268,127.14
					L13.268,127.14z"/>
			</g>
			<g>
				<path fill="#ED3A4F" d="M69.363,23.637c-1.97,0.415-3.867,1.847-5.432,3.04c-1.476,1.122-2.485,2.193-2.491,4.066
					C61.436,32.542,61.584,33.699,63,35c1.747,1.605,4.274,2.658,4.312,5.382c0.001-0.698,0.003-1.394,0.004-2.092
					c-0.313,2.57-4.017,2.851-4.063,5.367c-0.016,0.805-0.1,1.665-0.002,2.465c0.25,2.038,2.687,2.423,2.765,4.625
					c0.002-0.735,0.003-1.47,0.003-2.205c-0.217,1.613-1.036,2.81-2.043,4.051c-0.373,0.458,0.359,1.802,0,2.245
					c1.507-1.858,2.067-3.433,2.053-5.74c-0.006-0.972-0.038-1.64-0.672-2.434c-0.803-1-1.934-1.388-2.106-2.787
					c0.003,0.697,0.004,1.394,0.006,2.091c0.032-1.693,1.76-2.413,2.906-3.33c1.179-0.945,1.167-2.16,1.164-3.525
					c-0.004-1.792-0.355-3.042-1.73-4.302c-1.542-1.413-4.063-2.461-4.142-4.854c-0.002,0.735-0.002,1.47-0.003,2.205
					c0.217-1.749,2.021-2.929,3.34-3.882c1.327-0.959,2.941-2.058,4.571-2.4C69.53,25.847,69.229,23.666,69.363,23.637
					L69.363,23.637z"/>
			</g>
			<g>
				<path fill="#0091B5" d="M217.017,72.075c-2.052,0.432-4.027,1.922-5.657,3.165c-1.536,1.168-2.587,2.284-2.593,4.234
					c-0.004,1.873,0.15,3.077,1.625,4.433c1.818,1.671,4.451,2.769,4.489,5.604c0.001-0.726,0.004-1.451,0.006-2.177
					c-0.326,2.675-4.184,2.968-4.23,5.588c-0.016,0.838-0.104,1.735-0.001,2.567c0.26,2.123,2.796,2.523,2.878,4.817
					c0.001-0.765,0.002-1.531,0.003-2.296c-0.227,1.68-1.081,2.926-2.128,4.219c-0.388,0.478,0.374,1.876,0,2.336
					c1.569-1.935,2.152-3.574,2.138-5.976c-0.006-1.012-0.039-1.708-0.699-2.535c-0.835-1.042-2.014-1.446-2.192-2.903
					c0.001,0.726,0.003,1.452,0.006,2.178c0.032-1.764,1.832-2.513,3.025-3.468c1.228-0.982,1.216-2.249,1.212-3.668
					c-0.005-1.869-0.37-3.168-1.802-4.481c-1.605-1.471-4.23-2.563-4.313-5.053c0,0.765-0.002,1.531-0.003,2.296
					c0.226-1.821,2.104-3.049,3.479-4.042c1.38-0.999,3.062-2.143,4.76-2.499C217.191,74.375,216.877,72.104,217.017,72.075
					L217.017,72.075z"/>
			</g>
			<g>
				<g>
					<circle fill="#ED3A4F" cx="58.632" cy="170.053" r="0.664"/>
				</g>
				<g>
					<circle fill="#ED3A4F" cx="31.743" cy="152.413" r="1.078"/>
				</g>
				<g>
					<circle fill="#ED3A4F" cx="54.994" cy="133.052" r="1.164"/>
				</g>
				<g>
					<circle fill="#ED3A4F" cx="49.643" cy="109.572" r="0.883"/>
				</g>
				<g>
					<circle fill="#ED3A4F" cx="48.853" cy="104.182" r="1.099"/>
				</g>
				<g>
					<circle fill="#ED3A4F" cx="50.098" cy="89.801" r="0.756"/>
				</g>
				<g>
					<circle fill="#ED3A4F" cx="39.242" cy="48.986" r="0.736"/>
				</g>
				<g>
					<circle fill="#ED3A4F" cx="65.414" cy="59.21" r="0.808"/>
				</g>
				<g>
					<circle fill="#ED3A4F" cx="61.3" cy="29.496" r="0.573"/>
				</g>
				<g>
					<circle fill="#ED3A4F" cx="99.035" cy="42.26" r="1.065"/>
				</g>
				<g>
					<circle fill="#ED3A4F" cx="108.107" cy="63.341" r="0.468"/>
				</g>
				<g>
					<circle fill="#ED3A4F" cx="130.088" cy="25.129" r="0.636"/>
				</g>
				<g>
					<circle fill="#ED3A4F" cx="139.562" cy="34.851" r="1.158"/>
				</g>
				<g>
					<circle fill="#ED3A4F" cx="146.182" cy="30.512" r="0.893"/>
				</g>
				<g>
					<circle fill="#ED3A4F" cx="175.81" cy="35.825" r="1.038"/>
				</g>
				<g>
					<circle fill="#ED3A4F" cx="208.761" cy="20.365" r="1.199"/>
				</g>
				<g>
					<circle fill="#ED3A4F" cx="219.091" cy="69.608" r="0.889"/>
				</g>
				<g>
					<circle fill="#ED3A4F" cx="267.395" cy="71.663" r="0.51"/>
				</g>
				<g>
					<circle fill="#ED3A4F" cx="259.73" cy="93.654" r="0.543"/>
				</g>
				<g>
					<circle fill="#ED3A4F" cx="275.057" cy="98.579" r="0.483"/>
				</g>
				<g>
					<circle fill="#ED3A4F" cx="250.849" cy="124.763" r="0.493"/>
				</g>
				<g>
					<circle fill="#ED3A4F" cx="267.695" cy="155.958" r="0.58"/>
				</g>
				<g>
					<circle fill="#ED3A4F" cx="280.776" cy="172.938" r="1.014"/>
				</g>
				<g>
					<circle fill="#ED3A4F" cx="262.227" cy="188.233" r="0.468"/>
				</g>
				<g>
					<circle fill="#ED3A4F" cx="255.974" cy="197.343" r="0.911"/>
				</g>
			</g>
			<g>
				<g>
					<circle fill="#0091B5" cx="20.532" cy="190.532" r="0.513"/>
				</g>
				<g>
					<circle fill="#0091B5" cx="46.711" cy="160.14" r="0.787"/>
				</g>
				<g>
					<circle fill="#0091B5" cx="15.138" cy="131.364" r="0.718"/>
				</g>
				<g>
					<circle fill="#0091B5" cx="22.806" cy="120.046" r="0.477"/>
				</g>
				<g>
					<circle fill="#0091B5" cx="50.81" cy="116.737" r="0.454"/>
				</g>
				<g>
					<circle fill="#0091B5" cx="62.694" cy="93.523" r="1.229"/>
				</g>
				<g>
					<circle fill="#0091B5" cx="59.219" cy="76.725" r="0.581"/>
				</g>
				<g>
					<circle fill="#0091B5" cx="65.742" cy="39.958" r="0.514"/>
				</g>
				<g>
					<circle fill="#0091B5" cx="86.476" cy="26.19" r="0.66"/>
				</g>
				<g>
					<circle fill="#0091B5" cx="111.826" cy="59.108" r="0.634"/>
				</g>
				<g>
					<circle fill="#0091B5" cx="139.003" cy="16.484" r="0.511"/>
				</g>
				<g>
					<circle fill="#0091B5" cx="166.846" cy="48.931" r="1"/>
				</g>
				<g>
					<circle fill="#0091B5" cx="196.34" cy="44.81" r="1.13"/>
				</g>
				<g>
					<circle fill="#0091B5" cx="215.649" cy="48.015" r="1.116"/>
				</g>
				<g>
					<circle fill="#0091B5" cx="222.215" cy="57.254" r="0.972"/>
				</g>
				<g>
					<circle fill="#0091B5" cx="237.919" cy="80.867" r="0.663"/>
				</g>
				<g>
					<circle fill="#0091B5" cx="270.323" cy="95.758" r="1.279"/>
				</g>
				<g>
					<circle fill="#0091B5" cx="270.535" cy="129.943" r="0.478"/>
				</g>
				<g>
					<circle fill="#0091B5" cx="259.578" cy="141.894" r="0.987"/>
				</g>
				<g>
					<circle fill="#0091B5" cx="282.754" cy="158.942" r="0.726"/>
				</g>
				<g>
					<circle fill="#0091B5" cx="237.762" cy="176.258" r="0.82"/>
				</g>
				<g>
					<circle fill="#0091B5" cx="264.112" cy="186.618" r="1.008"/>
				</g>
				<g>
					<circle fill="#0091B5" cx="252.075" cy="197.021" r="0.92"/>
				</g>
			</g>
			<g>
				<g>
					<circle fill="#FDB913" cx="21.931" cy="191.645" r="0.987"/>
				</g>
				<g>
					<circle fill="#FDB913" cx="23.106" cy="165.602" r="1.153"/>
				</g>
				<g>
					<circle fill="#FDB913" cx="11.773" cy="141.469" r="0.727"/>
				</g>
				<g>
					<circle fill="#FDB913" cx="22.052" cy="129.866" r="0.611"/>
				</g>
				<g>
					<circle fill="#FDB913" cx="22.476" cy="110.441" r="1.052"/>
				</g>
				<g>
					<circle fill="#FDB913" cx="38.345" cy="90.2" r="1.227"/>
				</g>
				<g>
					<circle fill="#FDB913" cx="44.106" cy="67.181" r="1.165"/>
				</g>
				<g>
					<circle fill="#FDB913" cx="70.268" cy="67.519" r="0.612"/>
				</g>
				<g>
					<circle fill="#FDB913" cx="81.459" cy="36.651" r="1.128"/>
				</g>
				<g>
					<circle fill="#FDB913" cx="102.807" cy="27.703" r="1.169"/>
				</g>
				<g>
					<circle fill="#FDB913" cx="119.52" cy="27.479" r="0.889"/>
				</g>
				<g>
					<circle fill="#FDB913" cx="146.474" cy="56.607" r="1.162"/>
				</g>
				<g>
					<circle fill="#FDB913" cx="172.469" cy="33.511" r="0.48"/>
				</g>
				<g>
					<circle fill="#FDB913" cx="194.184" cy="53.296" r="0.875"/>
				</g>
				<g>
					<circle fill="#FDB913" cx="214.572" cy="52.578" r="0.646"/>
				</g>
				<g>
					<circle fill="#FDB913" cx="242.572" cy="65.049" r="0.447"/>
				</g>
				<g>
					<circle fill="#FDB913" cx="259.02" cy="84.286" r="1.133"/>
				</g>
				<g>
					<circle fill="#FDB913" cx="261.831" cy="104.061" r="1.24"/>
				</g>
				<g>
					<circle fill="#FDB913" cx="271.159" cy="127.412" r="0.86"/>
				</g>
				<g>
					<circle fill="#FDB913" cx="249.848" cy="152.403" r="0.921"/>
				</g>
				<g>
					<circle fill="#FDB913" cx="269.522" cy="165.103" r="0.534"/>
				</g>
				<g>
					<circle fill="#FDB913" cx="237.171" cy="174.424" r="0.524"/>
				</g>
				<g>
					<circle fill="#FDB913" cx="263.827" cy="182.324" r="0.839"/>
				</g>
				<g>
					<circle fill="#FDB913" cx="261.421" cy="197.793" r="0.478"/>
				</g>
			</g>
		</g>
		<g>
			<defs>
				<rect id="XMLID_14_" width="288" height="288"/>
			</defs>
			<clipPath id="XMLID_4_">
				<use xlink:href="#XMLID_14_"  overflow="visible"/>
			</clipPath>
			<g clip-path="url(#XMLID_4_)">
				<g>
					<g>
						<polygon fill="#ED3A4F" points="-18.933,154.714 -25.965,155.594 -21.687,161.244 						"/>
					</g>
					<g>
						<polygon fill="#ED3A4F" points="21.438,136.87 18.836,140.612 23.378,140.995 						"/>
					</g>
					<g>
						<polygon fill="#ED3A4F" points="14.456,127.886 10.147,129.572 13.76,132.46 						"/>
					</g>
					<g>
						<polygon fill="#ED3A4F" points="-42.267,123.773 -37.116,123.189 -40.196,119.021 						"/>
					</g>
					<g>
						<polygon fill="#ED3A4F" points="-32.868,107.861 -27.206,108.367 -29.599,103.211 						"/>
					</g>
					<g>
						<polygon fill="#ED3A4F" points="-10.897,98.296 -9.62,93.798 -14.154,94.941 						"/>
					</g>
					<g>
						<polygon fill="#ED3A4F" points="9.993,87.973 14.96,93.393 17.169,86.382 						"/>
					</g>
					<g>
						<polygon fill="#ED3A4F" points="-10.895,73.848 -17.114,76.451 -11.75,80.536 						"/>
					</g>
					<g>
						<polygon fill="#ED3A4F" points="6.966,73.567 3.383,68.151 0.484,73.962 						"/>
					</g>
					<g>
						<polygon fill="#ED3A4F" points="18.914,62.529 22.399,56.882 15.766,56.687 						"/>
					</g>
					<g>
						<polygon fill="#ED3A4F" points="31.221,41.48 33.662,37.402 28.909,37.327 						"/>
					</g>
					<g>
						<polygon fill="#ED3A4F" points="53.733,42.617 46.443,40.188 47.985,47.715 						"/>
					</g>
					<g>
						<polygon fill="#ED3A4F" points="30.527,-3.455 27.68,0.078 32.164,0.778 						"/>
					</g>
					<g>
						<polygon fill="#ED3A4F" points="75.715,20.871 70.612,25.771 77.408,27.741 						"/>
					</g>
					<g>
						<polygon fill="#ED3A4F" points="93.862,26.361 94.627,18.005 87.009,21.52 						"/>
					</g>
					<g>
						<polygon fill="#ED3A4F" points="106.067,12.677 100.632,13.055 103.676,17.572 						"/>
					</g>
					<g>
						<polygon fill="#ED3A4F" points="113.694,-12.712 106.475,-13.724 109.21,-6.965 						"/>
					</g>
					<g>
						<polygon fill="#ED3A4F" points="124.006,-8.622 119.074,-4.744 124.898,-2.413 						"/>
					</g>
					<g>
						<polygon fill="#ED3A4F" points="134.599,-5.794 131.026,-10.521 128.719,-5.062 						"/>
					</g>
					<g>
						<polygon fill="#ED3A4F" points="147.684,-36.424 152.138,-30.667 154.896,-37.402 						"/>
					</g>
					<g>
						<polygon fill="#ED3A4F" points="157.165,13.444 151.387,18.78 158.897,21.115 						"/>
					</g>
					<g>
						<polygon fill="#ED3A4F" points="171.614,11.44 177.229,6.055 169.758,3.886 						"/>
					</g>
					<g>
						<polygon fill="#ED3A4F" points="198.63,-31.045 196.188,-36.503 192.682,-31.658 						"/>
					</g>
					<g>
						<polygon fill="#ED3A4F" points="213.846,-26.797 210.134,-21.383 216.679,-20.875 						"/>
					</g>
					<g>
						<polygon fill="#ED3A4F" points="220.249,-26.197 216.753,-21.564 222.514,-20.853 						"/>
					</g>
					<g>
						<polygon fill="#ED3A4F" points="222.12,15.398 225.887,10.407 219.681,9.64 						"/>
					</g>
					<g>
						<polygon fill="#ED3A4F" points="239.278,17.425 235.943,13.276 234.017,18.239 						"/>
					</g>
					<g>
						<polygon fill="#ED3A4F" points="227.205,41.969 228.074,37.455 223.729,38.96 						"/>
					</g>
					<g>
						<polygon fill="#ED3A4F" points="260.675,18.354 254.652,21.101 260.042,24.944 						"/>
					</g>
					<g>
						<polygon fill="#ED3A4F" points="275.315,24.021 279.353,23.676 277.035,20.352 						"/>
					</g>
					<g>
						<polygon fill="#ED3A4F" points="273.401,46.667 278.424,45.98 275.318,41.974 						"/>
					</g>
					<g>
						<polygon fill="#ED3A4F" points="242.712,65.248 249.583,67.847 248.397,60.596 						"/>
					</g>
					<g>
						<polygon fill="#ED3A4F" points="271.771,65.513 266.074,69.115 272.042,72.247 						"/>
					</g>
					<g>
						<polygon fill="#ED3A4F" points="278.844,80.014 284.425,77.414 279.381,73.88 						"/>
					</g>
					<g>
						<polygon fill="#ED3A4F" points="272.053,92.587 276.271,92.415 274.012,88.849 						"/>
					</g>
					<g>
						<polygon fill="#ED3A4F" points="257.512,101.97 260.944,106.226 262.913,101.125 						"/>
					</g>
					<g>
						<polygon fill="#ED3A4F" points="280.822,116.725 284.384,119.354 284.879,114.954 						"/>
					</g>
					<g>
						<polygon fill="#ED3A4F" points="302.333,137.059 297.634,132.966 296.439,139.081 						"/>
					</g>
					<g>
						<polygon fill="#ED3A4F" points="300.627,150.312 296.525,148.473 296.985,152.944 						"/>
					</g>
					<g>
						<polygon fill="#ED3A4F" points="274.202,165.893 278.703,163.349 274.248,160.723 						"/>
					</g>
					<g>
						<polygon fill="#ED3A4F" points="273.794,179.302 269.646,185.043 276.692,185.764 						"/>
					</g>
					<g>
						<polygon fill="#ED3A4F" points="256.653,195.468 251.872,192.479 251.674,198.113 						"/>
					</g>
					<g>
						<polygon fill="#ED3A4F" points="278.372,198.834 273.518,196.428 273.861,201.834 						"/>
					</g>
				</g>
				<g>
					<g>
						<polygon fill="#0091B5" points="68.485,185.669 66.679,179.616 62.339,184.207 						"/>
					</g>
					<g>
						<polygon fill="#0091B5" points="73.861,172.163 67.644,172.805 71.309,177.868 						"/>
					</g>
					<g>
						<polygon fill="#0091B5" points="14.924,162.067 9.555,158.222 8.91,164.792 						"/>
					</g>
					<g>
						<polygon fill="#0091B5" points="24.55,138.901 17.047,137.86 19.896,144.879 						"/>
					</g>
					<g>
						<polygon fill="#0091B5" points="38.818,124.665 35.909,127.583 39.892,128.645 						"/>
					</g>
					<g>
						<polygon fill="#0091B5" points="28.286,110.807 25.784,105.675 22.59,110.408 						"/>
					</g>
					<g>
						<polygon fill="#0091B5" points="59.008,96.063 59.458,88.389 52.587,91.835 						"/>
					</g>
					<g>
						<polygon fill="#0091B5" points="61.718,79.387 67.005,74.768 60.36,72.499 						"/>
					</g>
					<g>
						<polygon fill="#0091B5" points="18.155,70.723 11.068,71.549 15.328,77.274 						"/>
					</g>
					<g>
						<polygon fill="#0091B5" points="56.704,50.044 54.033,45.995 51.862,50.333 						"/>
					</g>
					<g>
						<polygon fill="#0091B5" points="21.146,32.201 25.041,37.922 28.048,31.689 						"/>
					</g>
					<g>
						<polygon fill="#0091B5" points="18.105,13.661 25.622,10.426 19.062,5.533 						"/>
					</g>
					<g>
						<polygon fill="#0091B5" points="44.342,14.777 47.618,9.008 40.984,9.057 						"/>
					</g>
					<g>
						<polygon fill="#0091B5" points="37.839,-38.163 36.794,-43.107 33.035,-39.73 						"/>
					</g>
					<g>
						<polygon fill="#0091B5" points="44.954,-41.751 47.823,-46.022 42.689,-46.37 						"/>
					</g>
					<g>
						<polygon fill="#0091B5" points="58.823,-41.816 63.615,-42.471 60.652,-46.294 						"/>
					</g>
					<g>
						<polygon fill="#0091B5" points="83.665,-24.144 88.981,-28.383 82.651,-30.865 						"/>
					</g>
					<g>
						<polygon fill="#0091B5" points="100.601,-42.773 105.413,-37.443 107.623,-44.274 						"/>
					</g>
					<g>
						<polygon fill="#0091B5" points="125.545,-8.172 121.021,-9.217 122.378,-4.776 						"/>
					</g>
					<g>
						<polygon fill="#0091B5" points="130.464,-13.81 133.992,-17.843 128.736,-18.881 						"/>
					</g>
					<g>
						<polygon fill="#0091B5" points="146.472,-15.663 148.038,-22.404 141.416,-20.389 						"/>
					</g>
					<g>
						<polygon fill="#0091B5" points="153.085,-26.762 150.1,-22.514 155.271,-22.053 						"/>
					</g>
					<g>
						<polygon fill="#0091B5" points="152.379,-72.113 155.709,-66.89 158.568,-72.385 						"/>
					</g>
					<g>
						<polygon fill="#0091B5" points="175.631,-31.502 176.752,-36.605 171.772,-35.023 						"/>
					</g>
					<g>
						<polygon fill="#0091B5" points="173.279,-63.228 176.863,-65.97 172.697,-67.703 						"/>
					</g>
					<g>
						<polygon fill="#0091B5" points="189.074,-67.429 183.2,-71.436 182.667,-64.345 						"/>
					</g>
					<g>
						<polygon fill="#0091B5" points="209.485,-81.061 201.603,-80.735 205.827,-74.071 						"/>
					</g>
					<g>
						<polygon fill="#0091B5" points="205.538,-30.079 202.631,-34.189 200.525,-29.616 						"/>
					</g>
					<g>
						<polygon fill="#0091B5" points="212.491,-38.835 207.971,-32.521 215.699,-31.764 						"/>
					</g>
					<g>
						<polygon fill="#0091B5" points="227.029,-68.467 226.103,-73.64 222.086,-70.25 						"/>
					</g>
					<g>
						<polygon fill="#0091B5" points="235.959,-56.273 239.82,-55.558 238.51,-59.26 						"/>
					</g>
					<g>
						<polygon fill="#0091B5" points="246.788,-41.549 251.858,-35.666 254.417,-42.999 						"/>
					</g>
					<g>
						<polygon fill="#0091B5" points="281.363,-45.355 285.554,-49.214 280.117,-50.914 						"/>
					</g>
					<g>
						<polygon fill="#0091B5" points="304.196,-29.719 307.645,-26.257 308.918,-30.976 						"/>
					</g>
					<g>
						<polygon fill="#0091B5" points="311.445,11.22 308.971,4.132 304.069,9.818 						"/>
					</g>
					<g>
						<polygon fill="#0091B5" points="291.647,24.164 290.055,20.445 287.631,23.682 						"/>
					</g>
					<g>
						<polygon fill="#0091B5" points="261.888,45.032 266.934,38.3 258.58,37.296 						"/>
					</g>
					<g>
						<polygon fill="#0091B5" points="262.406,61.214 258.184,56.171 255.929,62.35 						"/>
					</g>
					<g>
						<polygon fill="#0091B5" points="278.816,81 286.927,81.648 283.433,74.299 						"/>
					</g>
					<g>
						<polygon fill="#0091B5" points="271.044,86.957 267.706,79.341 262.779,86.04 						"/>
					</g>
					<g>
						<polygon fill="#0091B5" points="288.568,118.808 291.981,116.952 288.667,114.926 						"/>
					</g>
					<g>
						<polygon fill="#0091B5" points="260.175,112.439 259.749,104.452 253.044,108.814 						"/>
					</g>
					<g>
						<polygon fill="#0091B5" points="260.664,131.083 255.148,126.412 253.86,133.525 						"/>
					</g>
					<g>
						<polygon fill="#0091B5" points="276.509,151.626 280.75,146.159 273.895,145.219 						"/>
					</g>
					<g>
						<polygon fill="#0091B5" points="248.58,151.771 251.351,155.515 253.207,151.242 						"/>
					</g>
					<g>
						<polygon fill="#0091B5" points="247.135,173.977 248.773,165.94 240.995,168.54 						"/>
					</g>
					<g>
						<polygon fill="#0091B5" points="256.327,183.46 262.176,177.634 254.205,175.481 						"/>
					</g>
					<g>
						<polygon fill="#0091B5" points="253.617,191.538 258.354,191.267 255.752,187.3 						"/>
					</g>
					<g>
						<polygon fill="#0091B5" points="252.578,208.164 245.83,209.353 250.234,214.601 						"/>
					</g>
				</g>
				<g>
					<g>
						<polygon fill="#69C400" points="20.749,159.334 15.916,161.033 19.803,164.369 						"/>
					</g>
					<g>
						<polygon fill="#69C400" points="3.47,149.354 8.225,143.595 0.86,142.357 						"/>
					</g>
					<g>
						<polygon fill="#69C400" points="-15.886,141.588 -23.036,144.974 -16.529,149.473 						"/>
					</g>
					<g>
						<polygon fill="#69C400" points="-36.915,148.411 -37.183,141.213 -43.283,145.045 						"/>
					</g>
					<g>
						<polygon fill="#69C400" points="-18.585,121.37 -22.837,117.687 -23.901,123.21 						"/>
					</g>
					<g>
						<polygon fill="#69C400" points="-35.058,107.657 -40.237,109.374 -36.162,113.001 						"/>
					</g>
					<g>
						<polygon fill="#69C400" points="6.182,99.012 9.198,103.362 11.457,98.576 						"/>
					</g>
					<g>
						<polygon fill="#69C400" points="-40.049,92.535 -36.106,87.371 -42.551,86.538 						"/>
					</g>
					<g>
						<polygon fill="#69C400" points="-19.708,80.288 -15.352,85.056 -13.401,78.899 						"/>
					</g>
					<g>
						<polygon fill="#69C400" points="-40.205,57.229 -34.736,61.44 -33.824,54.599 						"/>
					</g>
					<g>
						<polygon fill="#69C400" points="6.792,58.922 11.94,65.583 15.136,57.794 						"/>
					</g>
					<g>
						<polygon fill="#69C400" points="-21.566,31.646 -18.744,26.397 -24.701,26.577 						"/>
					</g>
					<g>
						<polygon fill="#69C400" points="12.163,33.628 14.156,27.43 7.792,28.803 						"/>
					</g>
					<g>
						<polygon fill="#69C400" points="-6.753,7.087 -11.561,7.224 -9.038,11.319 						"/>
					</g>
					<g>
						<polygon fill="#69C400" points="36.841,23.981 34.248,20.366 32.414,24.419 						"/>
					</g>
					<g>
						<polygon fill="#69C400" points="28.821,17.237 33.325,11.134 25.788,10.285 						"/>
					</g>
					<g>
						<polygon fill="#69C400" points="44.299,15.267 45.347,9.229 39.594,11.342 						"/>
					</g>
					<g>
						<polygon fill="#69C400" points="37.734,-8.658 41.256,-15.514 33.558,-15.136 						"/>
					</g>
					<g>
						<polygon fill="#69C400" points="56.918,-12.117 59.585,-16.503 54.453,-16.62 						"/>
					</g>
					<g>
						<polygon fill="#69C400" points="75.105,-45.821 70.415,-44.863 73.59,-41.28 						"/>
					</g>
					<g>
						<polygon fill="#69C400" points="90.772,-34.934 85.31,-30.803 91.62,-28.138 						"/>
					</g>
					<g>
						<polygon fill="#69C400" points="113.608,-48.727 106.645,-48.185 110.596,-42.425 						"/>
					</g>
					<g>
						<polygon fill="#69C400" points="124.679,-14.416 119.174,-16.631 120.008,-10.755 						"/>
					</g>
					<g>
						<polygon fill="#69C400" points="131.795,-22.372 132.011,-28.208 126.85,-25.476 						"/>
					</g>
					<g>
						<polygon fill="#69C400" points="141.786,-18.3 141.566,-25.058 135.824,-21.488 						"/>
					</g>
					<g>
						<polygon fill="#69C400" points="145.917,1.992 151.716,-1.917 145.431,-4.984 						"/>
					</g>
					<g>
						<polygon fill="#69C400" points="169.38,-1.208 165.379,0.795 169.115,3.258 						"/>
					</g>
					<g>
						<polygon fill="#69C400" points="184.215,-7.537 185.979,-12.9 180.454,-11.746 						"/>
					</g>
					<g>
						<polygon fill="#69C400" points="204.752,-17.868 199.916,-17.55 202.609,-13.521 						"/>
					</g>
					<g>
						<polygon fill="#69C400" points="212.153,-34.196 211.86,-39.279 207.605,-36.483 						"/>
					</g>
					<g>
						<polygon fill="#69C400" points="224.855,-39.032 222.464,-35.721 226.528,-35.306 						"/>
					</g>
					<g>
						<polygon fill="#69C400" points="240.094,11.101 243.646,9.369 240.37,7.159 						"/>
					</g>
					<g>
						<polygon fill="#69C400" points="260.887,8.139 254.734,13.892 262.793,16.344 						"/>
					</g>
					<g>
						<polygon fill="#69C400" points="311.084,-4.24 304.957,0.157 311.828,3.265 						"/>
					</g>
					<g>
						<polygon fill="#69C400" points="275.494,24.883 268.678,25.532 272.647,31.11 						"/>
					</g>
					<g>
						<polygon fill="#69C400" points="294.134,48.742 299.895,52.697 300.44,45.731 						"/>
					</g>
					<g>
						<polygon fill="#69C400" points="278.548,58.939 272.328,55.309 272.293,62.512 						"/>
					</g>
					<g>
						<polygon fill="#69C400" points="243.95,61.716 239.025,59.88 239.898,65.063 						"/>
					</g>
					<g>
						<polygon fill="#69C400" points="275.246,79.305 268.883,76.191 269.368,83.258 						"/>
					</g>
					<g>
						<polygon fill="#69C400" points="265.021,88.001 259.549,86.067 260.61,91.772 						"/>
					</g>
					<g>
						<polygon fill="#69C400" points="244.26,98.603 249.721,100.245 248.413,94.694 						"/>
					</g>
					<g>
						<polygon fill="#69C400" points="272.615,110.435 279.092,110.178 275.631,104.699 						"/>
					</g>
					<g>
						<polygon fill="#69C400" points="263.032,123.074 257.091,126.478 263.009,129.921 						"/>
					</g>
					<g>
						<polygon fill="#69C400" points="262.209,137.749 258.15,143.596 265.243,144.187 						"/>
					</g>
					<g>
						<polygon fill="#69C400" points="261.191,151.783 254.48,152.142 258.146,157.774 						"/>
					</g>
					<g>
						<polygon fill="#69C400" points="233.168,166.073 238.429,160.624 231.079,158.792 						"/>
					</g>
					<g>
						<polygon fill="#69C400" points="264.458,178.656 257.952,175.651 258.604,182.789 						"/>
					</g>
					<g>
						<polygon fill="#69C400" points="256.415,191.562 264.523,189.741 258.891,183.631 						"/>
					</g>
					<g>
						<polygon fill="#69C400" points="238.621,201.977 243.364,205.922 244.409,199.841 						"/>
					</g>
				</g>
				<g>
					<g>
						<polygon fill="#FDB913" points="308.976,185.541 303.443,190.122 310.177,192.622 						"/>
					</g>
					<g>
						<polygon fill="#FDB913" points="283.926,164.731 278.982,169.13 285.264,171.212 						"/>
					</g>
					<g>
						<polygon fill="#FDB913" points="266.249,147.968 264,151.131 267.864,151.497 						"/>
					</g>
					<g>
						<polygon fill="#FDB913" points="267.541,131.454 272.88,137.262 275.24,129.732 						"/>
					</g>
					<g>
						<polygon fill="#FDB913" points="268.192,120.527 264.081,122.955 268.239,125.302 						"/>
					</g>
					<g>
						<polygon fill="#FDB913" points="267.957,106.315 261.999,107.544 266.043,112.091 						"/>
					</g>
					<g>
						<polygon fill="#FDB913" points="274.113,105.889 276.259,102.528 272.275,102.35 						"/>
					</g>
					<g>
						<polygon fill="#FDB913" points="319.754,88.063 315.493,90.482 319.719,92.962 						"/>
					</g>
					<g>
						<polygon fill="#FDB913" points="277.145,89.721 269.162,92.063 275.181,97.806 						"/>
					</g>
					<g>
						<polygon fill="#FDB913" points="280.569,61.692 277.145,69.284 285.433,68.452 						"/>
					</g>
					<g>
						<polygon fill="#FDB913" points="279.267,46.489 283.357,42.429 277.795,40.915 						"/>
					</g>
					<g>
						<polygon fill="#FDB913" points="250.464,46.182 255.732,41.108 248.705,39.082 						"/>
					</g>
					<g>
						<polygon fill="#FDB913" points="240.363,25.513 243.943,23.764 240.639,21.538 						"/>
					</g>
					<g>
						<polygon fill="#FDB913" points="228.716,21.812 226.07,17.978 224.072,22.186 						"/>
					</g>
					<g>
						<polygon fill="#FDB913" points="209.063,16.286 202.159,15.731 205.132,21.988 						"/>
					</g>
					<g>
						<polygon fill="#FDB913" points="208.393,-18.749 204.594,-17.492 207.582,-14.83 						"/>
					</g>
					<g>
						<polygon fill="#FDB913" points="192.422,-27.056 189.584,-21.431 195.875,-21.787 						"/>
					</g>
					<g>
						<polygon fill="#FDB913" points="171.174,17.904 167.417,19.422 170.611,21.917 						"/>
					</g>
					<g>
						<polygon fill="#FDB913" points="166.757,7.897 163.256,4.252 161.85,9.106 						"/>
					</g>
					<g>
						<polygon fill="#FDB913" points="149.6,10.192 153.81,8.969 150.647,5.935 						"/>
					</g>
					<g>
						<polygon fill="#FDB913" points="140.372,-25.121 146.929,-20.458 147.688,-28.469 						"/>
					</g>
					<g>
						<polygon fill="#FDB913" points="128.983,-8.394 131.483,-14.968 124.541,-13.847 						"/>
					</g>
					<g>
						<polygon fill="#FDB913" points="118.703,-18.763 114.06,-22.957 112.75,-16.84 						"/>
					</g>
					<g>
						<polygon fill="#FDB913" points="92.292,-35.673 96.262,-30.171 99.041,-36.36 						"/>
					</g>
					<g>
						<polygon fill="#FDB913" points="90.253,-4.989 85.981,0.964 93.272,1.687 						"/>
					</g>
					<g>
						<polygon fill="#FDB913" points="79.142,10.391 75.292,10.951 77.703,14.004 						"/>
					</g>
					<g>
						<polygon fill="#FDB913" points="50.092,-22.667 56.664,-27.233 49.424,-30.642 						"/>
					</g>
					<g>
						<polygon fill="#FDB913" points="41.122,-13.752 47.487,-18.236 40.421,-21.507 						"/>
					</g>
					<g>
						<polygon fill="#FDB913" points="39.122,-8.47 35.362,-15.009 31.58,-8.483 						"/>
					</g>
					<g>
						<polygon fill="#FDB913" points="53.627,25.829 45.788,23.945 48.076,31.676 						"/>
					</g>
					<g>
						<polygon fill="#FDB913" points="21.52,22.75 24.667,25.321 25.319,21.31 						"/>
					</g>
					<g>
						<polygon fill="#FDB913" points="11.043,23.681 6.052,21.172 6.374,26.749 						"/>
					</g>
					<g>
						<polygon fill="#FDB913" points="14.004,40.978 19.124,47.286 22.027,39.699 						"/>
					</g>
					<g>
						<polygon fill="#FDB913" points="43.501,62.417 49.522,64.088 47.958,58.038 						"/>
					</g>
					<g>
						<polygon fill="#FDB913" points="31.007,70.482 22.769,72.057 28.253,78.404 						"/>
					</g>
					<g>
						<polygon fill="#FDB913" points="6.841,92.107 4.812,86.501 0.972,91.062 						"/>
					</g>
					<g>
						<polygon fill="#FDB913" points="33.646,106.74 38.466,102.307 32.216,100.349 						"/>
					</g>
					<g>
						<polygon fill="#FDB913" points="7.395,128.615 4.374,120.983 -0.724,127.415 						"/>
					</g>
					<g>
						<polygon fill="#FDB913" points="52.236,123.971 46.871,124.906 50.363,129.085 						"/>
					</g>
					<g>
						<polygon fill="#FDB913" points="22.261,153.976 24.652,149.117 19.249,149.474 						"/>
					</g>
					<g>
						<polygon fill="#FDB913" points="39.952,157.646 31.94,159.933 37.926,165.727 						"/>
					</g>
					<g>
						<polygon fill="#FDB913" points="29.357,173.825 32.685,168.458 26.372,168.259 						"/>
					</g>
					<g>
						<polygon fill="#FDB913" points="43.77,181.28 37.091,181.631 40.734,187.24 						"/>
					</g>
				</g>
			</g>
		</g>
	</g>
</g>
</svg>
