<?xml version="1.0" encoding="utf-8"?>
<!-- Generator: Adobe Illustrator 16.0.3, SVG Export Plug-In . SVG Version: 6.00 Build 0)  -->
<!DOCTYPE svg PUBLIC "-//W3C//DTD SVG 1.1//EN" "http://www.w3.org/Graphics/SVG/1.1/DTD/svg11.dtd">
<svg version="1.1" id="Layer_1" xmlns="http://www.w3.org/2000/svg" xmlns:xlink="http://www.w3.org/1999/xlink" x="0px" y="0px"
	 width="2115px" height="1200px" viewBox="0 0 2115 1200" enable-background="new 0 0 2115 1200" xml:space="preserve">
<rect x="0.961" fill="#F5EBD0" width="2114.039" height="1200"/>
<g>
	<g>
		<path fill="none" d="M992.385,864.532c0,0-0.769,6.815,6.432,8.063c7.199,1.249,10.415-2.779,11.376-7.399
			c0.51-2.453-0.72-6.521-3.313-11.417c-1.357-2.564-3.267-6.739-5.036-10.551l-9-3.205
			C993.649,849.236,992.099,862.105,992.385,864.532z"/>
	</g>
	<g>
		<g>
			<path fill="#774637" d="M976.527,839.047l8.485,30.77c0,0-4.626-30.479-0.997-39.026l-3.003-2.274L976.527,839.047z"/>
		</g>
		<g>
			<path fill="#774637" d="M1001.844,843.229c1.77,3.812,3.679,7.986,5.036,10.551c2.593,4.896,3.822,8.964,3.313,11.417
				c-0.961,4.62-4.177,8.648-11.376,7.399c-7.2-1.248-6.432-8.063-6.432-8.063c-0.286-2.427,1.265-15.296,0.459-24.509l-2.388-0.85
				c0.692,4.059,0.622,9.273-0.888,15.123c-1.701,6.587,0.256,19.455,8.704,20.992c8.448,1.535,12.842-4.777,14.079-8.832
				c1.765-5.775-2.043-15.394-5.014-21.271L1001.844,843.229z"/>
		</g>
		<g>
			<path fill="#774637" d="M990.992,832.363c-5.184-8.831-9.979-3.848-9.979-3.848s1.507,3.333,3.003,2.274
				c2.283-1.612,5.335,1.907,6.44,8.384l2.388,0.85C992.565,836.842,992.007,834.092,990.992,832.363z"/>
		</g>
		<g>
			<path fill="#8B513B" d="M975.369,833.699c6.912,29.184-3.456,43.008-11.521,47.231c-6.634,3.476-23.939,3.571-29.873,3.497
				c-5.936,0.074-23.241-0.021-29.875-3.497c-8.064-4.224-18.433-18.048-11.521-47.231c0,0-18.74,46.708-6.656,70.271
				c9.861,19.227,38.463,15.947,48.052,15.439c9.587,0.508,38.189,3.787,48.049-15.439
				C994.109,880.407,975.369,833.699,975.369,833.699z"/>
		</g>
		<g>
			<path fill="#874C3A" d="M975.369,833.699l9.509,35.193c0,0,6.671,29.652-7.913,41.822l-33.986-28.035L975.369,833.699z"/>
		</g>
		<g>
			<path fill="#724233" d="M939.807,884.498c0,0,24.037-0.243,29.375-7.953c5.01-7.236,6.322-12.129,6.322-12.129l1.586-5.299
				c0,0,0.544,14.707-7.634,21.084C959.963,887.603,939.807,884.498,939.807,884.498z"/>
		</g>
		<g>
			<path fill="#724233" d="M929.679,883.84l-20.883-1.555c0,0,2.739,3.043,20.883,3.475V883.84z"/>
		</g>
		<g>
			<path fill="#9E6A4B" d="M975.369,833.699h-41.394H892.58c-6.912,29.184,3.456,43.008,11.521,47.231
				c6.634,3.476,23.939,3.571,29.875,3.497c5.934,0.074,23.239-0.021,29.873-3.497C971.913,876.707,982.281,862.883,975.369,833.699
				z"/>
		</g>
		<g>
			<path fill="none" d="M930.38,796.578c0.19-0.051,0.429-0.143,0.7-0.264c-0.317,0.119-0.639,0.23-0.971,0.332
				C930.203,796.623,930.294,796.599,930.38,796.578z"/>
		</g>
		<g>
			<path fill="#724233" d="M939.807,898.029c0,2.666-5.315,4.826-5.315,4.826l0,0c0,0-5.315-2.16-5.315-4.826v-35.914
				c0-2.666,2.379-4.826,5.315-4.826l0,0c2.936,0,5.315,2.16,5.315,4.826V898.029z"/>
		</g>
		<g>
			<path fill="#683C30" d="M940.84,888.889c0,1.352-1.033,2.447-2.307,2.447h-7.053c-1.273,0-2.305-1.096-2.305-2.447l0,0
				c0-1.353,1.031-2.449,2.305-2.449h7.053C939.807,886.439,940.84,887.536,940.84,888.889L940.84,888.889z"/>
		</g>
		<g>
			<path fill="#9E6A4B" d="M938.775,898.056c0,2.651-4.8,4.8-4.8,4.8l0,0c0,0-4.8-2.148-4.8-4.8v-35.711c0-2.651,2.148-4.8,4.8-4.8
				l0,0c2.649,0,4.8,2.148,4.8,4.8V898.056z"/>
		</g>
		<g opacity="0.1">
			<path fill="#E5D2AC" d="M892.239,835.248c0,0,19.296,21.139,35.904,33.348v15.902c0,0-5.214-0.181-11.089-0.643
				c-3.836-0.301-8.448-1.136-11.928-2.447c-1.631-0.615-3.044-1.598-4.519-2.832c-3.146-2.631-6.127-6.707-8.331-13.23
				c-2.278-6.743-2.192-13.438-1.783-18.785C891.012,839.848,892.239,835.248,892.239,835.248z"/>
		</g>
		<g>
			<path fill="#8B513B" d="M939.807,888.889c0,1.352-1.032,2.447-2.305,2.447h-7.053c-1.273,0-2.306-1.096-2.306-2.447l0,0
				c0-1.353,1.032-2.449,2.306-2.449h7.053C938.774,886.439,939.807,887.536,939.807,888.889L939.807,888.889z"/>
		</g>
		<g>
			<path fill="#86513D" d="M891.422,839.047l-8.484,30.77c0,0,4.625-30.479,0.996-39.026l3.003-2.274L891.422,839.047z"/>
		</g>
		<g opacity="0.1">
			<path fill="#E5D2AC" d="M935.974,857.982c0,0-3.83-1.822-6.206,1.917c-0.602,0.946-0.592,2.461-0.592,4.39
				c0,6.848,0.079,22.508,0.079,22.508L935.974,857.982z"/>
		</g>
		<g opacity="0.1">
			<path fill="#E5D2AC" d="M931.903,891.336h-1.648c-0.914,0-2.111-1.101-2.111-2.459l0,0c0-1.359,1.149-2.438,2.063-2.438h1.696
				V891.336z"/>
		</g>
		<g opacity="0.5">
			<path fill="#E5D2AC" d="M923.535,795.567c0,0,8.002-1.456,13.123,0.116c4.109,1.262,6.414,5.576,6.317,5.453
				c-1.253-1.59-3.354-3.972-7.969-4.656C930.554,795.82,927.361,796.126,923.535,795.567z"/>
		</g>
		<g opacity="0.5">
			<path fill="#E5D2AC" d="M886.652,814.262c0,0,2.751-5.206,7.386-5.824c3.386-0.452,8.34,1.121,8.298,1.274
				c0,0-4.389-1.688-9.045-0.079C889.036,811.103,888.875,811.984,886.652,814.262z"/>
		</g>
		<g>
			<path fill="#86513D" d="M1005.188,841.301c-2.559-4.096-4.787-13.959-14.356-24.297c-7.11-7.682-12.771-13.347-31.135-27.682
				c-3.728-2.908-27.472-20.361-40.271-20.273c-9.655,0.066-13.967,3.713-13.824,16.128c0.128,11.265,20.224,12.796,25.344,13.435
				c5.12,0.641,10.583,1.772,13.696,9.473c2.23,5.516,0.416,10.951-5.129,15.322c-3.815,3.006-14.702,1.879-17.832-1.986
				c-3.129-3.865-16.207-13.334-25.936-13.591s-12.169,12.797-12.08,17.175c0.064,3.137,0.27,5.786,0.27,5.786l3.246-1.563
				c-0.286-2.249-1.078-3.25-1.035-6.423c0.043-3.264,1.023-9.088,9.217-11.137c8.191-2.047,15.928,5.119,18.447,7.449
				c3.142,2.902,9.199,10.344,17.648,9.575c8.448-0.769,13.184-8.191,13.566-8.832c0.385-0.641,3.969-6.399,0.129-15.743
				s-10.239-9.469-15.616-9.473c-4.938-0.004-18.115,3.363-19.873-6.793c-1.433-8.273,0.673-12.658,6.306-15.607
				c6.552-3.431,11.249,2.986,21.119,7.172c18,7.636,43.682,32.02,51.461,40.553c4.82,5.287,8.531,13.955,9.339,15.256
				c0.858,1.378,2.35,4.541,3.956,8.004l5.494,1.957C1006.512,843.545,1005.747,842.195,1005.188,841.301z"/>
		</g>
	</g>
	<g>
		<g>
			<path fill="#444444" d="M987.296,774.932l9.443,7.611c0,0-0.55,2.293-2.201,2.66c-1.65,0.365-6.511-7.795-7.611-7.979
				c-1.1-0.182-3.391,2.289-3.391,2.289S983.445,776.582,987.296,774.932z"/>
			<path fill="#444444" d="M1052.874,774.932l-9.444,7.611c0,0,0.551,2.293,2.201,2.66c1.65,0.365,6.512-7.795,7.61-7.979
				c1.1-0.182,3.392,2.289,3.392,2.289S1056.724,776.582,1052.874,774.932z"/>
			<path fill="#1E1E1E" d="M1044.895,771.811c-7.703,0.917-14.855,2.201-17.973,3.668c-3.107,1.463-6.763,1.648-6.784,1.65l0,0l0,0
				c-0.017,0-2.271-0.119-4.745-0.877c-0.677-0.207-1.37-0.459-2.039-0.773c-3.119-1.467-10.271-2.751-17.972-3.668
				c-0.14-0.018-0.276-0.029-0.417-0.044c-1.297-0.14-2.594-0.203-3.856-0.211c-6.094-0.042-11.314,1.172-11.314,1.172v5.134
				c2.384,0.275,2.567,2.936,2.567,2.936l0.642,7.204c0,0-0.092,8.2,10.361,10.31c6.313,1.273,10.516,0.205,13.422-1.364
				c1.804-0.974,3.107-2.14,4.104-3.062c0.056-0.055,0.116-0.107,0.172-0.158c2.413-2.241,4.339-6.668,5.704-9.096
				c0.088-0.154,0.172-0.303,0.255-0.441c1.367-2.278,3.096-1.84,3.116-1.834l0,0h0.001l0,0l0,0h0.002l0,0
				c0.021-0.006,1.748-0.444,3.115,1.834c1.376,2.291,3.393,7.152,5.96,9.537c2.568,2.383,7.243,6.693,17.696,4.584
				c10.454-2.109,10.361-10.31,10.361-10.31l0.644-7.204c0,0,0.183-2.66,2.565-2.936v-5.134
				C1060.481,772.728,1052.597,770.893,1044.895,771.811z M1006.074,795.793L1006.074,795.793c-0.166,0.033-0.275,0.156-0.444,0.188
				c-0.169,0.068-0.333,0.146-0.505,0.213c-0.293,0.131-0.553,0.229-0.758,0.283c-0.094,0.024-0.191,0.049-0.293,0.075
				c-1.429,0.44-2.984,0.726-4.668,0.812c-11.823,0.602-14.907-5.115-14.907-11.424c0-9.396,1.802-11.645,8.001-12.131
				c0.116-0.01,0.234-0.018,0.354-0.025c1.284-0.084,2.749-0.104,4.42-0.098c11.792,0.043,17.841,2.972,17.841,9.281
				C1015.114,787.708,1011.937,793.156,1006.074,795.793z M1040.871,797.363c-1.685-0.086-3.241-0.371-4.671-0.812
				c-0.101-0.026-0.2-0.051-0.291-0.075c-0.206-0.054-0.464-0.152-0.757-0.283c-6.472-2.451-9.991-8.232-9.991-13.227
				c0-6.31,6.05-9.238,17.842-9.281c10.095-0.037,12.774,0.784,12.774,12.254C1055.777,792.248,1052.692,797.965,1040.871,797.363z"
				/>
			<path fill="#CCCCCC" d="M1000.956,797.673l-0.025-0.384c0.054-0.004,5.53-0.424,9.662-4.365c4.122-3.932,4.433-8.035,4.436-8.076
				l0.383,0.025c-0.011,0.172-0.315,4.285-4.556,8.33C1006.624,797.242,1001.013,797.668,1000.956,797.673z"/>
			<path fill="none" d="M997.273,773.686c-10.095-0.037-12.774,0.784-12.774,12.254c0,6.309,3.084,12.025,14.907,11.424
				c1.684-0.086,3.239-0.371,4.668-0.812c0.102-0.026,0.199-0.051,0.293-0.075c0.205-0.054,0.465-0.152,0.758-0.283
				c6.471-2.451,9.989-8.232,9.989-13.227C1015.114,776.657,1009.065,773.729,997.273,773.686z"/>
			<path fill="#4F4F4F" d="M1009.59,774.223l-1.044,0.898c-1.062-0.316-4.185-1.146-7.783-1.328
				c-1.239-0.063-4.604-0.199-8.497,0.104c-1.274,0.1-2.193,0.236-3.5,0.637l-8.915-0.072v-1.746
				c2.571-0.561,7.409-1.111,9.464-1.133c1.497-0.018,3.209-0.066,4.727,0.031c2.948,0.189,5.353,0.607,5.353,0.607
				s3.741,0.547,5.269,0.815C1006.188,773.305,1009.59,774.223,1009.59,774.223z"/>
			<path fill="#4F4F4F" d="M1016.346,776.541c0,0,1.848,0.471,3.254,0.551l0.443,5.261c-1.697-0.286-2.777,1.462-2.777,1.462
				L1016.346,776.541z"/>
			<path fill="#CCCCCC" d="M1047.856,797.199v-0.385c0.435-0.025,4.836-1.291,6.771-4.965c2.107-4.004,0.92-11.17,0.908-11.242
				l0.378-0.064c0.052,0.299,1.221,7.367-0.947,11.486C1052.896,795.961,1048.227,797.199,1047.856,797.199z"/>
			<path fill="none" d="M1043.003,773.686c-11.792,0.043-17.842,2.972-17.842,9.281c0,4.994,3.52,10.775,9.991,13.227
				c0.293,0.131,0.551,0.229,0.757,0.283c0.091,0.024,0.19,0.049,0.291,0.075c1.43,0.44,2.986,0.726,4.671,0.812
				c11.821,0.602,14.906-5.115,14.906-11.424C1055.777,774.47,1053.098,773.648,1043.003,773.686z"/>
			<g>
				<path fill="#EFEDEA" d="M999.929,798.85c-0.136,0.061-0.272,0.115-0.411,0.174"/>
			</g>
		</g>
	</g>
	<g>
		<g>
			<g>
				<g>
					<path fill="#EDE2CC" d="M996.643,933.391h83.661c0,0,0.962,4.295-3.132,4.172c-6.738-0.203-78.493,0.517-79.434,0
						C996.299,936.774,996.799,935.061,996.643,933.391z"/>
				</g>
			</g>
			<g>
				<g>
					<rect x="996.739" y="901.66" fill="#8AA387" width="83.663" height="31.93"/>
				</g>
			</g>
			<g>
				<g>
					<polygon fill="#EDE2CC" points="1080.402,901.66 996.643,901.66 996.643,893.415 1072.356,893.415 1080.402,893.415 					"/>
				</g>
			</g>
			<g>
				<g>
					<path fill="#A88F6A" d="M1001.655,899.368c-1.037,0-1.882-0.843-1.882-1.88s0.845-1.881,1.882-1.881
						c1.036,0,1.88,0.844,1.88,1.881S1002.691,899.368,1001.655,899.368z M1001.655,895.922c-0.864,0-1.565,0.701-1.565,1.566
						s0.701,1.566,1.565,1.566c0.862,0,1.565-0.701,1.565-1.566S1002.518,895.922,1001.655,895.922z"/>
				</g>
			</g>
			<g>
				<g>
					<polygon fill="#DDB760" points="1038.68,882.135 1046.254,882.135 1056.594,892.79 1028.078,892.79 					"/>
				</g>
			</g>
			<g>
				<g>
					<polygon fill="#EDE2CC" points="1053.391,889.49 1031.363,889.49 1031.674,889.177 1053.088,889.177 					"/>
				</g>
			</g>
			<g>
				<polygon fill="#DDB760" points="1051.466,901.66 1058.14,901.66 1059.244,906.592 				"/>
			</g>
			<path fill="#5A4C45" d="M1059.491,906.93l-8.555-5.428h7.337L1059.491,906.93z M1052.016,901.816l7.004,4.442l-1-4.442H1052.016z
				"/>
			<path opacity="0.4" fill="#726658" d="M1056.805,893.431h23.605c0,6.813,0.081,31.935-0.008,41.321
				c-0.005,0.449-0.124,1.158-0.555,1.721c-0.319,0.416-0.738,0.739-1.361,0.943c-0.573,0.188-2.612,0.107-2.612,0.107
				l-16.622,0.061l-14.146-0.043l14.385-30.611l-1.454-6.832L1056.805,893.431z"/>
			<g>
				<polygon fill="#DDB760" points="1033.979,901.66 1027.307,901.66 1026.199,906.592 				"/>
			</g>
			<path fill="#5A4C45" d="M1025.965,906.93l1.217-5.428h7.337L1025.965,906.93z M1027.434,901.816l-0.999,4.442l7.006-4.442
				H1027.434z"/>
			<g>
				<g>
					<path fill="#5A4C45" d="M1058.037,900.098h-32.049l1.974-6.683h28.76L1058.037,900.098z M1026.408,899.785h31.248l-1.193-6.059
						h-28.268L1026.408,899.785z"/>
				</g>
			</g>
			<g>
				<path fill="#5A4C45" d="M1064.477,920.988c0,12.027-9.746,21.777-21.776,21.777c-12.026,0-21.776-9.75-21.776-21.777
					c0-12.026,9.75-21.776,21.776-21.776C1054.73,899.212,1064.477,908.962,1064.477,920.988z"/>
			</g>
			<g>
				<path fill="#EDE2CC" d="M1042.7,942.923c-12.094,0-21.933-9.841-21.933-21.935s9.839-21.934,21.933-21.934
					c12.097,0,21.937,9.84,21.937,21.934S1054.797,942.923,1042.7,942.923z M1042.7,899.368c-11.919,0-21.618,9.7-21.618,21.62
					c0,11.922,9.699,21.621,21.618,21.621c11.924,0,21.622-9.699,21.622-21.621C1064.322,909.068,1054.624,899.368,1042.7,899.368z"
					/>
			</g>
			<g>
				<circle fill="#5A4C45" cx="1042.701" cy="920.988" r="19.452"/>
			</g>
			<path fill="#493736" d="M1038.129,909.594l-3.233-8.766c-1.871,0.337-9.978,5.012-12.852,13.596
				c-1.649,4.936-1.716,11.686,2.633,18.492l7.511-5.455C1031.513,927.259,1025.965,915.121,1038.129,909.594z"/>
			<g>
				<path fill="#DDB760" d="M1042.7,940.617c-10.82,0-19.626-8.805-19.626-19.629c0-10.823,8.806-19.629,19.626-19.629
					c10.827,0,19.628,8.806,19.628,19.629C1062.328,931.813,1053.527,940.617,1042.7,940.617z M1042.7,901.711
					c-10.63,0-19.276,8.646-19.276,19.277c0,10.629,8.646,19.278,19.276,19.278c10.633,0,19.278-8.649,19.278-19.278
					C1061.979,910.357,1053.333,901.711,1042.7,901.711z"/>
			</g>
			<g>
				<path fill="#5A4C45" d="M1054.608,920.988c0,6.662-5.398,12.063-12.064,12.063c-6.661,0-12.063-5.4-12.063-12.063
					s5.401-12.064,12.063-12.064C1049.21,908.924,1054.608,914.326,1054.608,920.988z"/>
			</g>
			<g>
				<path fill="#DDB760" d="M1042.544,933.207c-6.738,0-12.22-5.48-12.22-12.219s5.481-12.221,12.22-12.221
					c6.739,0,12.222,5.482,12.222,12.221S1049.283,933.207,1042.544,933.207z M1042.544,909.08c-6.563,0-11.906,5.344-11.906,11.908
					c0,6.566,5.343,11.906,11.906,11.906c6.568,0,11.908-5.34,11.908-11.906C1054.452,914.424,1049.112,909.08,1042.544,909.08z"/>
			</g>
			<g>
				<circle fill="#5A4C45" cx="1042.702" cy="920.988" r="9.713"/>
			</g>
			<g>
				<path fill="#DDB760" d="M1042.544,930.857c-5.44,0-9.868-4.428-9.868-9.869s4.428-9.87,9.868-9.87
					c5.442,0,9.871,4.429,9.871,9.87S1047.986,930.857,1042.544,930.857z M1042.544,911.432c-5.267,0-9.556,4.288-9.556,9.557
					c0,5.27,4.289,9.557,9.556,9.557c5.271,0,9.56-4.287,9.56-9.557C1052.104,915.72,1047.814,911.432,1042.544,911.432z"/>
			</g>
			<g>
				<g>
					<polygon fill="#5A4C45" points="1064.008,890.852 1076.333,890.852 1077.797,892.836 1062.336,892.836 					"/>
				</g>
			</g>
			<g>
				<g>
					<polygon fill="#5A4C45" points="1065.687,888.674 1074.598,888.674 1075.653,890.11 1064.477,890.11 					"/>
				</g>
			</g>
			<g>
				<g>
					<rect x="1016.903" y="888.227" fill="#5A4C45" width="9.296" height="4.528"/>
				</g>
			</g>
			<g>
				<g>
					<rect x="999.358" y="890.852" fill="#5A4C45" width="9.922" height="1.984"/>
				</g>
			</g>
			<g>
				<g>
					<rect x="1010.324" y="888.947" fill="#5A4C45" width="5.534" height="3.813"/>
				</g>
			</g>
			<g>
				<g>
					<rect x="1010.324" y="887.074" fill="#5A4C45" width="5.534" height="1.529"/>
				</g>
			</g>
			<g>
				<g>
					<rect x="999.646" y="889.72" fill="#5A4C45" width="9.348" height="0.774"/>
				</g>
			</g>
			<g>
				<g>
					<circle fill="#EDE2CC" cx="1041.449" cy="917.934" r="3.76"/>
				</g>
			</g>
			<path opacity="0.3" fill="#F9ECCF" d="M997.155,893.938l12.761-0.105c-4.379,12.18-9.138,29.148-12.761,41.825l0,0V893.938z"/>
			<polygon opacity="0.3" fill="#F9ECCF" points="1043.974,882.311 1039.338,882.311 1029.797,892.521 1034.787,892.521 			"/>
			<polygon opacity="0.2" fill="#F9ECCF" points="1071.422,888.674 1066.484,888.674 1065.515,890.11 1066.062,890.11 1070,890.11 
							"/>
			<polygon opacity="0.2" fill="#F9ECCF" points="1072.005,890.852 1065.289,890.852 1063.719,892.836 1068.65,892.836 
				1069.652,892.836 			"/>
			<path opacity="0.3" fill="#F9ECCF" d="M1054.608,922.48l9.691,1.123c0,0,0.025,7.254-7.848,14.148l-6.327-7.162
				C1050.125,930.59,1054.065,927.72,1054.608,922.48z"/>
			<g opacity="0.6">
				<g>
					<circle fill="#926F4D" cx="1043.807" cy="920.094" r="0.939"/>
				</g>
			</g>
			<g>
				<g>
					<circle fill="#EDE2CC" cx="1044.348" cy="920.094" r="0.939"/>
				</g>
			</g>
		</g>
	</g>
	<g>
		<g>
			<g>
				<g>
					<path fill="#473D39" d="M1072.408,1085.383c0,2.055-1.776,3.725-3.968,3.725h-28.379c-2.194,0-3.972-1.67-3.972-3.725v-58.99
						c0-2.055,1.777-3.719,3.972-3.719h28.379c2.191,0,3.968,1.664,3.968,3.719V1085.383z"/>
				</g>
			</g>
		</g>
		<g>
			<g>
				<g>
					<g>
						<g>
							<path fill="#E8E3CF" d="M1059.004,1027.485c0,0.163-0.135,0.3-0.293,0.3h-9.23c-0.159,0-0.293-0.137-0.293-0.3l0,0
								c0-0.171,0.134-0.308,0.293-0.308h9.23C1058.869,1027.178,1059.004,1027.314,1059.004,1027.485L1059.004,1027.485z"/>
						</g>
					</g>
				</g>
			</g>
		</g>
		<g>
			<g>
				<g>
					<g>
						<g>
							<rect x="1038.347" y="1031.442" fill="#EDDBB5" width="31.496" height="48.392"/>
						</g>
					</g>
				</g>
			</g>
		</g>
		<path opacity="0.3" fill="#EFEDEA" d="M1067.585,1022.674l-31.495,47.994c0,0,0-42.883,0-44.926c0-1.83,3.178-3.068,3.178-3.068
			H1067.585z"/>
	</g>
	<path fill="#FFFFFF" d="M1168.82,985.756c-0.084-0.005-0.17-0.012-0.255-0.016c0.018,0.004,0.033,0.008,0.051,0.012
		L1168.82,985.756z"/>
	<path fill="#212121" d="M1166.176,985.707c0.008,0.001,0.015,0.004,0.021,0.005c0.053-0.001,0.104-0.001,0.156-0.001
		L1166.176,985.707z"/>
	<g>
		<g>
			<path fill="#FFFFFF" d="M1075.274,865.125c0,0-5.063,9.904,3.522,16.232c1.378,1.016,64.773,0.766,64.773,0.766
				s37.785-0.455,48.085-1.99c10.259-1.531,25.492-5.141,28.4-8.557c0.757-0.888-0.685-8.748-0.837-10.739
				c-0.153-1.991-3.521-3.7-4.44-3.7c-0.92,0-13.013,7.85-58.647,8.469L1075.274,865.125z"/>
		</g>
	</g>
	<g>
		<g>
			<path fill="#473D39" d="M1081.706,836.182c0,0-6.432,6.577-6.432,28.943c0,0.767,39.507,0.767,39.507,0.767
				s50.934-0.093,57.736-0.876c2.849-0.328,6.877-0.518,12.564-1.131c11.143-1.201,26.109-3.73,29.555-6.334
				c2.493-1.883-12.569-2.686-13.028-2.686c0,0-22.05-2.604-24.961-6.278c-2.909-3.676-24.095-11.792-31.955-11.638
				c-7.859,0.152-10.31-0.308-11.228-1.533c-0.919-1.224,0.386,3.021-0.574,4.268c-0.957,1.246-7.823,6.031-14.422,6.497
				c-8.422,0.594-18.525-2.351-21.975-3.911C1093.494,840.91,1083.237,833.904,1081.706,836.182z"/>
		</g>
	</g>
	<g>
		<g>
			<path fill="#FFFFFF" d="M1101.656,866.041c-0.75-16.681-23.351-22.451-23.579-22.505l0.104-0.446
				c0.232,0.053,23.205,5.924,23.967,22.951H1101.656z"/>
		</g>
	</g>
	<g>
		<g>
			<path fill="#FFFFFF" d="M1104.375,865.83c-3.306-18.525-25.368-24.207-25.59-24.262l0.109-0.445
				c0.227,0.057,22.574,5.951,25.933,24.769L1104.375,865.83z"/>
		</g>
	</g>
	<g>
		<g>
			<path fill="#FFFFFF" d="M1141.27,866.434l-0.45-0.092c0.013-0.059,1.281-5.935,7.92-7.641c6.901-1.775,20.319-1.219,20.454-1.215
				c0.061,0.003,6.145,0.207,8.407-1.502c2.474-1.873,2.84-5.217,2.842-5.249l0.457,0.046c-0.013,0.145-0.39,3.578-3.022,5.568
				c-2.391,1.809-8.445,1.604-8.703,1.597c-0.136-0.005-13.484-0.558-20.32,1.198
				C1142.502,860.779,1141.281,866.377,1141.27,866.434z"/>
		</g>
	</g>
	<g>
		<g>
			<path fill="#FFFFFF" d="M1137.105,866.018l-0.391-0.242c0.181-0.293,4.487-7.189,10.246-9.08
				c4.166-1.367,11.788-1.219,17.914-1.1c3.531,0.069,6.58,0.129,7.634-0.166c2.072-0.582,5.569-2.078,5.69-5.588l0.461,0.016
				c-0.099,2.776-2.295,4.969-6.028,6.014c-1.12,0.313-4.054,0.255-7.766,0.184c-6.089-0.119-13.671-0.266-17.761,1.076
				C1141.505,858.971,1137.148,865.947,1137.105,866.018z"/>
		</g>
	</g>
	<g>
		<g>
			<path fill="#FFFFFF" d="M1115.489,848.539c-3.662,0-6.827-0.416-7.896-0.572c-4.883-0.719-13.35-3.848-18.487-6.832
				c-5.669-3.293-8.312-3.47-8.337-3.47l0.022-0.46c0.111,0.006,2.756,0.17,8.545,3.531c5.098,2.963,13.488,6.063,18.324,6.775
				c2.227,0.328,13.627,1.781,19.417-1.793c1.188-0.734,2.372-1.49,3.516-2.219c3.575-2.283,6.664-4.257,8.778-4.895
				c4.62-1.398,8.431,0.219,8.591,0.287l-0.184,0.422c-0.037-0.016-3.821-1.618-8.274-0.27c-2.054,0.62-5.266,2.67-8.664,4.842
				c-1.146,0.73-2.33,1.486-3.521,2.223C1124.206,848.031,1119.541,848.539,1115.489,848.539z"/>
		</g>
	</g>
	<g>
		<g>
			<path fill="#FFFFFF" d="M1145.016,836.947c-0.109,0.184-0.698,3.484-0.698,3.484l3.217,0.861c0,0,0.844-3.549,1.957-3.809
				C1149.697,837.436,1145.124,836.764,1145.016,836.947z"/>
		</g>
	</g>
	<g>
		<g>
			<path fill="#FFFFFF" d="M1151.806,837.992c-0.213-0.004-0.77,3.979-0.77,3.979l3.216,0.863c0,0,0.592-3.432,1.705-3.692
				C1156.163,839.094,1152.08,837.993,1151.806,837.992z"/>
		</g>
	</g>
	<g>
		<g>
			<path fill="#FFFFFF" d="M1158.275,839.848c-0.213-0.003-1.133,3.84-1.133,3.84l3.58,1.004c0,0,0.875-3.03,1.987-3.292
				C1162.916,841.352,1158.551,839.852,1158.275,839.848z"/>
		</g>
	</g>
	<g>
		<g>
			<path fill="#FFFFFF" d="M1165.372,842.442c-0.212-0.003-1.263,2.966-1.263,2.966l3.39,1.74c0,0,0.644-3.557,1.682-3.082
				C1169.255,844.102,1165.647,842.446,1165.372,842.442z"/>
		</g>
	</g>
	<g>
		<g>
			<path fill="#FFFFFF" d="M1171.346,845.143c-0.213,0-1.265,2.611-1.265,2.611l3.39,2.096c0,0,1.281-2.01,2.278-2.119
				C1175.828,847.721,1171.796,845.143,1171.346,845.143z"/>
		</g>
	</g>
	<g>
		<g>
			
				<ellipse transform="matrix(0.9821 0.1884 -0.1884 0.9821 179.0708 -200.8398)" fill="#FFFFFF" cx="1145.85" cy="841.4" rx="2.775" ry="1.36"/>
		</g>
	</g>
	<g>
		<g>
			
				<ellipse transform="matrix(0.9632 0.2687 -0.2687 0.9632 269.0027 -278.6721)" fill="#FFFFFF" cx="1152.453" cy="843.294" rx="2.776" ry="1.358"/>
		</g>
	</g>
	<g>
		<g>
			
				<ellipse transform="matrix(0.9632 0.2688 -0.2688 0.9632 269.7897 -280.3745)" fill="#FFFFFF" cx="1158.885" cy="845.145" rx="2.776" ry="1.359"/>
		</g>
	</g>
	<g>
		<g>
			
				<ellipse transform="matrix(0.9278 0.3731 -0.3731 0.9278 400.1379 -373.653)" fill="#FFFFFF" cx="1165.258" cy="846.776" rx="2.777" ry="1.359"/>
		</g>
	</g>
	<g>
		<g>
			
				<ellipse transform="matrix(0.8715 0.4904 -0.4904 0.8715 566.9596 -465.5352)" fill="#FFFFFF" cx="1171.689" cy="848.953" rx="2.776" ry="1.358"/>
		</g>
	</g>
	<g>
		<g>
			<path fill="#473D39" d="M1144.099,869.657c-17.107,0-69.493-0.573-70.067-0.579l0.21-0.873c0.626,0.007,62.79,0.633,73.612,0.518
				c10.422-0.111,40.474-1.516,51.378-3.736c7.291-1.484,17.854-5.084,18.042-6.475l0.023-0.264c0,0,0.225,0.109,0.393,0.248
				c0.263,0.221,0.416,0.402,0.416,0.402c-0.991,2.665-14.819,6.201-18.691,6.988c-10.961,2.231-41.102,3.645-51.55,3.756
				C1146.95,869.652,1145.674,869.657,1144.099,869.657z"/>
		</g>
	</g>
	<g>
		<path fill="#F5EBD0" d="M1152.227,828.076c0.111,0.004,0.564,0.016,1.257,0.012c-0.375-0.027-0.791-0.053-1.253-0.076
			L1152.227,828.076z"/>
	</g>
	<g>
		<path fill="#FFFFFF" d="M1203.986,790.637c-5.342-3.33-22.256-9.656-31.867-10.268l-0.195-0.002
			c9.481,2.182,32.781,8.406,40.198,18.243c5.784,7.669,6.165,15.136,1.14,22.194c-0.153,0.213-0.273,0.383-0.347,0.502
			c-1.997,3.279-13.812,10.236-29.106,11.139c3.436-0.016,6.69-0.301,9.734-0.972c7.926-1.746,25.017-6.259,25.25-18.884
			C1219.027,799.965,1209.606,794.141,1203.986,790.637z"/>
	</g>
	<g>
		<path fill="#473D39" d="M1132.914,795.087c-2.016-4.714-16.652-5.774-21.621-5.774c-5.935,0-19.835,2.217-29.976,10.61
			c-4.078,3.376-6.174,7.251-6.063,11.204c0.097,3.46,1.934,6.836,4.912,9.033c2.408,1.773,15.761,5.082,27.972,5.082
			c0.193,0,0.385,0,0.575,0c9.283-0.082,10.193-0.187,15.646-1.115c4.628-0.787,5.377-1.617,7.381-3.832
			c0.351-0.387,0.746-0.824,1.204-1.307c3.349-3.523,7.315-7.213,12.634-7.596c0.385-0.719,0.598-1.313,0.484-1.623
			c-0.121-0.334-0.18-0.902-0.144-1.514c-0.036-0.611,0.022-1.178,0.144-1.514c0.216-0.594-0.754-2.223-1.86-3.803
			C1141.246,802.313,1135.185,800.402,1132.914,795.087z M1129.522,820.48c-2.641,1.861-9.495,3.193-12.82,3.355
			c-9.663,0.469-17.144,1.047-26.875-1.523c-8.292-2.189-9.87-3.244-11.534-5.611c-1.179-1.676-3.01-5.083,0.379-11.613
			c3.496-6.738,21.819-12.883,27.521-13.793c4.201-0.67,18.235-0.622,24.625,6.703c2.218,2.541-1.129,3.672-1.53,6.862
			c-0.351,2.788-0.058,3.62,0,6.897C1129.352,815.41,1131.669,818.967,1129.522,820.48z M1132.543,817.111l-0.195,0.131
			c-0.047-0.069-4.646-7.162,1.556-17.469l0.199,0.119C1127.983,810.068,1132.494,817.043,1132.543,817.111z"/>
	</g>
	<path fill="#473D39" d="M1152.243,827.609c0.202,0.009,20.312,0.541,22.272-8.361c2.078-9.431,0.147-26.168-0.578-27.08
		c-0.09-0.115-0.183-0.248-0.284-0.394c-0.835-1.21-2.389-3.462-10.962-4.569c-9.555-1.231-21.926-3.137-22.049-3.156l0.07-0.462
		c0.123,0.021,12.487,1.923,22.037,3.155c8.78,1.133,10.413,3.496,11.289,4.767c0.094,0.138,0.18,0.259,0.266,0.368
		c0.927,1.166,2.738,18.078,0.669,27.472c-1.774,8.051-16.951,8.722-21.49,8.739c0.92,0.068,1.57,0.146,1.841,0.234
		c0.183,0.062,0.512,0.143,0.941,0.233c4.234-0.028,19.484-0.671,21.18-8.367c2.008-9.109-0.207-25.571-0.621-27.167
		c-0.631-2.426-1.415-5.445-11.027-6.686c-9.555-1.232-22.103-3.238-22.228-3.258l0.043-0.266l0.031-0.197
		c0.125,0.021,12.665,2.025,22.215,3.258c9.923,1.279,10.787,4.604,11.419,7.031c0.416,1.607,2.648,18.199,0.625,27.385
		c-1.552,7.041-13.354,8.438-19.327,8.688c7.456,1.211,25.333,3.019,36.183-0.655c13.279-4.498,16.989-7.949,19.016-13.404
		c2.027-5.455-1.246-11.69-6.234-17.3c-4.988-5.613-24.783-12.157-35.07-15.276c-10.287-3.117-47.259,2.227-52.215,3.273
		c-4.954,1.046-28.277,2.15-32.575,3.367c-6.857,1.941-12.313,8.791-13.56,10.973s-4.487,8.702,0,17.613
		c5.177,10.275,22.912,9.975,22.912,9.975s0.664-0.004,1.758-0.011c8.098-0.431,27.057-1.183,42.386,0.202
		c4.312,0.055,8.369,0.139,11.056,0.277L1152.243,827.609z M1161.915,796.531c1.138,0,2.06,0.922,2.06,2.061
		c0,0.066-0.014,0.132-0.019,0.197c1.281,1.672,3.393,4.41,4.143,5.303c0.362,0.432,0.858,0.982,1.278,1.6
		c-0.097-1.881-0.802-4.424-1.031-5.209c-0.731-0.317-1.244-1.044-1.244-1.891c0-1.139,0.922-2.061,2.062-2.061
		c1.139,0,2.061,0.922,2.061,2.061c0,0.057-0.013,0.111-0.018,0.167l0.018-0.008c0,0,0.685,0.913,0.838,1.595
		c0.182,0.828,0.729,5.635,0.938,7.612c0.043,0.003,0.066,0.004,0.066,0.004s-0.011,0.13-0.03,0.351c0.02,0.184,0.03,0.29,0.03,0.29
		s-0.021,0.003-0.057,0.005c-0.182,2.061-0.77,8.369-1.085,8.537c-0.001,0-0.003,0-0.003,0.002c0,0.01,0.003,0.021,0.003,0.03
		c0,1.14-0.923,2.062-2.061,2.062c-1.139,0-2.062-0.922-2.062-2.062c0-0.587,0.249-1.114,0.645-1.491
		c0.291-1.033,0.854-3.216,0.932-4.869c-0.421,0.619-0.916,1.17-1.28,1.604c-0.747,0.891-2.846,3.611-4.128,5.284
		c0,0.02,0.004,0.038,0.004,0.058c0,1.139-0.922,2.061-2.06,2.061s-2.062-0.922-2.062-2.061c0-0.979,0.686-1.795,1.602-2.004
		c1.612-1.861,4.75-5.646,4.481-6.632c-0.063-0.227-0.094-0.532-0.088-0.87c-0.006-0.338,0.025-0.645,0.088-0.871
		c0.279-1.024-3.132-5.082-4.671-6.848c-0.816-0.273-1.412-1.036-1.412-1.945C1159.854,797.453,1160.777,796.531,1161.915,796.531z
		 M1155.602,795.712c1.14,0,2.063,0.922,2.063,2.062c0,0.195-0.037,0.383-0.09,0.563c1.176,1.649,3.379,4.743,4.095,5.755
		c0.687,0.971,1.792,2.62,1.616,4.164c0.176,1.543-0.93,3.195-1.616,4.164c-0.704,0.996-2.852,4.012-4.039,5.679
		c-0.162,0.978-1.005,1.724-2.028,1.724c-1.137,0-2.059-0.922-2.059-2.061c0-1.05,0.787-1.906,1.801-2.034
		c1.442-1.956,3.757-5.298,3.432-6.191c-0.107-0.298-0.161-0.769-0.139-1.28c-0.022-0.514,0.031-0.982,0.139-1.279
		c0.468-1.287-4.529-7.643-4.529-7.643l0.013-0.01c-0.437-0.378-0.716-0.93-0.716-1.551
		C1153.543,796.634,1154.465,795.712,1155.602,795.712z M1142.524,820.48c-1.138,0-2.06-0.922-2.06-2.061
		c0-0.855,0.519-1.586,1.258-1.899c0.108-0.044,0.223-0.077,0.34-0.105c0.881-1.104,2.484-3.191,3.38-4.778
		c-5.161,0.438-9.046,4.057-12.329,7.512c-0.455,0.481-0.851,0.918-1.199,1.303c-1.985,2.197-2.808,3.104-7.516,3.906
		c-5.47,0.932-6.381,1.037-15.684,1.116c-0.191,0.003-0.382,0.003-0.574,0.003c-12.256,0-25.684-3.338-28.112-5.128
		c-3.036-2.238-4.909-5.684-5.008-9.215c-0.079-2.81,0.922-7.065,6.148-11.391c10.192-8.437,24.162-10.664,30.124-10.664
		c5.369,0,19.761,1.063,21.836,5.915c2.17,5.078,7.879,6.992,10.873,7.664c-0.833-1.166-1.705-2.271-2.184-2.867
		c-0.94-0.191-1.646-1.023-1.646-2.018c0-1.14,0.922-2.062,2.06-2.062c1.077,0,1.949,0.827,2.043,1.876
		c0.951,1.17,4.271,5.262,5.121,6.461c0.688,0.971,1.542,2.647,1.206,4.207c0.336,1.561-0.519,3.236-1.206,4.206
		c-0.776,1.095-3.612,4.603-4.823,6.095C1144.5,819.631,1143.616,820.48,1142.524,820.48z M1149.083,820.48
		c-1.139,0-2.06-0.922-2.06-2.061c0-0.771,0.427-1.435,1.055-1.787c1.197-1.516,4.453-5.762,4.441-7.088
		c-0.14-0.396-0.197-0.856-0.192-1.289c-0.005-0.432,0.053-0.893,0.192-1.289c0.014-1.623-4.879-7.633-4.879-7.633l0.059-0.045
		c-0.414-0.377-0.676-0.913-0.676-1.516c0-1.14,0.921-2.062,2.06-2.062c1.14,0,2.063,0.922,2.063,2.062
		c0,0.188-0.034,0.369-0.083,0.545c1.324,1.635,3.81,4.717,4.528,5.73c0.746,1.055,1.581,2.707,1.042,4.207
		c0.539,1.499-0.296,3.152-1.042,4.206c-0.709,1.001-3.139,4.016-4.477,5.667c0.015,0.096,0.031,0.191,0.031,0.291
		C1151.146,819.559,1150.223,820.48,1149.083,820.48z"/>
	<g>
		<path fill="#EFEFE6" d="M1129.762,804.414c1.254-3.195,2.621-4.641,1.057-6.416c-6.428-7.293-20.424-7.373-24.625-6.703
			c-5.702,0.91-24.025,7.055-27.521,13.793c-3.389,6.53-1.558,9.938-0.379,11.613c1.664,2.367,3.242,3.422,11.534,5.611
			c9.731,2.57,17.212,1.992,26.875,1.523c3.325-0.162,10.18-1.494,12.82-3.355c2.146-1.514-0.171-5.07-0.234-8.723
			C1129.23,808.48,1128.734,807.031,1129.762,804.414z"/>
	</g>
	<g>
		<path fill="#FFFFFF" d="M1177.902,820.289c2.023-9.186-0.209-25.777-0.625-27.385c-0.632-2.427-1.496-5.752-11.419-7.031
			c-9.55-1.232-22.523-3.322-22.648-3.342l-1.933,0.173l2.292,0.374c0.125,0.02,12.673,2.025,22.228,3.258
			c9.612,1.24,10.396,4.26,11.027,6.686c0.414,1.596,2.629,18.058,0.621,27.167c-1.695,7.696-16.945,8.339-21.18,8.367
			c0.575,0.124,1.353,0.267,2.31,0.422C1164.549,828.727,1176.351,827.33,1177.902,820.289z"/>
	</g>
	<g>
		<path fill="#FFFFFF" d="M1211.75,798.891c-8-10.608-34.859-16.996-42.145-18.563c-13.497,0.195-40.379,3.72-47.437,3.72
			c-7.247,0-28.396,2.104-30.394,2.104c-6.547,0-21.273,6.779-20.339,24.314s20.569,17.473,23.38,17.301
			c0,0,1.475-0.103,3.973-0.235c-1.094,0.007-1.758,0.011-1.758,0.011s-17.735,0.301-22.912-9.975
			c-4.487-8.911-1.247-15.432,0-17.613s6.702-9.031,13.56-10.973c4.298-1.217,27.621-2.321,32.575-3.367
			c1.849-0.391,8.155-1.379,15.87-2.303l4.519,0.736c0.123,0.02,12.494,1.925,22.049,3.156c8.573,1.107,10.127,3.359,10.962,4.569
			c0.102,0.146,0.194,0.278,0.284,0.394c0.726,0.912,2.656,17.649,0.578,27.08c-1.961,8.902-22.07,8.37-22.272,8.361l-3.452,0.271
			l3.439,0.131c0.462,0.023,0.878,0.049,1.253,0.076c4.539-0.018,19.716-0.688,21.49-8.739c2.069-9.394,0.258-26.306-0.669-27.472
			c-0.086-0.109-0.172-0.23-0.266-0.368c-0.876-1.271-2.509-3.634-11.289-4.767c-8.72-1.125-22.623-3.24-25.066-3.613
			c12.728-1.475,28.594-2.664,34.785-0.787c10.287,3.119,30.082,9.663,35.07,15.276c4.988,5.609,8.262,11.845,6.234,17.3
			c-2.026,5.455-5.736,8.906-19.016,13.404c-10.85,3.674-28.727,1.866-36.183,0.655c-0.957-0.155-1.734-0.298-2.31-0.422
			c-0.43-0.091-0.883-0.206-1.065-0.267c-0.271-0.09-0.797-0.133-1.717-0.201c-0.737-0.076-1.253-0.076-1.253-0.076
			c-2.687-0.139-6.744-0.223-11.056-0.277c0.132,0.01,0.268,0.021,0.4,0.033c13.445,1.25,25.977,3.843,36.931,4.515l0.009-0.239
			c17.615,0.66,31.82-7.398,34-10.979c0.078-0.126,0.203-0.306,0.364-0.531C1217.775,813.66,1217.395,806.379,1211.75,798.891z"/>
	</g>
	<g>
		<path fill="#FFFFFF" d="M1161.266,800.537c1.539,1.766,4.95,5.823,4.671,6.848c-0.063,0.227-0.094,0.533-0.088,0.871
			c-0.006,0.338,0.025,0.644,0.088,0.87c0.269,0.985-2.869,4.771-4.481,6.632c-0.916,0.209-1.602,1.024-1.602,2.004
			c0,1.139,0.924,2.061,2.062,2.061s2.06-0.922,2.06-2.061c0-0.02-0.004-0.038-0.004-0.058c1.282-1.673,3.381-4.394,4.128-5.284
			c0.364-0.434,0.859-0.984,1.28-1.604c-0.077,1.653-0.641,3.836-0.932,4.869c-0.396,0.377-0.645,0.904-0.645,1.491
			c0,1.14,0.923,2.062,2.062,2.062c1.138,0,2.061-0.922,2.061-2.062c0-0.009-0.003-0.021-0.003-0.03
			c0-0.002,0.002-0.002,0.003-0.002c0.315-0.168,0.903-6.477,1.085-8.537c0.036-0.002,0.057-0.005,0.057-0.005
			s-0.011-0.106-0.03-0.29c0.02-0.221,0.03-0.351,0.03-0.351s-0.023-0.001-0.066-0.004c-0.21-1.978-0.757-6.784-0.938-7.612
			c-0.153-0.682-0.838-1.595-0.838-1.595l-0.018,0.008c0.005-0.056,0.018-0.11,0.018-0.167c0-1.139-0.922-2.061-2.061-2.061
			c-1.14,0-2.062,0.922-2.062,2.061c0,0.847,0.513,1.573,1.244,1.891c0.229,0.785,0.935,3.328,1.031,5.209
			c-0.42-0.617-0.916-1.168-1.278-1.6c-0.75-0.893-2.861-3.631-4.143-5.303c0.005-0.065,0.019-0.131,0.019-0.197
			c0-1.139-0.922-2.061-2.06-2.061s-2.062,0.922-2.062,2.061C1159.854,799.501,1160.449,800.264,1161.266,800.537z"/>
	</g>
	<g>
		<path fill="#FFFFFF" d="M1151.114,818.129c1.338-1.651,3.768-4.666,4.477-5.667c0.746-1.054,1.581-2.707,1.042-4.206
			c0.539-1.5-0.296-3.152-1.042-4.207c-0.719-1.014-3.204-4.096-4.528-5.73c0.049-0.176,0.083-0.356,0.083-0.545
			c0-1.14-0.923-2.062-2.063-2.062c-1.139,0-2.06,0.922-2.06,2.062c0,0.603,0.262,1.139,0.676,1.516l-0.059,0.045
			c0,0,4.893,6.01,4.879,7.633c-0.14,0.396-0.197,0.857-0.192,1.289c-0.005,0.433,0.053,0.893,0.192,1.289
			c0.012,1.326-3.244,5.572-4.441,7.088c-0.628,0.353-1.055,1.016-1.055,1.787c0,1.139,0.921,2.061,2.06,2.061
			c1.14,0,2.063-0.922,2.063-2.061C1151.146,818.32,1151.129,818.225,1151.114,818.129z"/>
	</g>
	<g>
		<path fill="#FFFFFF" d="M1154.246,799.334c0,0,4.997,6.355,4.529,7.643c-0.107,0.297-0.161,0.766-0.139,1.279
			c-0.022,0.512,0.031,0.982,0.139,1.28c0.325,0.894-1.989,4.235-3.432,6.191c-1.014,0.128-1.801,0.984-1.801,2.034
			c0,1.139,0.922,2.061,2.059,2.061c1.023,0,1.866-0.746,2.028-1.724c1.188-1.667,3.335-4.683,4.039-5.679
			c0.687-0.969,1.792-2.621,1.616-4.164c0.176-1.544-0.93-3.193-1.616-4.164c-0.716-1.012-2.919-4.105-4.095-5.755
			c0.053-0.181,0.09-0.368,0.09-0.563c0-1.14-0.923-2.062-2.063-2.062c-1.137,0-2.059,0.922-2.059,2.062
			c0,0.621,0.279,1.173,0.716,1.551L1154.246,799.334z"/>
	</g>
	<g>
		<path fill="#FFFFFF" d="M1132.944,818.988c-0.458,0.482-0.854,0.92-1.204,1.307c-2.004,2.215-2.753,3.045-7.381,3.832
			c-5.453,0.929-6.363,1.033-15.646,1.115c-0.19,0-0.382,0-0.575,0c-12.211,0-25.563-3.309-27.972-5.082
			c-2.979-2.197-4.815-5.573-4.912-9.033c-0.11-3.953,1.985-7.828,6.063-11.204c10.141-8.394,24.041-10.61,29.976-10.61
			c4.969,0,19.605,1.061,21.621,5.774c2.271,5.315,8.332,7.226,11.288,7.853c-0.067-0.094-0.134-0.188-0.2-0.281
			c-2.994-0.672-8.703-2.586-10.873-7.664c-2.075-4.853-16.467-5.915-21.836-5.915c-5.962,0-19.932,2.228-30.124,10.664
			c-5.227,4.325-6.228,8.581-6.148,11.391c0.099,3.531,1.972,6.977,5.008,9.215c2.429,1.79,15.856,5.128,28.112,5.128
			c0.192,0,0.383,0,0.574-0.003c9.303-0.079,10.214-0.185,15.684-1.116c4.708-0.802,5.53-1.709,7.516-3.906
			c0.349-0.385,0.744-0.821,1.199-1.303c3.283-3.455,7.168-7.074,12.329-7.512c0.047-0.082,0.094-0.164,0.136-0.244
			C1140.26,811.775,1136.293,815.465,1132.944,818.988z"/>
	</g>
	<g>
		<path fill="#FFFFFF" d="M1149.396,804.049c-0.85-1.199-4.17-5.291-5.121-6.461c-0.094-1.049-0.966-1.876-2.043-1.876
			c-1.138,0-2.06,0.922-2.06,2.062c0,0.994,0.706,1.826,1.646,2.018c0.479,0.596,1.351,1.701,2.184,2.867
			c0.066,0.094,0.133,0.188,0.2,0.281c1.106,1.58,2.076,3.209,1.86,3.803c-0.121,0.336-0.18,0.902-0.144,1.514
			c-0.036,0.611,0.022,1.18,0.144,1.514c0.113,0.311-0.1,0.904-0.484,1.623c-0.042,0.08-0.089,0.162-0.136,0.244
			c-0.896,1.587-2.499,3.674-3.38,4.778c-0.117,0.028-0.231,0.062-0.34,0.105c-0.739,0.313-1.258,1.044-1.258,1.899
			c0,1.139,0.922,2.061,2.06,2.061c1.092,0,1.976-0.85,2.048-1.924c1.211-1.492,4.047-5,4.823-6.095
			c0.688-0.97,1.542-2.646,1.206-4.206C1150.938,806.696,1150.083,805.02,1149.396,804.049z"/>
	</g>
	<g>
		<path fill="#EDEDED" d="M1132.348,817.242l0.195-0.131c-0.049-0.068-4.56-7.043,1.56-17.219l-0.199-0.119
			C1127.702,810.08,1132.301,817.173,1132.348,817.242z"/>
	</g>
	<g>
		<path fill="#473D39" d="M1212.122,798.61c-7.417-9.837-30.717-16.062-40.198-18.243c-0.018-0.006-0.033-0.01-0.049-0.014
			c-0.415-0.021-0.82-0.037-1.204-0.036c-0.296,0-0.606,0.004-0.916,0.009c-0.05,0-0.099,0-0.149,0.002
			c7.285,1.566,34.145,7.954,42.145,18.563c5.645,7.488,6.025,14.77,1.129,21.643c-0.161,0.226-0.286,0.405-0.364,0.531
			c-2.18,3.58-16.385,11.639-34,10.979l-1.757,0.117l1.748,0.122c1.812,0.11,3.58,0.172,5.303,0.163
			c15.295-0.902,27.109-7.859,29.106-11.139c0.073-0.119,0.193-0.289,0.347-0.502
			C1218.287,813.746,1217.906,806.279,1212.122,798.61z"/>
	</g>
	<g opacity="0.1">
		<path fill="#F9ECCF" d="M1136.859,783.313l34.547-2.995c0,0,26.633,4.306,36.489,12.362
			C1208.053,792.807,1136.859,783.313,1136.859,783.313"/>
	</g>
	<g>
		<g>
			<g>
				<polygon fill="#353F5E" points="1207.961,962.587 1209.996,974.783 1118.356,994.527 1129.069,962.587 				"/>
			</g>
			<g>
				<polygon fill="#353F5E" points="1129.069,939.893 1203.499,940.344 1207.961,962.587 1129.069,962.587 				"/>
				<path fill="#A3A7AF" d="M1208.313,962.875h-79.531v-23.271l74.953,0.452l0.047,0.231L1208.313,962.875z M1129.358,962.299
					h78.251l-4.347-21.67l-73.904-0.445V962.299z"/>
			</g>
			<g>
				<path fill="#353F5E" d="M1209.96,974.783c0,0,17.423,40.069,19.861,85.366l-128.234,45.972l-5.478-20.238l22.247-91.355
					L1209.96,974.783z"/>
			</g>
			<g>
				<polygon fill="#2A3247" points="1126.215,1000.566 1199.28,993.598 1199.28,1055.619 1169.141,1067.118 1137.781,1061.893 				
					"/>
			</g>
			<g>
				<polygon fill="#2A3247" points="1135.343,1006.838 1193.88,1001.611 1193.88,1053.529 1167.538,1062.24 1141.962,1057.014 				
					"/>
				<path fill="#A3A7AF" d="M1167.562,1062.637l-25.944-5.301l-0.036-0.272l-6.672-50.571l59.355-5.3v52.614L1167.562,1062.637z
					 M1142.307,1056.692l25.208,5.151l25.981-8.592v-51.22l-57.722,5.153L1142.307,1056.692z"/>
			</g>
			<g>
				<path fill="#A3A7AF" d="M1166.518,1034.477c-0.193,0-0.362-0.123-0.503-0.363c-6.144-10.409-35.055-9.77-35.347-9.765
					l-0.01-0.384c1.198-0.029,29.429-0.648,35.686,9.953c0.075,0.129,0.14,0.174,0.174,0.174l0,0c0.052,0,0.126-0.074,0.172-0.141
					c0.054-0.49,0.597-4.268,4.627-8.131c3.879-3.719,11.88-8.191,27.961-8.373l0.004,0.385c-15.931,0.18-23.844,4.582-27.676,8.242
					c-4.14,3.955-4.535,7.919-4.538,7.959l-0.024,0.078c-0.022,0.037-0.215,0.361-0.522,0.365
					C1166.52,1034.477,1166.518,1034.477,1166.518,1034.477z"/>
			</g>
			<g>
				<path fill="#A3A7AF" d="M1167.188,1038.871c-0.193,0-0.363-0.12-0.504-0.359c-6.145-10.41-35.053-9.772-35.344-9.766
					l-0.01-0.385c1.198-0.031,29.427-0.649,35.683,9.953c0.077,0.129,0.14,0.174,0.175,0.174l0,0c0.051,0,0.124-0.072,0.171-0.137
					c0.036-0.51,0.431-4.27,4.29-8.113c3.727-3.713,11.546-8.175,27.629-8.355l0.004,0.384c-15.93,0.179-23.659,4.569-27.338,8.22
					c-3.975,3.944-4.204,7.896-4.205,7.936l-0.025,0.087c-0.021,0.036-0.216,0.36-0.521,0.362
					C1167.189,1038.871,1167.188,1038.871,1167.188,1038.871z"/>
			</g>
			<g>
				<polygon fill="#353F5E" points="1121.48,985.215 1208.59,966.354 1209.996,974.783 1118.356,994.527 				"/>
				<path fill="#A3A7AF" d="M1117.924,994.915l3.336-9.946l0.161-0.035l87.403-18.925l1.5,8.997l-0.269,0.059L1117.924,994.915z
					 M1121.702,985.461l-2.911,8.678l90.875-19.58l-1.311-7.859L1121.702,985.461z"/>
			</g>
			<g>
				<rect x="1190.569" y="940.984" fill="#2C364C" width="6.62" height="21.603"/>
			</g>
			<g opacity="0.1">
				<path fill="#ACD6E2" d="M1105.94,1045.666c0,0,7.26-29.587,9.97-41.088c2.707-11.5,13.159-41.318,13.159-41.318v-23.367
					l18.743,0.232L1105.94,1045.666z"/>
			</g>
			<g>
				<path fill="#2C364C" d="M1129.069,940.984l-0.083,6.205c0,0-3.583,5.679-0.135,16.131c0.354,1.07-1.199,4.027-1.199,4.027
					S1119.327,944.898,1129.069,940.984z"/>
			</g>
			<g opacity="0.4">
				<path fill="#2C364C" d="M1190.569,980.441l29.521,23.885c0,0-9.602-29.152-10.095-29.152
					C1209.5,975.174,1190.569,980.441,1190.569,980.441z"/>
			</g>
			<g opacity="0.4">
				<polygon fill="#2C364C" points="1190.569,980.441 1187.481,940.708 1203.193,940.662 1209.996,975.174 				"/>
			</g>
			<g opacity="0.5">
				<polygon fill="#2C364C" points="1126.215,1000.566 1199.28,993.598 1196.953,992.021 1134.709,998.486 				"/>
			</g>
			<g opacity="0.4">
				<polygon fill="#2C364C" points="1190.146,966.834 1189.854,963.066 1129.741,963.066 1132.441,963.893 				"/>
			</g>
			<g opacity="0.4">
				<polygon fill="#2C364C" points="1137.781,1061.893 1178.755,1077.207 1191.281,1072.703 1199.28,1055.619 1169.141,1067.118 
									"/>
			</g>
		</g>
	</g>
	<g>
		<g>
			<path fill="#CCA65A" d="M1058.334,999.243c0,0.665-0.537,1.203-1.202,1.203h-4.671c-0.664,0-1.203-0.538-1.203-1.203l0,0
				c0-0.664,0.539-1.203,1.203-1.203h4.671C1057.797,998.04,1058.334,998.579,1058.334,999.243L1058.334,999.243z"/>
		</g>
		<g>
			<path fill="#DDB760" d="M1087.143,984.971c0,4.246,0,5.096-5.096,5.096h-54.348c-4.387,0-5.094-0.85-5.094-5.096v-7.926
				c0-4.104,0.85-5.094,5.094-5.094h54.348c4.53,0,5.096,0.707,5.096,5.094V984.971z"/>
		</g>
		<g opacity="0.2">
			<polygon fill="#564522" points="1076.949,971.951 1077.309,971.951 1078.396,990.066 1076.349,990.08 			"/>
		</g>
		<g opacity="0.2">
			<polygon fill="#564522" points="1032.356,971.942 1032.715,971.942 1033.804,990.059 1032.125,990.071 			"/>
		</g>
		<g>
			<path fill="#DDB760" d="M1077.023,988.023c0,2.813-0.668,4.832-3.482,4.832l-9.501,2.504l-17.716,0.365l-10.9-2.607
				c-2.814,0-2.699-2.28-2.699-5.094v-15.003c0-2.815,0.937-5.097,3.751-5.097l8.918-1.631h18.962l8.416,1.703
				c2.813,0,4.252,2.209,4.252,5.024V988.023z"/>
		</g>
		<g opacity="0.3">
			<path fill="#F9ECCF" d="M1038.621,993.346l-3.624-0.945c-1.813,0-1.737-2.145-1.737-4.791v-14.104
				c0-2.646,0.603-4.791,2.415-4.791l3.101-0.441c0,0-3.081,4.643-3.081,12.481C1035.694,991.168,1038.621,993.346,1038.621,993.346
				z"/>
		</g>
		<g opacity="0.3">
			<path fill="#F9ECCF" d="M1027.361,989.279l-2.138,0.145c-1.887,0-1.81-1.514-1.81-3.384v-9.962c0-1.867,0.629-3.383,2.515-3.383
				l1.493-0.146c0,0-1.473,3.113-1.473,8.65C1025.949,988.555,1027.361,989.279,1027.361,989.279z"/>
		</g>
		<g>
			<circle fill="#9E6A4B" cx="1054.875" cy="981.008" r="17.269"/>
		</g>
		<g opacity="0.2">
			<path fill="#493736" d="M1062.28,965.697c4.103,0.791,11.286,9.145,9.481,18.51c-1.804,9.364-10.856,15.494-20.223,13.691
				L1062.28,965.697z"/>
		</g>
		<g opacity="0.2">
			<path fill="#564522" d="M1073.601,980.657c0,9.538-7.329,16.897-16.867,16.897c-9.537,0-17.671-7.359-17.671-16.897
				c0-9.536,7.731-16.702,17.27-16.702C1065.869,963.955,1073.601,971.121,1073.601,980.657z"/>
		</g>
		<g>
			<path fill="#DDB760" d="M1054.875,997.137c-8.894,0-16.129-7.234-16.129-16.128s7.235-16.129,16.129-16.129
				c8.893,0,16.129,7.235,16.129,16.129S1063.768,997.137,1054.875,997.137z M1054.875,965.455c-8.576,0-15.553,6.979-15.553,15.554
				s6.977,15.552,15.553,15.552c8.575,0,15.553-6.977,15.553-15.552S1063.45,965.455,1054.875,965.455z"/>
		</g>
		<g>
			<g>
				<circle fill="#DDB760" cx="1054.875" cy="981.008" r="1.841"/>
			</g>
			<g>
				<g>
					<polygon fill="#DDB760" points="1046.949,990.129 1045.293,990.705 1045.959,988.985 1047.515,988.092 1054.874,981.009 
						1057.052,973.906 1057.033,972.777 1057.988,971.889 1058.184,973.117 1057.478,974.09 1055.132,981.009 1047.885,988.465 
											"/>
				</g>
			</g>
		</g>
	</g>
	<g>
		<g>
			<g>
				<path fill="#778974" d="M1009.262,1025.857c0,0-6.809-26.186-17.254-46.863c-5.802-11.485-8.995-20.262-15.124-25.595
					c-14.513-12.626-23.735-9.067-23.735-9.067s-1.884-1.752,0.822-2.254c2.284-0.424,7.367-1.805,15.287,1.605
					c6.235,2.686,11.4,7.314,13.772,10.134c2.42,2.876,13.112,16.481,21.651,39.419c8.033,21.582,9.905,36.678,9.905,36.678
					L1009.262,1025.857z"/>
			</g>
			<g>
				<path fill="#8AA387" d="M889.488,1025.857c0,0,6.808-26.186,17.253-46.863c5.803-11.485,8.874-20.404,15.125-25.595
					c16.577-13.769,25.243-8.979,25.243-8.979s2.008-1.346-2.329-2.342c-2.266-0.521-7.369-1.805-15.289,1.605
					c-6.235,2.686-11.4,7.314-13.772,10.134c-2.42,2.876-13.112,16.481-21.651,39.419c-8.034,21.582-9.905,36.678-9.905,36.678
					L889.488,1025.857z"/>
			</g>
			<g>
				<path fill="#8AA387" d="M947.574,942.992c-0.522,1.307-20.996,52.743-23.75,55.07c-2.755,2.326,15.684,9.777,16.787,14.174
					c1.101,4.397,3.045-35.113,4.697-42.975c0,0,4.492-24.863,4.704-25.561C950.226,943.002,948.096,941.682,947.574,942.992z"/>
			</g>
			<g>
				<path fill="#778974" d="M953.299,943.337c0.237,1.112,14.317,67.164,17.07,69.974c2.756,2.809-10.667,8.401-11.771,13.711
					c-1.102,5.309-3.045-42.395-4.698-51.887c0,0-3.888-30.103-3.888-31.961C950.013,942.105,953.06,942.227,953.299,943.337z"/>
			</g>
			<g>
				<g>
					<path fill="#8AA387" d="M949.387,1046.662c-0.02-0.018-0.043-0.036-0.063-0.053c-2.174-1.897-7.477-5.891-18.39-11.088
						c-1.259-0.6-2.419-1.182-3.54-1.744c-2.388-1.197-4.645-2.328-7.43-3.417c-18.939-7.407-29.317-5.954-34.691-3.43
						c-5.394,2.534-6.78,6.563-6.793,6.603l-0.099-0.031c0.35,0.838,0.978,2.408,1.712,4.543c1.075-1.053,14.477-13.424,38.21-1.863
						c22.839,11.125,30.477,16.77,31.474,17.538c0.061-0.036,0.148-0.09,0.251-0.149v-6.32
						C949.855,1047.084,949.653,1046.896,949.387,1046.662z"/>
				</g>
				<g>
					<path fill="#8AA387" d="M878.083,1032.806c0,0,0.089,0.198,0.241,0.56c0.248-0.637,1.85-4.263,6.853-6.617
						c5.41-2.544,15.849-4.016,34.863,3.42c2.795,1.092,5.056,2.227,7.448,3.426c1.12,0.561,2.277,1.142,3.536,1.742
						c11.007,5.24,16.328,9.27,18.487,11.162c0.023,0.02,0.045,0.041,0.066,0.061c0.174,0.15,0.319,0.283,0.45,0.406v-0.652v-0.105
						v-0.602C944.082,1041.643,892.692,1008.377,878.083,1032.806z"/>
				</g>
				<g>
					<path fill="#384738" d="M918.121,1036.555c24.469,11.918,31.444,17.521,31.511,17.576l0.114,0.093l0.125-0.077
						c0.01-0.006,0.071-0.043,0.157-0.096v-0.48c-0.103,0.06-0.19,0.113-0.251,0.149c-0.997-0.769-8.635-6.413-31.474-17.538
						c-23.733-11.561-37.135,0.811-38.21,1.863c0.025,0.073,0.051,0.144,0.074,0.217l0.15,0.143
						C880.45,1038.267,893.75,1024.684,918.121,1036.555z"/>
				</g>
				<g>
					<path fill="#384738" d="M949.578,1046.559l-0.191,0.104c0.267,0.234,0.469,0.422,0.642,0.588v-0.285
						C949.897,1046.842,949.752,1046.709,949.578,1046.559z"/>
				</g>
				<g>
					<path fill="#384738" d="M885.273,1026.931c5.374-2.524,15.752-3.978,34.691,3.43c2.785,1.089,5.042,2.22,7.43,3.417
						c1.121,0.563,2.281,1.145,3.54,1.744c10.913,5.197,16.216,9.19,18.39,11.088c0.063-0.037,0.125-0.074,0.188-0.111
						c-2.159-1.893-7.48-5.922-18.487-11.162c-1.259-0.601-2.416-1.182-3.536-1.742c-2.393-1.199-4.653-2.334-7.448-3.426
						c-19.015-7.436-29.453-5.964-34.863-3.42c-5.003,2.354-6.604,5.98-6.853,6.617c0.02,0.045,0.037,0.086,0.058,0.137l0.099,0.031
						C878.493,1033.494,879.88,1029.465,885.273,1026.931z"/>
				</g>
				<g>
					<path fill="#384738" d="M949.512,1046.498c-0.063,0.037-0.124,0.074-0.188,0.111c0.02,0.017,0.043,0.035,0.063,0.053
						l0.191-0.104C949.557,1046.539,949.535,1046.518,949.512,1046.498z"/>
				</g>
				<g>
					<path fill="#8AA387" d="M950.668,1046.68c0.02-0.02,0.043-0.038,0.063-0.055c2.174-1.896,7.477-5.89,18.39-11.088
						c1.259-0.6,2.418-1.182,3.54-1.744c2.389-1.197,4.645-2.328,7.43-3.417c18.939-7.407,29.317-5.954,34.69-3.429
						c5.395,2.533,6.781,6.564,6.794,6.604l0.099-0.033c-0.35,0.838-0.979,2.409-1.712,4.545
						c-1.075-1.055-14.476-13.426-38.208-1.865c-22.841,11.127-30.479,16.77-31.477,17.539c-0.059-0.037-0.147-0.09-0.249-0.15
						v-6.319C950.2,1047.102,950.402,1046.914,950.668,1046.68z"/>
				</g>
				<g>
					<path fill="#8AA387" d="M1021.973,1032.821c0,0-0.09,0.199-0.239,0.56c-0.25-0.637-1.851-4.263-6.854-6.617
						c-5.41-2.543-15.849-4.016-34.863,3.42c-2.795,1.092-5.055,2.227-7.447,3.427c-1.119,0.562-2.279,1.141-3.537,1.741
						c-11.007,5.24-16.328,9.271-18.487,11.164c-0.023,0.02-0.045,0.039-0.067,0.059c-0.173,0.15-0.318,0.285-0.448,0.408v-0.653
						v-0.106v-0.602C955.974,1041.658,1007.363,1008.393,1021.973,1032.821z"/>
				</g>
				<g>
					<path fill="#8AA387" d="M1019.887,1038.279l-0.148,0.141c-0.133-0.138-13.433-13.721-37.804-1.85
						c-24.47,11.918-31.444,17.521-31.511,17.576l-0.114,0.093l-0.126-0.075c-0.009-0.007-0.07-0.045-0.155-0.097v-0.017
						c-0.086,0.053-0.147,0.09-0.157,0.096l-0.125,0.077l-0.114-0.093c-0.066-0.055-7.042-5.658-31.511-17.576
						c-24.371-11.871-37.671,1.712-37.803,1.85l-0.15-0.143c1.993,5.836,4.72,15.729,4.912,26.59c0.303,17.238,0,22.137,0,22.137
						s4.693,1.32,10.822,2.242c8.745,1.318,40.645,3.778,49.856,3.622c1.5-0.026,2.907-0.048,4.27-0.067v0.018
						c1.359,0.019,2.769,0.039,4.269,0.065c9.211,0.157,41.111-2.302,49.856-3.62c6.128-0.924,10.823-2.244,10.823-2.244
						s-0.305-4.898,0-22.137C1015.168,1054.006,1017.896,1044.113,1019.887,1038.279z"/>
				</g>
				<g>
					<path fill="#384738" d="M981.935,1036.57c-24.47,11.918-31.444,17.521-31.511,17.576l-0.114,0.093l-0.126-0.075
						c-0.009-0.007-0.07-0.045-0.155-0.097v-0.481c0.102,0.061,0.19,0.113,0.249,0.15c0.998-0.77,8.636-6.412,31.477-17.539
						c23.732-11.561,37.133,0.811,38.208,1.865c-0.024,0.072-0.051,0.142-0.075,0.217l-0.148,0.141
						C1019.605,1038.282,1006.306,1024.699,981.935,1036.57z"/>
				</g>
				<g>
					<path fill="#384738" d="M950.477,1046.574l0.191,0.105c-0.266,0.234-0.468,0.422-0.64,0.587v-0.284
						C950.158,1046.859,950.304,1046.725,950.477,1046.574z"/>
				</g>
				<g>
					<path fill="#384738" d="M1014.781,1026.947c-5.373-2.525-15.751-3.979-34.69,3.429c-2.785,1.089-5.041,2.22-7.43,3.417
						c-1.122,0.563-2.281,1.145-3.54,1.744c-10.913,5.198-16.216,9.191-18.39,11.088c-0.063-0.037-0.125-0.074-0.188-0.109
						c2.159-1.893,7.48-5.924,18.487-11.164c1.258-0.601,2.418-1.18,3.537-1.741c2.393-1.2,4.652-2.335,7.447-3.427
						c19.015-7.436,29.453-5.963,34.863-3.42c5.004,2.354,6.604,5.98,6.854,6.617c-0.021,0.045-0.038,0.086-0.06,0.137l-0.099,0.033
						C1021.563,1033.512,1020.176,1029.48,1014.781,1026.947z"/>
				</g>
				<g>
					<path fill="#384738" d="M950.544,1046.516c0.063,0.035,0.124,0.072,0.188,0.109c-0.021,0.017-0.044,0.035-0.063,0.055
						l-0.191-0.105C950.499,1046.555,950.521,1046.535,950.544,1046.516z"/>
				</g>
			</g>
			<g>
				<g>
					<path fill="#384738" d="M918.431,1079.142c-4.766,0-9.591-0.858-14.41-2.565c-11.422-4.049-18.935-11.582-19.009-11.658
						l0.136-0.135c0.075,0.076,7.563,7.58,18.943,11.615c10.495,3.717,26.55,5.16,43.421-9.1l0.125,0.147
						c-0.067,0.056-0.134,0.112-0.2,0.169c-7.421,6.221-15.3,9.964-23.422,11.129
						C922.166,1079.009,920.303,1079.142,918.431,1079.142z"/>
				</g>
			</g>
			<g>
				<path fill="#384738" d="M981.162,1079.142c-1.888,0-3.766-0.133-5.631-0.397c-8.264-1.176-16.277-4.977-23.82-11.298
					l0.123-0.147c17.014,14.258,33.204,12.818,43.79,9.1c11.478-4.035,19.029-11.539,19.104-11.615l0.137,0.135
					c-0.075,0.076-7.653,7.609-19.17,11.658C990.836,1078.283,985.969,1079.142,981.162,1079.142z"/>
			</g>
			<g opacity="0.5">
				<path fill="#778974" d="M947.437,1067.615c0,0-5.226,9.195-12.541,12.32c-15.84,6.769-35.759-3.646-35.759-3.646l-5.398-4.699
					c2.374,1.389,14.758,8.299,26.014,7.552c4.686-0.312,8.955-1.185,12.539-2.508c7.31-2.698,15.117-8.53,15.221-9.335
					C947.616,1066.496,947.437,1067.615,947.437,1067.615z"/>
			</g>
			<g opacity="0.5">
				<path fill="#778974" d="M951.896,1067.299c0,0,5.301,9.512,12.616,12.637c15.84,6.769,35.761-3.646,35.761-3.646l5.396-4.699
					c-2.373,1.389-14.757,8.299-26.013,7.552c-4.686-0.312-8.956-1.185-12.539-2.508
					C959.809,1073.936,952,1068.104,951.896,1067.299C951.793,1066.496,951.896,1067.299,951.896,1067.299z"/>
			</g>
			<g opacity="0.3">
				<path fill="#778974" d="M1021.973,1032.821c0,0-32.71,34.202-70.2,34.552c0,0,26.948,27.495,63.204-2.506
					C1014.977,1064.867,1014.797,1050.336,1021.973,1032.821z"/>
			</g>
			<g opacity="0.5">
				<path fill="#778974" d="M951.772,1067.373l20.087,24.818c0,0,32.351-1.287,43.117-5.188v-22.137
					C1014.977,1064.867,985.851,1094.868,951.772,1067.373z"/>
			</g>
			<g opacity="0.3">
				<path fill="#778974" d="M948.215,1067.373l-20.086,24.818c0,0-32.351-1.287-43.117-5.188v-22.137
					C885.012,1064.867,914.137,1094.868,948.215,1067.373z"/>
			</g>
			<g opacity="0.3">
				<path fill="#778974" d="M878.083,1032.467c0,0,31.938,34.482,69.429,34.832c0,0-28.359,27.805-62.432-2.785
					C885.08,1064.514,885.26,1049.98,878.083,1032.467z"/>
			</g>
			<g opacity="0.2">
				<path fill="#778974" d="M949.023,942.57l-18.18,61.837c0,0,2.625,1.657,5.427,3.458c2.18,1.402,4.064,3.105,4.46,4.654
					c0.001,0.01,0.168,0.156,0.269-0.262c0.407-1.707,1.058-8.5,1.786-17.115c0.576-6.798,1.092-14.7,1.99-22.234
					c0.146-1.22,0.387-2.455,0.549-3.646c0.345-2.535,0.889-4.959,1.322-7.299c0.618-3.336,1.142-6.454,1.655-9.086
					c1.102-5.638,1.727-9.26,1.727-9.26S950.04,943.009,949.023,942.57z"/>
			</g>
		</g>
	</g>
	<path fill="#4A4A4A" d="M1152.674,840.795"/>
</g>
</svg>
