<?xml version="1.0" encoding="utf-8"?>
<!-- Generator: Adobe Illustrator 16.0.3, SVG Export Plug-In . SVG Version: 6.00 Build 0)  -->
<!DOCTYPE svg PUBLIC "-//W3C//DTD SVG 1.1//EN" "http://www.w3.org/Graphics/SVG/1.1/DTD/svg11.dtd">
<svg version="1.1" xmlns="http://www.w3.org/2000/svg" xmlns:xlink="http://www.w3.org/1999/xlink" x="0px" y="0px" width="1252px"
	 height="800px" viewBox="0 0 1252 800" enable-background="new 0 0 1252 800" xml:space="preserve">
<pattern  width="50" height="50" patternUnits="userSpaceOnUse" id="Nueva_muestra_de_motivo_11" viewBox="0 -50 50 50" overflow="visible">
	<g>
		<polygon fill="none" points="0,0 50,0 50,-50 0,-50 		"/>
		<path fill="#515683" d="M24.453-26.084c0.055-0.025,0.111-0.047,0.168-0.066v-1.104c-0.348,0.061-0.668,0.195-0.945,0.395
			L24.453-26.084z"/>
		<path fill="#515683" d="M23.082-27.455c0.436-0.342,0.961-0.568,1.539-0.641v-3.885c-1.646,0.086-3.139,0.742-4.293,1.771
			L23.082-27.455z"/>
		<path fill="#515683" d="M23.676-23.141c0.277,0.197,0.598,0.332,0.945,0.391v-1.066c-0.07-0.02-0.129-0.047-0.191-0.078
			L23.676-23.141z"/>
		<path fill="#515683" d="M29.672-30.209c-1.154-1.029-2.646-1.686-4.295-1.771v3.885c0.578,0.072,1.104,0.299,1.541,0.641
			L29.672-30.209z"/>
		<path fill="#515683" d="M26.861-26.324l-0.773,0.771c0.027,0.057,0.055,0.115,0.074,0.172h1.088
			C27.191-25.727,27.059-26.049,26.861-26.324z"/>
		<path fill="#515683" d="M23.912-25.551l-0.77-0.773c-0.201,0.275-0.332,0.598-0.393,0.943h1.088
			C23.857-25.438,23.885-25.496,23.912-25.551z"/>
		<path fill="#515683" d="M22.545-26.918l-2.752-2.754c-1.039,1.152-1.701,2.646-1.793,4.291h3.902
			C21.977-25.957,22.201-26.484,22.545-26.918z"/>
		<path fill="#515683" d="M21.902-24.621h-3.906c0.086,1.652,0.74,3.152,1.777,4.309l2.771-2.77
			C22.201-23.52,21.977-24.043,21.902-24.621z"/>
		<path fill="#515683" d="M23.143-23.676l0.758-0.762c-0.033-0.059-0.053-0.119-0.072-0.184H22.75
			C22.811-24.271,22.941-23.953,23.143-23.676z"/>
		<path fill="#515683" d="M20.313-19.771c1.152,1.039,2.652,1.699,4.309,1.787v-3.922c-0.578-0.07-1.104-0.297-1.539-0.641
			L20.313-19.771z"/>
		<path fill="#515683" d="M27.455-26.918c0.344,0.434,0.568,0.961,0.643,1.537H32c-0.092-1.645-0.754-3.139-1.789-4.291
			L27.455-26.918z"/>
		<path fill="#515683" d="M47.992,0H2.008c0-1.109-0.898-2.008-2.008-2.008v-45.984c1.109,0,2.008-0.898,2.008-2.008h45.984
			c0,1.109,0.898,2.008,2.008,2.008v45.984C48.891-2.008,47.992-1.109,47.992,0z M37.5-25c0-0.486-0.607-0.875-1.359-0.875
			c-0.533,0-1.299,0.203-1.695,0.494h-0.541c-0.094-2.17-0.971-4.143-2.35-5.639l0.383-0.383c0.482-0.064,1.176-0.471,1.557-0.855
			c0.533-0.529,0.686-1.236,0.344-1.582c-0.344-0.342-1.051-0.184-1.58,0.346c-0.379,0.377-0.777,1.061-0.848,1.549l-0.393,0.389
			c-1.498-1.373-3.471-2.24-5.641-2.332v-0.545c0.297-0.391,0.5-1.164,0.5-1.709c0-0.752-0.393-1.357-0.877-1.357
			c-0.48,0-0.873,0.605-0.873,1.357c0,0.537,0.201,1.303,0.494,1.699v0.555c-2.172,0.092-4.137,0.959-5.641,2.332l-0.383-0.381
			c-0.066-0.484-0.473-1.178-0.859-1.557c-0.529-0.533-1.234-0.686-1.578-0.346c-0.34,0.346-0.189,1.053,0.344,1.582
			c0.379,0.379,1.064,0.773,1.549,0.848l0.391,0.391c-1.379,1.496-2.252,3.469-2.35,5.639h-0.525
			c-0.393-0.291-1.168-0.494-1.709-0.494c-0.75,0-1.359,0.389-1.359,0.875c0,0.48,0.609,0.877,1.359,0.877
			c0.539,0,1.301-0.205,1.697-0.498h0.533c0.088,2.174,0.957,4.15,2.338,5.656l-0.365,0.367c-0.484,0.066-1.176,0.473-1.559,0.855
			c-0.533,0.533-0.684,1.238-0.344,1.582c0.344,0.342,1.049,0.188,1.578-0.344c0.383-0.379,0.781-1.064,0.852-1.551l0.371-0.373
			c1.504,1.385,3.48,2.26,5.66,2.352v0.51c-0.293,0.389-0.494,1.162-0.494,1.705c0,0.752,0.393,1.361,0.873,1.361
			c0.484,0,0.877-0.609,0.877-1.361c0-0.535-0.205-1.303-0.5-1.693v-0.521c2.178-0.092,4.154-0.967,5.662-2.352l0.363,0.367
			c0.066,0.482,0.471,1.172,0.855,1.557c0.529,0.531,1.236,0.686,1.58,0.344c0.342-0.344,0.189-1.049-0.344-1.582
			c-0.377-0.381-1.063-0.777-1.549-0.848l-0.373-0.375c1.375-1.504,2.25-3.482,2.334-5.656h0.525
			c0.391,0.295,1.17,0.498,1.709,0.498C36.893-24.123,37.5-24.52,37.5-25z"/>
		<path fill="#515683" d="M26.861-23.674c0.197-0.277,0.33-0.598,0.389-0.947h-1.078c-0.02,0.064-0.039,0.125-0.072,0.184
			L26.861-23.674z"/>
		<path fill="#515683" d="M27.455-23.082l2.768,2.77c1.039-1.156,1.691-2.654,1.777-4.309h-3.902
			C28.023-24.043,27.797-23.52,27.455-23.082z"/>
		<path fill="#515683" d="M25.377-21.906v3.922c1.654-0.088,3.154-0.748,4.311-1.787l-2.77-2.775
			C26.48-22.203,25.955-21.977,25.377-21.906z"/>
		<path fill="#515683" d="M26.324-26.861c-0.279-0.197-0.598-0.332-0.947-0.393v1.104c0.063,0.02,0.115,0.041,0.168,0.066
			L26.324-26.861z"/>
		<path fill="#515683" d="M25.568-23.895c-0.061,0.031-0.123,0.059-0.191,0.078v1.066c0.35-0.059,0.668-0.193,0.947-0.387
			L25.568-23.895z"/>
		<path fill="#F5E7D3" d="M37.5-25c0,0.48-0.607,0.877-1.359,0.877c-0.539,0-1.318-0.203-1.709-0.498h-0.525
			c-0.084,2.174-0.959,4.152-2.334,5.656l0.373,0.375c0.486,0.07,1.172,0.467,1.549,0.848c0.533,0.533,0.686,1.238,0.344,1.582
			c-0.344,0.342-1.051,0.188-1.58-0.344c-0.385-0.385-0.789-1.074-0.855-1.557l-0.363-0.367c-1.508,1.385-3.484,2.26-5.662,2.352
			v0.521c0.295,0.391,0.5,1.158,0.5,1.693c0,0.752-0.393,1.361-0.877,1.361c-0.48,0-0.873-0.609-0.873-1.361
			c0-0.543,0.201-1.316,0.494-1.705v-0.51c-2.18-0.092-4.156-0.967-5.66-2.352l-0.371,0.373c-0.07,0.486-0.469,1.172-0.852,1.551
			c-0.529,0.531-1.234,0.686-1.578,0.344c-0.34-0.344-0.189-1.049,0.344-1.582c0.383-0.383,1.074-0.789,1.559-0.855l0.365-0.367
			c-1.381-1.506-2.25-3.482-2.338-5.656h-0.533c-0.396,0.293-1.158,0.498-1.697,0.498c-0.75,0-1.359-0.396-1.359-0.877
			c0-0.486,0.609-0.875,1.359-0.875c0.541,0,1.316,0.203,1.709,0.494h0.525c0.098-2.17,0.971-4.143,2.35-5.639l-0.391-0.391
			c-0.484-0.074-1.17-0.469-1.549-0.848c-0.533-0.529-0.684-1.236-0.344-1.582c0.344-0.34,1.049-0.188,1.578,0.346
			c0.387,0.379,0.793,1.072,0.859,1.557l0.383,0.381c1.504-1.373,3.469-2.24,5.641-2.332v-0.555
			c-0.293-0.396-0.494-1.162-0.494-1.699c0-0.752,0.393-1.357,0.873-1.357c0.484,0,0.877,0.605,0.877,1.357
			c0,0.545-0.203,1.318-0.5,1.709v0.545c2.17,0.092,4.143,0.959,5.641,2.332l0.393-0.389c0.07-0.488,0.469-1.172,0.848-1.549
			c0.529-0.529,1.236-0.688,1.58-0.346c0.342,0.346,0.189,1.053-0.344,1.582c-0.381,0.385-1.074,0.791-1.557,0.855l-0.383,0.383
			c1.379,1.496,2.256,3.469,2.35,5.639h0.541c0.396-0.291,1.162-0.494,1.695-0.494C36.893-25.875,37.5-25.486,37.5-25z M18-25.381
			h3.902c0.074-0.576,0.299-1.104,0.643-1.537l-2.752-2.754C18.754-28.52,18.092-27.025,18-25.381z M19.773-20.313l2.771-2.77
			c-0.344-0.438-0.568-0.961-0.643-1.539h-3.906C18.082-22.969,18.736-21.469,19.773-20.313z M24.621-21.906
			c-0.578-0.07-1.104-0.297-1.539-0.641l-2.77,2.775c1.152,1.039,2.652,1.699,4.309,1.787V-21.906z M22.75-24.621
			c0.061,0.35,0.191,0.668,0.393,0.945l0.758-0.762c-0.033-0.059-0.053-0.119-0.072-0.184H22.75z M23.838-25.381
			c0.02-0.057,0.047-0.115,0.074-0.17l-0.77-0.773c-0.201,0.275-0.332,0.598-0.393,0.943H23.838z M24.621-23.816
			c-0.07-0.02-0.129-0.047-0.191-0.078l-0.754,0.754c0.277,0.197,0.598,0.332,0.945,0.391V-23.816z M24.621-27.254
			c-0.348,0.061-0.668,0.195-0.945,0.395l0.777,0.775c0.055-0.025,0.111-0.047,0.168-0.066V-27.254z M24.621-31.98
			c-1.646,0.086-3.139,0.742-4.293,1.771l2.754,2.754c0.436-0.342,0.961-0.568,1.539-0.641V-31.98z M25.377-28.096
			c0.578,0.072,1.104,0.299,1.541,0.641l2.754-2.754c-1.154-1.029-2.646-1.686-4.295-1.771V-28.096z M27.25-25.381
			c-0.059-0.346-0.191-0.668-0.389-0.943l-0.773,0.771c0.027,0.057,0.055,0.115,0.074,0.172H27.25z M26.172-24.621
			c-0.02,0.064-0.039,0.125-0.072,0.184l0.762,0.764c0.197-0.277,0.33-0.598,0.389-0.947H26.172z M25.377-26.15
			c0.063,0.02,0.115,0.041,0.168,0.066l0.779-0.777c-0.279-0.197-0.598-0.332-0.947-0.393V-26.15z M25.377-22.75
			c0.35-0.059,0.668-0.193,0.947-0.387l-0.756-0.758c-0.061,0.031-0.123,0.059-0.191,0.078V-22.75z M29.688-19.771l-2.77-2.775
			c-0.438,0.344-0.963,0.57-1.541,0.641v3.922C27.031-18.072,28.531-18.732,29.688-19.771z M32-24.621h-3.902
			c-0.074,0.578-0.301,1.102-0.643,1.539l2.768,2.77C31.262-21.469,31.914-22.967,32-24.621z M32-25.381
			c-0.092-1.645-0.754-3.139-1.789-4.291l-2.756,2.754c0.344,0.434,0.568,0.961,0.643,1.537H32z"/>
		<path fill="#F5E7D3" d="M2.008-50H0v2.008C1.109-47.992,2.008-48.891,2.008-50z"/>
		<path fill="#F5E7D3" d="M50-47.992V-50h-2.008C47.992-48.891,48.891-47.992,50-47.992z"/>
		<path fill="#F5E7D3" d="M0-2.008V0h2.008C2.008-1.109,1.109-2.008,0-2.008z"/>
		<path fill="#F5E7D3" d="M50-2.008c-1.109,0-2.008,0.898-2.008,2.008H50V-2.008z"/>
	</g>
</pattern>
<pattern  width="50" height="50" patternUnits="userSpaceOnUse" id="Nueva_muestra_de_motivo_13" viewBox="0 -50 50 50" overflow="visible">
	<g>
		<polygon fill="none" points="0,0 50,0 50,-50 0,-50 		"/>
		<path fill="#CA4E48" d="M24.965-36.21c-0.528,0.002-0.931,0.461-0.933,0.989c0.002,0.529,0.404,0.987,0.933,0.987
			c0.585,0,0.99-0.458,0.99-0.987C25.955-35.749,25.55-36.208,24.965-36.21z"/>
		<path fill="#CA4E48" d="M50-47.217v44.434c-1.537,0-2.783,1.246-2.783,2.783H2.783c0-1.537-1.246-2.783-2.783-2.783v-44.434
			c1.537,0,2.783-1.246,2.783-2.783h44.434C47.217-48.463,48.463-47.217,50-47.217z M35.147-19.516
			c0.016-1.526-0.479-2.731-0.81-3.528c-0.059-0.182-0.461-0.544-0.528-0.425h-0.002c-0.003,0-0.003,0.005-0.005,0.007
			c-0.076,0.012-0.095,0.045-0.105,0.16c-0.383,2.015-1.048,3.109-2.415,4.218c-0.067,0.029-0.11,0.057-0.119,0.081
			c-0.022,0.088-0.012,0.136,0.018,0.245c0.112,0.162,0.299,0.338,0.44,0.378c0.174,0.057,0.326,0.185,0.416,0.317
			c-1.036,1.055-2.712,2.004-4.713,2.391c-0.38,0.109-0.866-0.133-1.046-0.387c-0.085-0.252-0.216-0.592-0.311-0.925
			c-0.002-0.033-0.004-0.067-0.004-0.157l-0.178-13.742c0,0,0.002,0,0.002,0.003l-0.002-0.191h1.352
			c0.164,0,0.314-0.097,0.447-0.164c0,0,0,0,0-0.003c0.022-0.074,0.04-0.094,0.059-0.119c0.146,0.2,0.409,0.354,0.656,0.354
			c0.452,0,0.794-0.342,0.794-0.735c0-0.452-0.342-0.794-0.794-0.794c-0.247,0-0.51,0.153-0.656,0.354
			c-0.019-0.022-0.036-0.045-0.057-0.063c-0.002,0-0.002-0.002-0.002-0.002c-0.133-0.124-0.283-0.164-0.447-0.164h-1.363
			l-0.002-0.176c0,0.002,0,0.002,0,0.002l-0.007-0.67c0.794-0.319,1.324-1.1,1.324-1.968c0-1.162-0.936-2.066-2.125-2.068
			c-1.105,0.002-2.068,0.906-2.068,2.068c0,0.875,0.596,1.66,1.345,1.975L24.234-32.4c-0.002-0.005-0.007-0.007-0.007-0.009h-1.376
			c-0.164,0-0.317,0.04-0.447,0.164c-0.022,0.021-0.043,0.04-0.061,0.065c-0.146-0.2-0.416-0.354-0.657-0.354
			c-0.45,0-0.792,0.342-0.792,0.794c0,0.394,0.342,0.735,0.792,0.735c0.241,0,0.511-0.153,0.657-0.354
			c0.018,0.025,0.038,0.045,0.061,0.122c0.13,0.067,0.283,0.164,0.447,0.164h1.369l-0.173,13.71
			c-0.002,0.385-0.162,0.992-0.34,1.303c-0.178,0.254-0.665,0.496-1.081,0.387c-1.964-0.387-3.641-1.336-4.676-2.391
			c0.146-0.133,0.243-0.261,0.416-0.317c0.142-0.04,0.326-0.216,0.438-0.378c0.032-0.109,0.041-0.157,0.019-0.245
			c-0.01-0.024-0.025-0.052-0.119-0.081c-1.367-1.108-2.031-2.203-2.415-4.218c-0.012-0.115-0.029-0.148-0.106-0.16
			c-0.002-0.002-0.002-0.007-0.004-0.007c0,0,0,0-0.002,0c-0.068-0.119-0.419,0.243-0.526,0.425
			c-0.333,0.797-0.828,2.002-0.799,3.528c0.057,1.111,0.119,2.454,1.07,3.668c0.079,0.164,0.25,0.187,0.419,0.14l0.002,0.002
			c0.059-0.002,0.072-0.009,0.078-0.014c0.01-0.002,0.019-0.065,0.027-0.069c0.014-0.009,0.029-0.021,0.043-0.031
			c0.009-0.007,0.018-0.014,0.027-0.022c0.02-0.014,0.083-0.027,0.096-0.043c0.01-0.012,0.017-0.074,0.025-0.083
			c0.021-0.027,0.038-0.057,0.112-0.09c0.105-0.3,0.25-0.633,0.411-0.963c1.041,1.486,3.038,2.847,5.463,3.38
			c0.42,0.117,0.965,0.376,1.317,0.623c0.133,0.043,0.268,0.083,0.347,0.175c0.418,0.176,1.01,0.176,1.428,0
			c0.128-0.092,0.214-0.132,0.344-0.175c0.355-0.247,0.897-0.506,1.338-0.623c2.397-0.53,4.388-1.882,5.431-3.362
			c0.16,0.326,0.302,0.65,0.459,0.945c0.018,0.033,0.038,0.063,0.059,0.09c0.007,0.009,0.016,0.071,0.022,0.083
			c0.014,0.016,0.027,0.029,0.099,0.043c0.009,0.009,0.019,0.016,0.027,0.024c0.014,0.009,0.026,0.021,0.04,0.029
			c0.014,0.004,0.077,0.067,0.086,0.072c0.007,0.002,0.014,0.009,0.02,0.011c0.003,0,0.003-0.002,0.005-0.002
			c0.169,0.047,0.34,0.024,0.418-0.14C35.018-17.062,35.08-18.404,35.147-19.516z"/>
		<path fill="#F5E7D3" d="M34.338-23.044c0.33,0.797,0.825,2.002,0.81,3.528c-0.067,1.111-0.13,2.454-1.082,3.668
			c-0.078,0.164-0.249,0.187-0.418,0.14c-0.002,0-0.002,0.002-0.005,0.002c-0.006-0.002-0.013-0.009-0.02-0.011
			c-0.009-0.005-0.072-0.068-0.086-0.072c-0.014-0.009-0.026-0.021-0.04-0.029c-0.009-0.009-0.019-0.016-0.027-0.024
			c-0.071-0.014-0.085-0.027-0.099-0.043c-0.007-0.012-0.016-0.074-0.022-0.083c-0.021-0.027-0.041-0.057-0.059-0.09
			c-0.157-0.295-0.299-0.619-0.459-0.945c-1.043,1.48-3.033,2.832-5.431,3.362c-0.44,0.117-0.982,0.376-1.338,0.623
			c-0.13,0.043-0.216,0.083-0.344,0.175c-0.418,0.176-1.01,0.176-1.428,0c-0.079-0.092-0.214-0.132-0.347-0.175
			c-0.353-0.247-0.897-0.506-1.317-0.623c-2.425-0.533-4.422-1.894-5.463-3.38c-0.161,0.33-0.306,0.663-0.411,0.963
			c-0.074,0.033-0.092,0.063-0.112,0.09c-0.009,0.009-0.016,0.071-0.025,0.083c-0.013,0.016-0.076,0.029-0.096,0.043
			c-0.01,0.009-0.019,0.016-0.027,0.022c-0.014,0.011-0.029,0.022-0.043,0.031c-0.009,0.004-0.018,0.067-0.027,0.069
			c-0.006,0.005-0.02,0.012-0.078,0.014l-0.002-0.002c-0.169,0.047-0.34,0.024-0.419-0.14c-0.951-1.214-1.014-2.557-1.07-3.668
			c-0.029-1.526,0.466-2.731,0.799-3.528c0.107-0.182,0.458-0.544,0.526-0.425c0.002,0,0.002,0,0.002,0
			c0.002,0,0.002,0.005,0.004,0.007c0.077,0.012,0.095,0.045,0.106,0.16c0.384,2.015,1.048,3.109,2.415,4.218
			c0.094,0.029,0.109,0.057,0.119,0.081c0.022,0.088,0.014,0.136-0.019,0.245c-0.112,0.162-0.297,0.338-0.438,0.378
			c-0.173,0.057-0.27,0.185-0.416,0.317c1.035,1.055,2.712,2.004,4.676,2.391c0.416,0.109,0.903-0.133,1.081-0.387
			c0.178-0.311,0.338-0.918,0.34-1.303l0.173-13.71h-1.369c-0.164,0-0.317-0.097-0.447-0.164c-0.022-0.077-0.043-0.097-0.061-0.122
			c-0.146,0.2-0.416,0.354-0.657,0.354c-0.45,0-0.792-0.342-0.792-0.735c0-0.452,0.342-0.794,0.792-0.794
			c0.241,0,0.511,0.153,0.657,0.354c0.018-0.025,0.038-0.045,0.061-0.065c0.13-0.124,0.283-0.164,0.447-0.164h1.376
			c0,0.002,0.005,0.004,0.007,0.009l0.007-0.846c-0.749-0.314-1.345-1.1-1.345-1.975c0-1.162,0.963-2.066,2.068-2.068
			c1.189,0.002,2.125,0.906,2.125,2.068c0,0.868-0.53,1.648-1.324,1.968l0.007,0.67c0,0,0,0,0-0.002l0.002,0.176h1.363
			c0.164,0,0.314,0.04,0.447,0.164c0,0,0,0.002,0.002,0.002c0.021,0.019,0.038,0.041,0.057,0.063c0.146-0.2,0.409-0.354,0.656-0.354
			c0.452,0,0.794,0.342,0.794,0.794c0,0.394-0.342,0.735-0.794,0.735c-0.247,0-0.51-0.153-0.656-0.354
			c-0.019,0.025-0.036,0.045-0.059,0.119c0,0.003,0,0.003,0,0.003c-0.133,0.067-0.283,0.164-0.447,0.164h-1.352l0.002,0.191
			c0-0.003-0.002-0.003-0.002-0.003l0.178,13.742c0,0.09,0.002,0.124,0.004,0.157c0.095,0.333,0.226,0.673,0.311,0.925
			c0.18,0.254,0.666,0.496,1.046,0.387c2.001-0.387,3.677-1.336,4.713-2.391c-0.09-0.133-0.242-0.261-0.416-0.317
			c-0.142-0.04-0.328-0.216-0.44-0.378c-0.029-0.109-0.04-0.157-0.018-0.245c0.009-0.024,0.052-0.052,0.119-0.081
			c1.367-1.108,2.032-2.203,2.415-4.218c0.011-0.115,0.029-0.148,0.105-0.16c0.002-0.002,0.002-0.007,0.005-0.007h0.002
			C33.877-23.588,34.279-23.226,34.338-23.044z M25.955-35.221c0-0.528-0.405-0.987-0.99-0.989
			c-0.528,0.002-0.931,0.461-0.933,0.989c0.002,0.529,0.404,0.987,0.933,0.987C25.55-34.233,25.955-34.691,25.955-35.221z"/>
		<path fill="#F5E7D3" d="M2.783-50H0v2.783C1.537-47.217,2.783-48.463,2.783-50z"/>
		<path fill="#F5E7D3" d="M47.217-50c0,1.537,1.246,2.783,2.783,2.783V-50H47.217z"/>
		<path fill="#F5E7D3" d="M0-2.783V0h2.783C2.783-1.537,1.537-2.783,0-2.783z"/>
		<path fill="#F5E7D3" d="M47.217,0H50v-2.783C48.463-2.783,47.217-1.537,47.217,0z"/>
	</g>
</pattern>
<pattern  width="160" height="160" patternUnits="userSpaceOnUse" id="Nueva_muestra_de_motivo_6" viewBox="0 -165.68 160 160" overflow="visible">
	<g>
		<polygon fill="none" points="0,-5.68 160,-5.68 160,-165.68 0,-165.68 		"/>
		<path fill="#F5E7D3" d="M133.354-107.392c-8.85-9.048-17.816,8.833-26.67-0.013c0,0.004,0,0.008,0,0.013
			c-8.89-9.09-17.779,9.089-26.669,0c-8.843-8.995-17.899,8.557-26.702-0.023c0,0.008,0,0.016,0,0.023
			c-8.89-9.09-17.779,9.089-26.67,0C17.734-116.457,8.865-98.405,0-107.326v6.878c8.865,8.932,17.734-9.118,26.643-0.054
			c8.798,8.995,17.642-8.786,26.438-0.212c0-0.008,0-0.015,0-0.022c8.89,9.09,18.044-8.855,26.934,0.234
			c8.849,9.048,17.71-8.959,26.593-0.096l0,0c8.89,9.064,17.861-8.994,26.746,0.096c8.912,9.066,17.779-9.009,26.646-0.063v-6.89
			C151.133-116.387,142.266-98.326,133.354-107.392z"/>
		<path fill="#F5E7D3" d="M42.27-5.68h9.692C48.742-8.051,45.524-7.164,42.27-5.68z"/>
		<path fill="#F5E7D3" d="M133.354-118.827c-8.85-9.048-17.816,8.854-26.67-0.013c0,0.004,0,0.008,0,0.013
			c-8.89-9.09-17.779,9.09-26.669,0c-8.843-8.995-17.899,8.557-26.702-0.023c0,0.008,0,0.016,0,0.023
			c-8.89-9.09-17.779,9.09-26.67,0c-8.908-9.065-17.777,9.004-26.643,0.066v6.891c8.865,8.924,17.734-9.132,26.643-0.066
			c8.798,8.995,17.642-8.787,26.438-0.212c0-0.007,0-0.01,0-0.012c8.89,9.078,18.044-8.866,26.934,0.224
			c8.849,9.048,17.71-8.96,26.593-0.074c0-0.001,0-0.003,0-0.006c8.89,9.068,17.861-9.01,26.746,0.08
			c8.912,9.066,17.779-8.991,26.646-0.063v-6.886C151.133-127.818,142.266-109.761,133.354-118.827z"/>
		<path fill="#F5E7D3" d="M15.59-5.68h9.702C22.073-8.051,18.832-7.164,15.59-5.68z"/>
		<path fill="#F5E7D3" d="M68.692-5.68h9.978C75.395-8.098,72.049-7.179,68.692-5.68z"/>
		<path fill="#F5E7D3" d="M133.354-95.957c-8.85-9.048-17.816,8.834-26.67-0.013c0,0.005,0,0.009,0,0.013
			c-8.89-9.09-17.779,9.09-26.669,0c-8.843-9.016-17.899,8.557-26.702-0.022c0,0.007,0,0.015,0,0.022
			c-8.89-9.09-17.779,9.09-26.67,0C17.734-105.022,8.865-86.972,0-95.91v6.875c8.865,8.954,17.734-9.097,26.643-0.031
			c8.798,8.995,17.642-8.786,26.438-0.212c0-0.008,0-0.016,0-0.023c8.89,9.09,18.044-8.854,26.934,0.235
			c8.849,9.048,17.71-8.959,26.593-0.114c0-0.004,0-0.007,0-0.013c8.89,9.09,17.861-8.963,26.746,0.127
			C142.266-80,151.133-98.098,160-89.13v-6.891C151.133-104.973,142.266-86.891,133.354-95.957z"/>
		<path fill="#F5E7D3" d="M133.354-153.1c-8.85-9.063-17.816,8.847-26.67,0l0,0c-8.89-9.076-17.779,9.064-26.669,0
			c-8.843-9.028-17.899,8.57-26.702-0.01c0,0.008,0,0.01,0,0.01c-8.89-9.076-17.779,9.064-26.67,0
			c-8.908-9.063-17.777,8.999-26.643,0.033v6.891c8.865,8.966,17.734-9.111,26.643-0.049c8.798,9.023,17.642-8.758,26.438-0.183
			c0-0.008,0-0.016,0-0.023c8.89,9.09,18.044-8.856,26.934,0.206c8.849,9.063,17.71-8.931,26.593-0.085c0-0.005,0-0.009,0-0.013
			c8.89,9.089,17.861-8.965,26.746,0.098c8.912,9.063,17.779-9.009,26.646-0.035v-6.89
			C151.133-162.124,142.266-144.037,133.354-153.1z"/>
		<path fill="#F5E7D3" d="M149.014-165.68c-5.189,2.419-10.425,6.481-15.66,1.158c-0.436-0.453-0.87-0.831-1.306-1.158h-9.811
			c-5.193,2.396-10.395,6.304-15.554,1.146c0,0.004,0,0.009,0,0.013c-0.436-0.453-0.87-0.831-1.305-1.158h-9.703
			c-5.236,2.419-10.455,6.481-15.661,1.158c-0.434-0.453-0.872-0.83-1.345-1.158h-9.978c-5.149,2.331-10.314,6.065-15.38,1.135
			c0,0.008,0,0.016,0,0.023c-0.435-0.453-0.893-0.831-1.351-1.158H42.27c-5.2,2.419-10.437,6.481-15.627,1.158
			c-0.473-0.453-0.916-0.831-1.351-1.158H15.59c-5.195,2.419-10.378,6.448-15.59,1.178v6.891c8.865,8.966,17.734-9.087,26.643-0.024
			c8.798,8.999,17.642-8.782,26.438-0.207c0-0.008,0-0.016,0-0.023c8.89,9.09,18.044-8.854,26.934,0.23
			c8.849,9.053,17.71-8.955,26.593-0.109c0-0.004,0-0.009,0-0.013c8.89,9.09,17.861-8.963,26.746,0.122
			c8.912,9.063,17.779-9.033,26.646-0.059v-6.891c-0.412-0.417-0.85-0.784-1.283-1.095H149.014z"/>
		<path fill="#F5E7D3" d="M133.354-130.263c-8.85-9.048-17.816,8.877-26.67-0.013c0,0.004,0,0.009,0,0.013
			c-8.89-9.083-17.779,9.09-26.669,0c-8.843-8.995-17.899,8.564-26.702-0.021c0,0.005,0,0.013,0,0.021
			c-8.89-9.083-17.779,9.09-26.67,0C17.734-139.328,8.865-121.23,0-130.196v6.891c8.865,8.958,17.734-9.132,26.643-0.066
			c8.798,9.024,17.642-8.784,26.438-0.201l0,0c8.89,9.063,18.044-8.889,26.934,0.201c8.849,9.048,17.71-8.951,26.593-0.067
			c0-0.004,0-0.009,0-0.013c8.89,9.09,17.861-9.01,26.746,0.08c8.912,9.066,17.779-8.991,26.646-0.038v-6.877
			C151.133-139.253,142.266-121.196,133.354-130.263z"/>
		<path fill="#F5E7D3" d="M133.354-141.695c-8.85-9.051-17.816,8.878-26.67-0.003c0,0,0,0.002,0,0.003
			c-8.89-9.065-17.779,9.087-26.669,0c-8.843-8.997-17.899,8.596-26.702-0.003c0,0,0,0,0,0.003c-8.89-9.065-17.779,9.087-26.67,0
			c-8.908-9.063-17.777,9.029-26.643,0.064v6.891c8.865,8.965,17.734-9.133,26.643-0.067c8.798,9.042,17.642-8.766,26.438-0.167
			c0-0.006,0-0.014,0-0.021c8.89,9.083,18.044-8.891,26.934,0.188c8.849,9.05,17.71-8.917,26.593-0.067c0-0.004,0-0.008,0-0.013
			c8.89,9.09,17.861-8.998,26.746,0.08c8.912,9.066,17.779-8.99,26.646-0.017v-6.891
			C151.133-150.688,142.266-132.631,133.354-141.695z"/>
		<path fill="#F5E7D3" d="M133.354-50.263c-8.85-9.048-17.816,8.876-26.67-0.013c0,0.004,0,0.009,0,0.013
			c-8.89-9.083-17.779,9.09-26.669,0c-8.843-8.995-17.899,8.564-26.702-0.021c0,0.005,0,0.013,0,0.021
			c-8.89-9.083-17.779,9.09-26.67,0C17.734-59.328,8.865-41.23,0-50.196v6.891c8.865,8.956,17.734-9.132,26.643-0.066
			c8.798,9.022,17.642-8.784,26.438-0.201l0,0c8.89,9.063,18.044-8.889,26.934,0.201c8.849,9.048,17.71-8.951,26.593-0.067
			c0-0.004,0-0.009,0-0.013c8.89,9.09,17.861-9.01,26.746,0.08c8.912,9.066,17.779-8.991,26.646-0.038v-6.875
			C151.133-59.253,142.266-41.196,133.354-50.263z"/>
		<path fill="#F5E7D3" d="M95.676-5.68h9.703C102.113-8.051,98.895-7.164,95.676-5.68z"/>
		<path fill="#F5E7D3" d="M133.354-61.695c-8.85-9.051-17.816,8.878-26.67-0.003c0,0,0,0.002,0,0.003
			c-8.89-9.065-17.779,9.087-26.669,0c-8.843-8.997-17.899,8.596-26.702-0.003c0,0,0,0,0,0.003c-8.89-9.065-17.779,9.087-26.67,0
			C17.734-70.759,8.865-52.666,0-61.631v6.891c8.865,8.965,17.734-9.133,26.643-0.067c8.798,9.042,17.642-8.766,26.438-0.167
			c0-0.006,0-0.014,0-0.021c8.89,9.083,18.044-8.891,26.934,0.188c8.849,9.05,17.71-8.917,26.593-0.067c0-0.004,0-0.008,0-0.013
			c8.89,9.09,17.861-8.998,26.746,0.08c8.912,9.066,17.779-8.99,26.646-0.017v-6.891C151.133-70.688,142.266-52.631,133.354-61.695z
			"/>
		<path fill="#F5E7D3" d="M133.354-73.098c-8.85-9.063-17.816,8.845-26.67-0.002v0.002c-8.89-9.078-17.779,9.063-26.669,0
			c-8.843-9.03-17.899,8.568-26.702-0.012c0,0.008,0,0.01,0,0.012c-8.89-9.078-17.779,9.063-26.67,0
			C17.734-82.16,8.865-64.101,0-73.066v6.891c8.865,8.966,17.734-9.109,26.643-0.047c8.798,9.021,17.642-8.76,26.438-0.186
			c0-0.007,0-0.015,0-0.022c8.89,9.09,18.044-8.856,26.934,0.208c8.849,9.063,17.71-8.933,26.593-0.087c0-0.005,0-0.009,0-0.013
			c8.89,9.089,17.861-8.965,26.746,0.1c8.912,9.063,17.779-9.011,26.646-0.037v-6.89C151.133-82.124,142.266-64.035,133.354-73.098z
			"/>
		<path fill="#F5E7D3" d="M133.354-38.827c-8.85-9.048-17.816,8.853-26.67-0.013c0,0.004,0,0.008,0,0.013
			c-8.89-9.09-17.779,9.09-26.669,0c-8.843-8.995-17.899,8.557-26.702-0.023c0,0.008,0,0.016,0,0.023
			c-8.89-9.09-17.779,9.09-26.67,0C17.734-47.893,8.865-29.823,0-38.761v6.891c8.865,8.924,17.734-9.132,26.643-0.066
			c8.798,8.995,17.642-8.787,26.438-0.212c0-0.006,0-0.01,0-0.012c8.89,9.078,18.044-8.866,26.934,0.224
			c8.849,9.048,17.71-8.96,26.593-0.074c0-0.001,0-0.003,0-0.006c8.89,9.068,17.861-9.01,26.746,0.08
			C142.266-22.87,151.133-40.928,160-32v-6.886C151.133-47.818,142.266-29.761,133.354-38.827z"/>
		<path fill="#F5E7D3" d="M133.354-84.521c-8.85-9.053-17.816,8.834-26.67-0.013c0,0.004,0,0.009,0,0.013
			c-8.89-9.09-17.779,9.073-26.669,0c-8.843-9.041-17.899,8.557-26.702-0.023c0,0.008,0,0.016,0,0.023
			c-8.89-9.09-17.779,9.073-26.67,0C17.734-93.587,8.865-75.536,0-84.502v6.891c8.865,8.966,17.734-9.088,26.643-0.025
			c8.798,9,17.642-8.781,26.438-0.206c0-0.008,0-0.016,0-0.023c8.89,9.09,18.044-8.854,26.934,0.229
			c8.849,9.054,17.71-8.954,26.593-0.108c0-0.004,0-0.009,0-0.013c8.89,9.09,17.861-8.963,26.746,0.121
			c8.912,9.063,17.779-9.032,26.646-0.058v-6.891C151.133-93.56,142.266-75.455,133.354-84.521z"/>
		<path fill="#F5E7D3" d="M133.354-27.392c-8.85-9.048-17.816,8.833-26.67-0.013c0,0.004,0,0.008,0,0.013
			c-8.89-9.09-17.779,9.089-26.669,0c-8.843-8.995-17.899,8.557-26.702-0.023c0,0.008,0,0.016,0,0.023
			c-8.89-9.09-17.779,9.089-26.67,0C17.734-36.457,8.865-18.404,0-27.326v6.878c8.865,8.932,17.734-9.118,26.643-0.054
			c8.798,8.995,17.642-8.786,26.438-0.212c0-0.008,0-0.015,0-0.022c8.89,9.09,18.044-8.855,26.934,0.234
			c8.849,9.048,17.71-8.959,26.593-0.096c0-0.002,0-0.002,0-0.002c8.89,9.066,17.861-8.992,26.746,0.098
			c8.912,9.066,17.779-9.009,26.646-0.063v-6.89C151.133-36.387,142.266-18.326,133.354-27.392z"/>
		<path fill="#F5E7D3" d="M149.014-5.68h9.703C155.498-8.051,152.273-7.164,149.014-5.68z"/>
		<path fill="#F5E7D3" d="M122.237-5.68h9.811C128.789-8.084,125.515-7.17,122.237-5.68z"/>
		<path fill="#F5E7D3" d="M133.354-15.957c-8.85-9.048-17.816,8.834-26.67-0.013c0,0.005,0,0.009,0,0.013
			c-8.89-9.09-17.779,9.09-26.669,0c-8.843-9.018-17.899,8.557-26.702-0.022c0,0.007,0,0.015,0,0.022
			c-8.89-9.09-17.779,9.09-26.67,0C17.734-25.022,8.865-6.972,0-15.912v6.877c8.865,8.954,17.734-9.097,26.643-0.031
			c8.798,8.995,17.642-8.786,26.438-0.212c0-0.008,0-0.016,0-0.023c8.89,9.09,18.044-8.854,26.934,0.235
			c8.849,9.048,17.71-8.959,26.593-0.114c0-0.004,0-0.007,0-0.013c8.89,9.09,17.861-8.963,26.746,0.127
			C142.266,0,151.133-18.098,160-9.13v-6.891C151.133-24.975,142.266-6.891,133.354-15.957z"/>
		<path fill="#CA4E48" d="M133.354-157.636c-8.885-9.085-17.856,8.968-26.746-0.122c0,0.004,0,0.009,0,0.013
			c-8.883-8.846-17.744,9.162-26.593,0.109c-8.89-9.085-18.044,8.859-26.934-0.23c0,0.008,0,0.016,0,0.023
			c-8.797-8.575-17.641,9.206-26.438,0.207c-8.908-9.063-17.777,8.99-26.643,0.024v4.545c8.865,8.966,17.734-9.096,26.643-0.033
			c8.891,9.064,17.78-9.076,26.67,0c0,0,0-0.002,0-0.01c8.803,8.58,17.859-9.019,26.702,0.01c8.89,9.064,17.779-9.076,26.669,0l0,0
			c8.854,8.847,17.82-9.063,26.67,0c8.912,9.063,17.779-9.024,26.646-0.05v-4.545C151.133-166.669,142.266-148.573,133.354-157.636z
			"/>
		<path fill="#CA4E48" d="M133.354-146.225c-8.885-9.063-17.856,8.991-26.746-0.098c0,0.004,0,0.008,0,0.013
			c-8.883-8.846-17.744,9.147-26.593,0.085c-8.89-9.063-18.044,8.884-26.934-0.206c0,0.008,0,0.016,0,0.023
			c-8.797-8.575-17.641,9.206-26.438,0.183C17.734-155.287,8.865-137.21,0-146.176v4.545c8.865,8.965,17.734-9.128,26.643-0.064
			c8.891,9.087,17.78-9.065,26.67,0c0-0.003,0-0.003,0-0.003c8.803,8.599,17.859-8.994,26.702,0.003
			c8.89,9.087,17.779-9.065,26.669,0c0-0.001,0-0.003,0-0.003c8.854,8.881,17.82-9.048,26.67,0.003
			c8.912,9.064,17.779-8.993,26.646-0.02v-4.545C151.133-155.233,142.266-137.162,133.354-146.225z"/>
		<path fill="#CA4E48" d="M133.354-134.808c-8.885-9.078-17.856,9.01-26.746-0.08c0,0.005,0,0.009,0,0.013
			c-8.883-8.85-17.744,9.117-26.593,0.067c-8.89-9.078-18.044,8.896-26.934-0.188c0,0.007,0,0.015,0,0.021
			c-8.797-8.599-17.641,9.209-26.438,0.167C17.734-143.873,8.865-125.775,0-134.74v4.544c8.865,8.966,17.734-9.132,26.643-0.066
			c8.891,9.09,17.78-9.083,26.67,0c0-0.008,0-0.016,0-0.021c8.803,8.585,17.859-8.975,26.702,0.021c8.89,9.09,17.779-9.083,26.669,0
			c0-0.004,0-0.009,0-0.013c8.854,8.89,17.82-9.035,26.67,0.013c8.912,9.066,17.779-8.99,26.646-0.024v-4.537
			C151.133-143.798,142.266-125.741,133.354-134.808z"/>
		<path fill="#CA4E48" d="M133.354-123.372c-8.885-9.09-17.856,9.01-26.746-0.08c0,0.004,0,0.009,0,0.013
			c-8.883-8.884-17.744,9.115-26.593,0.067c-8.89-9.09-18.044,8.861-26.934-0.201l0,0c-8.797-8.583-17.641,9.226-26.438,0.201
			c-8.908-9.065-17.777,9.024-26.643,0.066v4.545c8.865,8.938,17.734-9.132,26.643-0.066c8.891,9.09,17.78-9.09,26.67,0
			c0-0.008,0-0.016,0-0.023c8.803,8.58,17.859-8.972,26.702,0.023c8.89,9.09,17.779-9.09,26.669,0c0-0.005,0-0.009,0-0.013
			c8.854,8.867,17.82-9.035,26.67,0.013c8.912,9.066,17.779-8.991,26.646-0.059v-4.524
			C151.133-132.363,142.266-114.306,133.354-123.372z"/>
		<path fill="#CA4E48" d="M133.354-111.937c-8.885-9.09-17.856,8.988-26.746-0.08c0,0.003,0,0.005,0,0.006
			c-8.883-8.886-17.744,9.122-26.593,0.074c-8.89-9.09-18.044,8.854-26.934-0.224c0,0.002,0,0.005,0,0.012
			c-8.797-8.575-17.641,9.207-26.438,0.212c-8.908-9.065-17.777,8.99-26.643,0.066v4.544c8.865,8.921,17.734-9.131,26.643-0.065
			c8.891,9.089,17.78-9.09,26.67,0c0-0.008,0-0.016,0-0.023c8.803,8.58,17.859-8.972,26.702,0.023c8.89,9.089,17.779-9.09,26.669,0
			c0-0.005,0-0.009,0-0.013c8.854,8.846,17.82-9.035,26.67,0.013c8.912,9.065,17.779-8.995,26.646-0.063V-112
			C151.133-120.928,142.266-102.87,133.354-111.937z"/>
		<path fill="#CA4E48" d="M133.354-100.502c-8.885-9.09-17.856,8.969-26.746-0.096l0,0c-8.883-8.863-17.744,9.144-26.593,0.096
			c-8.89-9.09-18.044,8.855-26.934-0.234c0,0.008,0,0.015,0,0.022c-8.797-8.574-17.641,9.207-26.438,0.212
			C17.734-109.566,8.865-91.517,0-100.448v4.538c8.865,8.938,17.734-9.112,26.643-0.047c8.891,9.09,17.78-9.09,26.67,0
			c0-0.008,0-0.016,0-0.022c8.803,8.579,17.859-8.993,26.702,0.022c8.89,9.09,17.779-9.09,26.669,0c0-0.004,0-0.008,0-0.013
			c8.854,8.847,17.82-9.035,26.67,0.013c8.912,9.066,17.779-9.016,26.646-0.063v-4.545
			C151.133-109.511,142.266-91.436,133.354-100.502z"/>
		<path fill="#CA4E48" d="M133.354-89.066c-8.885-9.09-17.856,8.963-26.746-0.127c0,0.006,0,0.009,0,0.013
			c-8.883-8.845-17.744,9.162-26.593,0.114c-8.89-9.09-18.044,8.854-26.934-0.235c0,0.008,0,0.016,0,0.023
			c-8.797-8.574-17.641,9.207-26.438,0.212C17.734-98.132,8.865-80.081,0-89.035v4.533c8.865,8.966,17.734-9.085,26.643-0.02
			c8.891,9.073,17.78-9.09,26.67,0c0-0.008,0-0.016,0-0.023c8.803,8.58,17.859-9.018,26.702,0.023c8.89,9.073,17.779-9.09,26.669,0
			c0-0.004,0-0.009,0-0.013c8.854,8.847,17.82-9.04,26.67,0.013c8.912,9.066,17.779-9.038,26.646-0.063v-4.545
			C151.133-98.098,142.266-80,133.354-89.066z"/>
		<path fill="#CA4E48" d="M133.354-77.637c-8.885-9.084-17.856,8.969-26.746-0.121c0,0.004,0,0.009,0,0.013
			c-8.883-8.846-17.744,9.162-26.593,0.108c-8.89-9.084-18.044,8.86-26.934-0.229c0,0.008,0,0.016,0,0.023
			c-8.797-8.575-17.641,9.206-26.438,0.206C17.734-86.699,8.865-68.646,0-77.611v4.545c8.865,8.966,17.734-9.094,26.643-0.031
			c8.891,9.063,17.78-9.078,26.67,0c0-0.002,0-0.004,0-0.012c8.803,8.58,17.859-9.019,26.702,0.012
			c8.89,9.063,17.779-9.078,26.669,0V-73.1c8.854,8.847,17.82-9.061,26.67,0.002c8.912,9.063,17.779-9.026,26.646-0.052v-4.545
			C151.133-86.669,142.266-68.573,133.354-77.637z"/>
		<path fill="#CA4E48" d="M133.354-66.223c-8.885-9.064-17.856,8.989-26.746-0.1c0,0.004,0,0.008,0,0.013
			c-8.883-8.846-17.744,9.149-26.593,0.087c-8.89-9.064-18.044,8.882-26.934-0.208c0,0.008,0,0.016,0,0.022
			c-8.797-8.574-17.641,9.207-26.438,0.186C17.734-75.285,8.865-57.21,0-66.176v4.545c8.865,8.965,17.734-9.128,26.643-0.064
			c8.891,9.087,17.78-9.065,26.67,0c0-0.003,0-0.003,0-0.003c8.803,8.599,17.859-8.994,26.702,0.003
			c8.89,9.087,17.779-9.065,26.669,0c0-0.001,0-0.003,0-0.003c8.854,8.881,17.82-9.048,26.67,0.003
			c8.912,9.064,17.779-8.993,26.646-0.02v-4.545C151.133-75.233,142.266-57.16,133.354-66.223z"/>
		<path fill="#CA4E48" d="M133.354-54.808c-8.885-9.078-17.856,9.01-26.746-0.08c0,0.005,0,0.009,0,0.013
			c-8.883-8.85-17.744,9.117-26.593,0.067c-8.89-9.078-18.044,8.896-26.934-0.188c0,0.007,0,0.015,0,0.021
			c-8.797-8.599-17.641,9.209-26.438,0.167C17.734-63.873,8.865-45.775,0-54.74v4.544c8.865,8.966,17.734-9.132,26.643-0.066
			c8.891,9.09,17.78-9.083,26.67,0c0-0.008,0-0.016,0-0.021c8.803,8.585,17.859-8.975,26.702,0.021c8.89,9.09,17.779-9.083,26.669,0
			c0-0.004,0-0.009,0-0.013c8.854,8.889,17.82-9.035,26.67,0.013c8.912,9.066,17.779-8.99,26.646-0.022v-4.539
			C151.133-63.798,142.266-45.741,133.354-54.808z"/>
		<path fill="#CA4E48" d="M133.354-43.372c-8.885-9.09-17.856,9.01-26.746-0.08c0,0.004,0,0.009,0,0.013
			c-8.883-8.884-17.744,9.115-26.593,0.067c-8.89-9.09-18.044,8.861-26.934-0.201l0,0c-8.797-8.583-17.641,9.224-26.438,0.201
			C17.734-52.438,8.865-34.35,0-43.306v4.545c8.865,8.938,17.734-9.132,26.643-0.066c8.891,9.09,17.78-9.09,26.67,0
			c0-0.008,0-0.016,0-0.023c8.803,8.58,17.859-8.972,26.702,0.023c8.89,9.09,17.779-9.09,26.669,0c0-0.005,0-0.009,0-0.013
			c8.854,8.865,17.82-9.035,26.67,0.013c8.912,9.066,17.779-8.991,26.646-0.059v-4.524
			C151.133-52.363,142.266-34.306,133.354-43.372z"/>
		<path fill="#CA4E48" d="M133.354-31.937c-8.885-9.09-17.856,8.988-26.746-0.08c0,0.003,0,0.005,0,0.006
			c-8.883-8.886-17.744,9.122-26.593,0.074c-8.89-9.09-18.044,8.854-26.934-0.224c0,0.002,0,0.006,0,0.012
			c-8.797-8.575-17.641,9.207-26.438,0.212C17.734-41.002,8.865-22.946,0-31.87v4.544c8.865,8.922,17.734-9.131,26.643-0.065
			c8.891,9.089,17.78-9.09,26.67,0c0-0.008,0-0.016,0-0.023c8.803,8.58,17.859-8.972,26.702,0.023c8.89,9.089,17.779-9.09,26.669,0
			c0-0.005,0-0.009,0-0.013c8.854,8.846,17.82-9.035,26.67,0.013c8.912,9.065,17.779-8.995,26.646-0.063V-32
			C151.133-40.928,142.266-22.87,133.354-31.937z"/>
		<path fill="#CA4E48" d="M133.354-20.502c-8.885-9.09-17.856,8.969-26.746-0.098c0,0,0,0,0,0.002
			c-8.883-8.863-17.744,9.144-26.593,0.096c-8.89-9.09-18.044,8.855-26.934-0.234c0,0.008,0,0.015,0,0.022
			c-8.797-8.574-17.641,9.207-26.438,0.212C17.734-29.566,8.865-11.517,0-20.448v4.536c8.865,8.94,17.734-9.11,26.643-0.045
			c8.891,9.09,17.78-9.09,26.67,0c0-0.008,0-0.016,0-0.022c8.803,8.579,17.859-8.995,26.702,0.022c8.89,9.09,17.779-9.09,26.669,0
			c0-0.004,0-0.008,0-0.013c8.854,8.847,17.82-9.035,26.67,0.013c8.912,9.066,17.779-9.018,26.646-0.063v-4.545
			C151.133-29.511,142.266-11.436,133.354-20.502z"/>
		<path fill="#CA4E48" d="M133.354-9.066c-8.885-9.09-17.856,8.963-26.746-0.127c0,0.006,0,0.009,0,0.013
			c-8.883-8.845-17.744,9.162-26.593,0.114c-8.89-9.09-18.044,8.854-26.934-0.235c0,0.008,0,0.016,0,0.023
			c-8.797-8.574-17.641,9.207-26.438,0.212C17.734-18.132,8.865-0.081,0-9.035v3.355h15.59c3.242-1.484,6.483-2.371,9.702,0H42.27
			c3.255-1.484,6.473-2.371,9.692,0h16.73c3.356-1.499,6.702-2.418,9.978,0h17.006c3.219-1.484,6.438-2.371,9.703,0h16.858
			c3.277-1.49,6.552-2.404,9.811,0h16.966c3.26-1.484,6.484-2.371,9.703,0H160v-3.45C151.133-18.098,142.266,0,133.354-9.066z"/>
		<path fill="#CA4E48" d="M160-164.585v-1.095h-1.283C159.15-165.369,159.588-165.002,160-164.585z"/>
		<path fill="#CA4E48" d="M53.313-164.545c5.065,4.931,10.23,1.196,15.38-1.135h-16.73c0.458,0.327,0.916,0.705,1.351,1.158
			C53.313-164.529,53.313-164.537,53.313-164.545z"/>
		<path fill="#CA4E48" d="M42.27-165.68H25.292c0.435,0.327,0.878,0.705,1.351,1.158C31.833-159.198,37.069-163.261,42.27-165.68z"
			/>
		<path fill="#CA4E48" d="M149.014-165.68h-16.966c0.436,0.327,0.87,0.705,1.306,1.158
			C138.589-159.198,143.824-163.261,149.014-165.68z"/>
		<path fill="#CA4E48" d="M15.59-165.68H0v1.178C5.212-159.231,10.395-163.261,15.59-165.68z"/>
		<path fill="#CA4E48" d="M95.676-165.68H78.67c0.473,0.328,0.911,0.705,1.345,1.158C85.221-159.198,90.439-163.261,95.676-165.68z"
			/>
		<path fill="#CA4E48" d="M106.684-164.534c5.159,5.158,10.36,1.25,15.554-1.146h-16.858c0.435,0.327,0.869,0.705,1.305,1.158
			C106.684-164.525,106.684-164.53,106.684-164.534z"/>
	</g>
</pattern>
<g id="Background">
	<polyline fill="#FBF5ED" points="0,800 0,0 1252,0 1252,800 	"/>
</g>
<g id="Objects">
	<g>
		<g>
			<g>
				<g>
					<g>
						<g>
							<path fill="#F5E7D3" d="M515.93,476.211c-0.429,0-0.776-0.348-0.776-0.777v-2.318c-1.82-0.593-4.497-2.316-4.622-5.732
								c-0.079-2.165,0.457-3.854,1.595-5.02c1.077-1.104,2.66-1.674,4.59-1.651c3.551,0.044,5.293,3.022,5.365,3.149
								c0.213,0.373,0.084,0.848-0.289,1.061c-0.373,0.212-0.847,0.083-1.06-0.289c-0.054-0.093-1.39-2.334-4.035-2.367
								c-1.039-0.001-2.483,0.183-3.46,1.184c-0.828,0.85-1.217,2.153-1.154,3.877c0.131,3.561,3.85,4.4,4.008,4.435
								c0.357,0.077,0.616,0.394,0.616,0.76v2.913C516.707,475.863,516.358,476.211,515.93,476.211z"/>
						</g>
						<g>
							<path fill="#F5E7D3" d="M553.376,502.47c-2.72-2.098-13.674-8.094-19.034-11.077c-5.36-2.984-7.536-9.743-11.343-12.773
								c-3.807-3.029-5.696-3.34-7.069-3.34c-1.372,0-3.263,0.311-7.069,3.34c-3.807,3.03-5.982,9.789-11.343,12.773
								c-5.36,2.983-16.314,8.979-19.033,11.077c-2.72,2.098-0.544,6.681,2.874,4.429c3.418-2.254,32.357-24.316,34.571-24.316
								s31.153,22.063,34.571,24.316C553.919,509.15,556.095,504.567,553.376,502.47z"/>
						</g>
					</g>
					<g>
						<path fill="#F5E7D3" d="M491.176,504.184l1.345,12.639c1.632-1.404,3.232-2.243,4.789-2.664L491.176,504.184z"/>
						<path fill="#F5E7D3" d="M540.684,504.184l-6.134,9.975c1.557,0.421,3.158,1.26,4.789,2.664L540.684,504.184z"/>
						<path fill="#F5E7D3" d="M541.136,518.594l1.948-18.313l2.138-3.476l-1.681-1.033l-11.106,18.057
							c-7.105-0.319-13.089,7.102-16.505,7.102s-9.399-7.421-16.505-7.102l-11.105-18.057l-1.682,1.033l2.138,3.476l1.948,18.313
							c-0.621,0.69-1.246,1.463-1.874,2.337c9.1,22.585,9.1,37.935,3.289,49.337c9.868,8.771,23.791,10.087,23.791,10.087
							s13.924-1.315,23.791-10.087c-5.811-11.402-5.811-26.752,3.289-49.337C542.382,520.057,541.757,519.284,541.136,518.594z
							 M492.521,516.822l-1.345-12.639l6.134,9.975C495.753,514.579,494.152,515.418,492.521,516.822z M534.55,514.158l6.134-9.975
							l-1.345,12.639C537.708,515.418,536.106,514.579,534.55,514.158z"/>
					</g>
					<g>
						<path fill="#F5E7D3" d="M539.897,571.505l-0.179,0.158c-10.012,8.899-23.184,9.649-23.74,9.677l-0.049,0.002l-0.049-0.002
							c-0.556-0.027-13.729-0.777-23.74-9.677l-0.178-0.158c-8.722,22.999-22.923,93.065-36.06,112.842
							c0.603,1.589,3.301,4.212,10.251,5.757c4.69,1.041,12.581-0.683,16.391,0.163c4.486,0.998,8.394,6.356,15.294,6.524
							c7.646,0.186,13.157-4.879,18.091-4.879s10.446,5.064,18.091,4.879c6.9-0.168,10.809-5.526,15.294-6.524
							c3.81-0.846,11.701,0.878,16.391-0.163c6.951-1.545,9.649-4.168,10.252-5.757C562.82,664.57,548.618,594.504,539.897,571.505z
							"/>
					</g>
				</g>
				<g>
					<g>
						<g>
							<path fill="#706F6F" d="M510.93,471.211c-0.429,0-0.776-0.348-0.776-0.777v-2.318c-1.82-0.593-4.497-2.316-4.622-5.732
								c-0.079-2.165,0.457-3.854,1.595-5.02c1.077-1.104,2.66-1.674,4.59-1.651c3.551,0.044,5.293,3.022,5.365,3.149
								c0.213,0.373,0.084,0.848-0.289,1.061c-0.373,0.212-0.847,0.083-1.06-0.289c-0.054-0.093-1.39-2.334-4.035-2.367
								c-1.039-0.001-2.483,0.183-3.46,1.184c-0.828,0.85-1.217,2.153-1.154,3.877c0.131,3.561,3.85,4.4,4.008,4.435
								c0.357,0.077,0.616,0.394,0.616,0.76v2.913C511.707,470.863,511.358,471.211,510.93,471.211z"/>
						</g>
						<g>
							<path fill="#C9985E" d="M548.376,497.47c-2.72-2.098-13.674-8.094-19.034-11.077c-5.36-2.984-7.536-9.743-11.343-12.773
								c-3.807-3.029-5.696-3.34-7.069-3.34c-1.372,0-3.263,0.311-7.069,3.34c-3.807,3.03-5.982,9.789-11.343,12.773
								c-5.36,2.983-16.314,8.979-19.033,11.077c-2.72,2.098-0.544,6.681,2.874,4.429c3.418-2.254,32.357-24.316,34.571-24.316
								s31.153,22.063,34.571,24.316C548.919,504.15,551.095,499.567,548.376,497.47z"/>
						</g>
					</g>
					<g>
						<path fill="none" d="M486.176,499.184l1.345,12.639c1.632-1.404,3.232-2.243,4.789-2.664L486.176,499.184z"/>
						<path fill="none" d="M535.684,499.184l-6.134,9.975c1.557,0.421,3.158,1.26,4.789,2.664L535.684,499.184z"/>
						<path fill="#515683" d="M536.136,513.594l1.948-18.313l2.138-3.476l-1.681-1.033l-11.106,18.057
							c-7.105-0.319-13.089,7.102-16.505,7.102s-9.399-7.421-16.505-7.102l-11.105-18.057l-1.682,1.033l2.138,3.476l1.948,18.313
							c-0.621,0.69-1.246,1.463-1.874,2.337c9.1,22.585,9.1,37.935,3.289,49.337c9.868,8.771,23.791,10.087,23.791,10.087
							s13.924-1.315,23.791-10.087c-5.811-11.402-5.811-26.752,3.289-49.337C537.382,515.057,536.757,514.284,536.136,513.594z
							 M487.521,511.822l-1.345-12.639l6.134,9.975C490.753,509.579,489.152,510.418,487.521,511.822z M529.55,509.158l6.134-9.975
							l-1.345,12.639C532.708,510.418,531.106,509.579,529.55,509.158z"/>
					</g>
					<g>
						<path fill="url(#Nueva_muestra_de_motivo_13)" d="M534.897,566.505l-0.179,0.158c-10.012,8.899-23.184,9.649-23.74,9.677
							l-0.049,0.002l-0.049-0.002c-0.556-0.027-13.729-0.777-23.74-9.677l-0.178-0.158c-8.722,22.999-22.923,93.065-36.06,112.842
							c0.603,1.589,3.301,4.212,10.251,5.757c4.69,1.041,12.581-0.683,16.391,0.163c4.486,0.998,8.394,6.356,15.294,6.524
							c7.646,0.186,13.157-4.879,18.091-4.879s10.446,5.064,18.091,4.879c6.9-0.168,10.809-5.526,15.294-6.524
							c3.81-0.846,11.701,0.878,16.391-0.163c6.951-1.545,9.649-4.168,10.252-5.757C557.82,659.57,543.618,589.504,534.897,566.505z
							"/>
					</g>
				</g>
			</g>
			<g>
				<g>
					<g>
						<g>
							<path fill="#F5E7D3" d="M726.618,476.211c-0.43,0-0.776-0.348-0.776-0.777v-2.318c-1.819-0.593-4.496-2.316-4.622-5.732
								c-0.079-2.165,0.457-3.854,1.595-5.02c1.077-1.104,2.661-1.674,4.591-1.651c3.549,0.044,5.293,3.022,5.365,3.149
								c0.213,0.373,0.082,0.848-0.29,1.061c-0.372,0.212-0.847,0.083-1.06-0.289c-0.054-0.093-1.389-2.334-4.035-2.367
								c-1.039-0.001-2.482,0.183-3.459,1.184c-0.83,0.85-1.218,2.153-1.154,3.877c0.131,3.561,3.849,4.4,4.006,4.435
								c0.358,0.077,0.617,0.394,0.617,0.76v2.913C727.396,475.863,727.048,476.211,726.618,476.211z"/>
						</g>
						<g>
							<path fill="#F5E7D3" d="M764.064,502.47c-2.72-2.098-13.673-8.094-19.034-11.077c-5.359-2.984-7.535-9.743-11.342-12.773
								c-3.807-3.029-5.697-3.34-7.07-3.34s-3.262,0.311-7.069,3.34c-3.807,3.03-5.981,9.789-11.343,12.773
								c-5.359,2.983-16.314,8.979-19.033,11.077s-0.544,6.681,2.875,4.429c3.418-2.254,32.356-24.316,34.57-24.316
								c2.215,0,31.153,22.063,34.572,24.316C764.608,509.15,766.784,504.567,764.064,502.47z"/>
						</g>
					</g>
					<g>
						<path fill="#F5E7D3" d="M762.767,598.72c-4.766-9.633-14.606-25.378-15.642-43.608c-1.036-18.231,6.811-33.898,6.811-33.898
							s-1.839-2.564-1.218-10.022c0.622-7.458,3.729-13.983,3.729-13.983l-1.45-0.725c0,0-10.772,15.33-14.398,17.713
							c-3.603,2.367-9.853,0.828-13.98,0.828s-10.378,1.539-13.98-0.828c-3.627-2.383-14.398-17.713-14.398-17.713l-1.451,0.725
							c0,0,3.108,6.525,3.729,13.983c0.622,7.458-1.218,10.022-1.218,10.022s7.848,15.667,6.812,33.898
							c-1.035,18.23-10.876,33.976-15.642,43.608c-4.765,9.634-11.705,30.868-11.602,31.8c0.104,0.933,3.729,1.865,5.801,5.49
							c2.072,3.625,8.391,8.805,19.164,8.701c10.714-0.104,18.012,4.245,22.782,4.245s12.074-4.349,22.788-4.245
							c10.773,0.104,17.092-5.076,19.164-8.701c2.07-3.625,5.697-4.558,5.801-5.49C774.472,629.588,767.531,608.354,762.767,598.72z
							"/>
						<g>
							<path fill="#F5E7D3" d="M779.754,660.766c-2.797-4.867-3.626-13.362-4.869-18.748c-0.58-2.514-1.859-5.479-3.059-7.927
								c-0.78,0.645-1.562,1.452-2.181,2.536c-1.979,3.465-8.404,9.328-19.924,9.328h-0.001l-0.691-0.004
								c-6.112,0-11.115,1.494-15.136,2.694c-2.793,0.834-5.206,1.554-7.278,1.554c-2.073,0-4.484-0.72-7.276-1.554
								c-4.019-1.2-9.02-2.694-15.132-2.694l-0.691,0.004c-11.521,0-17.945-5.863-19.925-9.328c-0.619-1.084-1.4-1.892-2.181-2.536
								c-1.199,2.448-2.479,5.413-3.06,7.927c-1.242,5.386-2.071,13.881-4.868,18.748c-2.797,4.869-4.661,10.773-2.694,11.809
								c1.97,1.037,6.526-1.035,12.639,4.455c6.111,5.489,8.908,12.327,17.609,12.949c8.701,0.621,12.844-0.105,16.987,2.691
								s8.595,2.9,8.595,2.9s4.451-0.104,8.595-2.9s8.286-2.07,16.987-2.691c8.701-0.622,11.498-7.46,17.609-12.949
								c6.112-5.49,10.669-3.418,12.638-4.455C784.415,671.539,782.551,665.635,779.754,660.766z"/>
						</g>
					</g>
				</g>
				<g>
					<g>
						<g>
							<path fill="#706F6F" d="M721.618,471.211c-0.43,0-0.776-0.348-0.776-0.777v-2.318c-1.819-0.593-4.496-2.316-4.622-5.732
								c-0.079-2.165,0.457-3.854,1.595-5.02c1.077-1.104,2.661-1.674,4.591-1.651c3.549,0.044,5.293,3.022,5.365,3.149
								c0.213,0.373,0.082,0.848-0.29,1.061c-0.372,0.212-0.847,0.083-1.06-0.289c-0.054-0.093-1.389-2.334-4.035-2.367
								c-1.039-0.001-2.482,0.183-3.459,1.184c-0.83,0.85-1.218,2.153-1.154,3.877c0.131,3.561,3.849,4.4,4.006,4.435
								c0.358,0.077,0.617,0.394,0.617,0.76v2.913C722.396,470.863,722.048,471.211,721.618,471.211z"/>
						</g>
						<g>
							<path fill="#C9985E" d="M759.064,497.47c-2.72-2.098-13.673-8.094-19.034-11.077c-5.359-2.984-7.535-9.743-11.342-12.773
								c-3.807-3.029-5.697-3.34-7.07-3.34s-3.262,0.311-7.069,3.34c-3.807,3.03-5.981,9.789-11.343,12.773
								c-5.359,2.983-16.314,8.979-19.033,11.077s-0.544,6.681,2.875,4.429c3.418-2.254,32.356-24.316,34.57-24.316
								c2.215,0,31.153,22.063,34.572,24.316C759.608,504.15,761.784,499.567,759.064,497.47z"/>
						</g>
					</g>
					<g>
						<path fill="url(#Nueva_muestra_de_motivo_11)" d="M757.767,593.72c-4.766-9.633-14.606-25.378-15.642-43.608
							c-1.036-18.231,6.811-33.898,6.811-33.898s-1.839-2.564-1.218-10.022c0.622-7.458,3.729-13.983,3.729-13.983l-1.45-0.725
							c0,0-10.772,15.33-14.398,17.713c-3.603,2.367-9.853,0.828-13.98,0.828s-10.378,1.539-13.98-0.828
							c-3.627-2.383-14.398-17.713-14.398-17.713l-1.451,0.725c0,0,3.108,6.525,3.729,13.983c0.622,7.458-1.218,10.022-1.218,10.022
							s7.848,15.667,6.812,33.898c-1.035,18.23-10.876,33.976-15.642,43.608c-4.765,9.634-11.705,30.868-11.602,31.8
							c0.104,0.933,3.729,1.865,5.801,5.49c2.072,3.625,8.391,8.805,19.164,8.701c10.714-0.104,18.012,4.245,22.782,4.245
							s12.074-4.349,22.788-4.245c10.773,0.104,17.092-5.076,19.164-8.701c2.07-3.625,5.697-4.558,5.801-5.49
							C769.472,624.588,762.531,603.354,757.767,593.72z"/>
						<g>
							<path fill="#515683" d="M774.754,655.766c-2.797-4.867-3.626-13.362-4.869-18.748c-0.58-2.514-1.859-5.479-3.059-7.927
								c-0.78,0.645-1.562,1.452-2.181,2.536c-1.979,3.465-8.404,9.328-19.924,9.328h-0.001l-0.691-0.004
								c-6.112,0-11.115,1.494-15.136,2.694c-2.793,0.834-5.206,1.554-7.278,1.554c-2.073,0-4.484-0.72-7.276-1.554
								c-4.019-1.2-9.02-2.694-15.132-2.694l-0.691,0.004c-11.521,0-17.945-5.863-19.925-9.328c-0.619-1.084-1.4-1.892-2.181-2.536
								c-1.199,2.448-2.479,5.413-3.06,7.927c-1.242,5.386-2.071,13.881-4.868,18.748c-2.797,4.869-4.661,10.773-2.694,11.809
								c1.97,1.037,6.526-1.035,12.639,4.455c6.111,5.489,8.908,12.327,17.609,12.949c8.701,0.621,12.844-0.105,16.987,2.691
								s8.595,2.9,8.595,2.9s4.451-0.104,8.595-2.9s8.286-2.07,16.987-2.691c8.701-0.622,11.498-7.46,17.609-12.949
								c6.112-5.49,10.669-3.418,12.638-4.455C779.415,666.539,777.551,660.635,774.754,655.766z"/>
						</g>
					</g>
				</g>
			</g>
			<g>
				<g>
					<g>
						<g>
							<path fill="#F5E7D3" d="M622.828,495.833c-0.43,0-0.776-0.348-0.776-0.776v-2.32c-1.82-0.592-4.497-2.315-4.623-5.731
								c-0.078-2.165,0.458-3.854,1.596-5.019c1.076-1.105,2.66-1.675,4.59-1.652c3.55,0.044,5.293,3.022,5.365,3.149
								c0.213,0.372,0.084,0.847-0.289,1.061c-0.373,0.212-0.846,0.083-1.061-0.29c-0.054-0.092-1.389-2.334-4.034-2.366
								c-1.039-0.001-2.483,0.183-3.46,1.184c-0.829,0.849-1.217,2.153-1.154,3.877c0.131,3.561,3.85,4.4,4.007,4.435
								c0.358,0.077,0.616,0.395,0.616,0.76v2.914C623.604,495.485,623.257,495.833,622.828,495.833z"/>
						</g>
						<g>
							<path fill="#F5E7D3" d="M660.274,522.092c-2.719-2.098-13.674-8.094-19.034-11.078c-5.36-2.983-7.536-9.742-11.343-12.772
								s-5.697-3.341-7.069-3.341c-1.373,0-3.263,0.311-7.069,3.341s-5.982,9.789-11.343,12.772
								c-5.36,2.984-16.315,8.98-19.034,11.078s-0.544,6.682,2.875,4.428c3.418-2.252,32.357-24.316,34.571-24.316
								s31.153,22.064,34.571,24.316C660.817,528.773,662.993,524.189,660.274,522.092z"/>
						</g>
					</g>
					<g>
						<path fill="#F5E7D3" d="M652.764,589.82c-3.418-14.917-1.243-41.176-1.243-41.176s-4.143-1.553-5.697-9.219
							c-1.554-7.665,0.933-26.104,0.933-26.104l-3.522-1.449c0,0-2.071,10.254-7.561,18.852c-5.49,8.598-20.2,8.598-25.689,0
							c-5.49-8.598-7.562-18.852-7.562-18.852l-3.522,1.449c0,0,2.486,18.438,0.933,26.104c-1.554,7.666-5.697,9.219-5.697,9.219
							s2.175,26.259-1.243,41.176c-3.418,14.915-7.769,86.855-7.769,86.855s18.127,6.216,37.704,6.216
							c19.578,0,37.705-6.216,37.705-6.216S656.183,604.735,652.764,589.82z"/>
						<g>
							<path fill="#F5E7D3" d="M670.788,711.17c-5.18-11.084-6.112-18.023-7.148-22.479c-0.723-3.112-2.205-8.041-3.032-10.73
								c-2.524,0.822-19.634,6.174-37.78,6.174c-18.145,0-35.254-5.352-37.779-6.174c-0.827,2.689-2.309,7.618-3.033,10.73
								c-1.035,4.455-1.967,11.395-7.146,22.479c-5.18,11.082-8.184,16.365-8.184,16.365c1.969,7.33,18.024,4.559,23.618,5.698
								c5.593,1.139,7.043,5.49,14.708,6.318c7.666,0.829,13.156-4.765,17.816-4.765c4.662,0,10.152,5.594,17.817,4.765
								c7.665-0.828,9.114-5.18,14.708-6.318c5.594-1.14,21.65,1.632,23.617-5.698C678.97,727.535,675.966,722.252,670.788,711.17z"
								/>
							<path fill="#F5E7D3" d="M611.03,530.056c2.35,3.679,6.76,5.874,11.797,5.874c5.039,0,9.449-2.195,11.798-5.874
								c2.678-4.194,4.53-8.825,5.71-12.396c-3.186,2.712-9.549,7.076-17.508,7.076c-7.957,0-14.318-4.362-17.505-7.074
								C606.504,521.235,608.356,525.867,611.03,530.056z"/>
						</g>
					</g>
				</g>
				<g>
					<g>
						<g>
							<path fill="#706F6F" d="M617.828,490.833c-0.43,0-0.776-0.348-0.776-0.776v-2.32c-1.82-0.592-4.497-2.315-4.623-5.731
								c-0.078-2.165,0.458-3.854,1.596-5.019c1.076-1.105,2.66-1.675,4.59-1.652c3.55,0.044,5.293,3.022,5.365,3.149
								c0.213,0.372,0.084,0.847-0.289,1.061c-0.373,0.212-0.846,0.083-1.061-0.29c-0.054-0.092-1.389-2.334-4.034-2.366
								c-1.039-0.001-2.483,0.183-3.46,1.184c-0.829,0.849-1.217,2.153-1.154,3.877c0.131,3.561,3.85,4.4,4.007,4.435
								c0.358,0.077,0.616,0.395,0.616,0.76v2.914C618.604,490.485,618.257,490.833,617.828,490.833z"/>
						</g>
						<g>
							<path fill="#C9985E" d="M655.274,517.092c-2.719-2.098-13.674-8.094-19.034-11.078c-5.36-2.983-7.536-9.742-11.343-12.772
								s-5.697-3.341-7.069-3.341c-1.373,0-3.263,0.311-7.069,3.341s-5.982,9.789-11.343,12.772
								c-5.36,2.984-16.315,8.98-19.034,11.078s-0.544,6.682,2.875,4.428c3.418-2.252,32.357-24.316,34.571-24.316
								s31.153,22.064,34.571,24.316C655.817,523.773,657.993,519.189,655.274,517.092z"/>
						</g>
					</g>
					<g>
						<path fill="url(#Nueva_muestra_de_motivo_6)" d="M647.764,584.82c-3.418-14.917-1.243-41.176-1.243-41.176
							s-4.143-1.553-5.697-9.219c-1.554-7.665,0.933-26.104,0.933-26.104l-3.522-1.449c0,0-2.071,10.254-7.561,18.852
							c-5.49,8.598-20.2,8.598-25.689,0c-5.49-8.598-7.562-18.852-7.562-18.852l-3.522,1.449c0,0,2.486,18.438,0.933,26.104
							c-1.554,7.666-5.697,9.219-5.697,9.219s2.175,26.259-1.243,41.176c-3.418,14.915-7.769,86.855-7.769,86.855
							s18.127,6.216,37.704,6.216c19.578,0,37.705-6.216,37.705-6.216S651.183,599.735,647.764,584.82z"/>
						<g>
							<path fill="#CA4E48" d="M665.788,706.17c-5.18-11.084-6.112-18.023-7.148-22.479c-0.723-3.112-2.205-8.041-3.032-10.73
								c-2.524,0.822-19.634,6.174-37.78,6.174c-18.145,0-35.254-5.352-37.779-6.174c-0.827,2.689-2.309,7.618-3.033,10.73
								c-1.035,4.455-1.967,11.395-7.146,22.479c-5.18,11.082-8.184,16.365-8.184,16.365c1.969,7.33,18.024,4.559,23.618,5.698
								c5.593,1.139,7.043,5.49,14.708,6.318c7.666,0.829,13.156-4.765,17.816-4.765c4.662,0,10.152,5.594,17.817,4.765
								c7.665-0.828,9.114-5.18,14.708-6.318c5.594-1.14,21.65,1.632,23.617-5.698C673.97,722.535,670.966,717.252,665.788,706.17z"
								/>
							<path fill="#CA4E48" d="M606.03,525.056c2.35,3.679,6.76,5.874,11.797,5.874c5.039,0,9.449-2.195,11.798-5.874
								c2.678-4.194,4.53-8.825,5.71-12.396c-3.186,2.712-9.549,7.076-17.508,7.076c-7.957,0-14.318-4.362-17.505-7.074
								C601.504,516.235,603.356,520.867,606.03,525.056z"/>
						</g>
					</g>
				</g>
			</g>
		</g>
		<g>
			<path fill="#FBF5ED" d="M310.85,52h178.3"/>
			<path fill="#FBF5ED" d="M310.85,55.784h178.3"/>
			<line fill="#FBF5ED" x1="323.46" y1="64.108" x2="476.541" y2="64.108"/>
		</g>
	</g>
	<g>
		<g>
			<path fill="#FBF5ED" d="M514,41.5c-13.773,0.57-27.432,2.322-41.04,4.464c-13.995,2.203-27.96,5.407-42.053,6.893
				c-16.905,1.783-39.794,0.091-52.675,13.375c-1.33,1.371-0.706,3.631,1.103,4.178c16.086,4.871,34.377-3.108,49.786-7.244
				c20.581-5.524,42.593-4.836,62.544-12.756c2.093-0.831,2.655-4.24,0-4.821c-25.429-5.57-54.798-3.706-79.33,5
				c-2.12,0.752-2.636,4.337,0,4.821c24.888,4.567,49.271-7.723,74-3c-0.498-1.224-0.995-2.448-1.493-3.672
				c-6.352,9.556-21.163,11.437-31.501,13.309c-11.569,2.095-23.697,3.125-34.603,7.794c-2.801,1.199-0.64,4.998,1.927,4.569
				c20.565-3.435,39.719-12.462,59-20c2.483-0.971,2.345-4.983-0.665-4.911c-15.092,0.365-29.333,8.768-41.262,17.341
				c-2.148,1.544-0.934,5.576,1.927,4.569c13.242-4.66,24.675-13.446,35.103-22.643c-1.393-0.811-2.785-1.622-4.179-2.432
				c-3.133,7.799-8.593,14.554-10,23c-0.241,1.453,0.649,3.332,2.411,3.165c8.73-0.828,17.049-4.154,24.973-7.741
				c8.43-3.816,17.094-8.509,23.795-14.991c1.501-1.452,0.44-4.417-1.768-4.268c-20.148,1.357-38.002,11.383-56.665,18.089
				c-3.035,1.091-1.845,5.441,1.33,4.821c17.219-3.361,33.631-9.854,50-16c-0.643-1.523-1.285-3.046-1.927-4.569
				C486.739,55.773,469.836,62.354,452,64.5c0.72,1.254,1.439,2.508,2.158,3.762c4.721-9.925,13.491-17.374,21.609-24.494
				c2.47-2.166-1.064-5.477-3.535-3.535c-10.893,8.556-25.794,15.62-29.644,30.103c-0.332,1.251,0.403,2.797,1.746,3.075
				c2.984,0.618,8.492,1.95,10.529-1.379c1.791-2.929-0.333-5.938-2.311-8.118c-7.924-8.738-22.479-7.099-33.058-6.648
				c-15.859,0.676-31.896-0.529-47.747-1.208C353.808,55.288,335.878,54.206,318,52.5c0.42,1.553,0.841,3.106,1.262,4.659
				c16.121-9.008,35.126-12.038,53.258-13.943c18.096-1.902,36.309-2.158,54.48-2.715c-0.421-1.553-0.841-3.106-1.262-4.659
				c-11.865,6.087-25.93,7.84-38.601,11.696c-10.823,3.294-24.271,8.088-29.296,19.201c-0.521,1.151-0.425,2.796,0.897,3.42
				c10.917,5.153,24.218,3.343,35.426,0.127c11.016-3.161,23.619-9.299,28.994-20.024c0.578-1.152,0.379-2.785-0.896-3.42
				c-11.341-5.648-25.541-3.16-37.419-0.797c-13.463,2.678-26.58,6.989-39.507,11.545c-2.658,0.937-2.218,4.776,0.665,4.911
				c19.172,0.897,38.191-4.719,56.665-9.089c2.736-0.647,2.16-5.038-0.665-4.911c-25.27,1.142-51.534,7.979-76.335,0.089
				c0.368,1.393,0.735,2.786,1.103,4.178c9.537-11.963,26.872-11.575,39.494-18.609c2.276-1.269,1.124-4.527-1.262-4.659
				c-12.78-0.706-26.388,2.746-38.412,6.709c-10.438,3.441-25.785,9.218-28.999,21.126c-0.268,0.993,0.138,2.371,1.149,2.823
				c17.651,7.905,38.108,5.117,56.781,3.706c20.196-1.526,42.003,1.536,61.146-6.454c2.321-0.969,2.413-3.88,0-4.821
				c-15.091-5.882-31.718-7.572-47.79-8.089c-16.184-0.521-32.716,0.527-48.54,4.089c-2.934,0.66-1.98,4.66,0.665,4.911
				c31.587,2.993,63.347,3.062,95,5c0-1.667,0-3.333,0-5c-45.748,0.896-91.275-4.914-137-5c-3.23-0.006-3.217,4.916,0,5
				c32.12,0.845,63.88-5.845,96-5c-0.222-1.637-0.443-3.274-0.665-4.911c-22.981,7.318-50.489-0.22-71.597,13.252
				c-2.137,1.364-1.232,4.53,1.262,4.659c14.582,0.755,28.492-4.759,43-5c3.222-0.054,3.226-4.97,0-5
				c-11.728-0.109-23.336-1.979-35-3c0.42,1.553,0.841,3.106,1.262,4.659c13.053-8.184,31.342-7.737,46.106-6.587
				c14.248,1.109,33.075,3.788,43.865,14.196c-0.131-1.01-0.261-2.02-0.391-3.029c-6.895,11.848-24.662,13.779-36.893,14.861
				c-13.617,1.204-27.322,0.585-40.949-0.1c0.589,1.422,1.179,2.845,1.768,4.268c17.636-16.135,43.319-19.272,65.897-23.357
				c2.952-0.534,1.966-4.693-0.665-4.911c-23.901-1.976-47.464,6.774-70.665,11.089c-2.776,0.517-2.135,5.083,0.665,4.911
				c17.731-1.09,35.2-4.861,53-5c-0.222-1.637-0.443-3.274-0.665-4.911c-9.762,3.793-19.974,6.048-30,9
				c-3.085,0.909-1.782,5.7,1.329,4.821c4.066-1.148,7.935-2.852,12-4c2.646-0.747,2.214-5.142-0.665-4.911
				c-13.346,1.07-26.648,2.908-39.665,6.089c0.642,1.523,1.284,3.046,1.926,4.569c8.839-3.87,17.955-6.792,27.403-8.748
				c-0.443-1.607-0.886-3.214-1.329-4.821c-5.709,1.894-11.253,3.63-17.335,2.911c0,1.667,0,3.333,0,5
				c32.16-0.98,65.269,1.344,96.665-7.089c2.913-0.783,1.991-4.604-0.665-4.911c-26.824-3.092-54.617-1.063-80.665,6.089
				c-2.379,0.653-2.398,4.178,0,4.821c32.198,8.634,66.837,5.283,99.665,3.089c2.843-0.19,3.37-3.979,0.665-4.911
				c-27.31-9.399-56.93-0.352-84.665,1.911c-3.179,0.259-3.26,4.905,0,5c32.375,0.945,64.64-2.922,97-3c3.231-0.008,3.215-4.898,0-5
				c-37.207-1.182-74.722-10.817-111.665-1.911c-2.368,0.571-2.417,4.281,0,4.821C363.519,67.697,383.58,65.599,403,64.5
				c2.69-0.152,3.559-4.327,0.665-4.911c-23.834-4.811-48.57-4.09-72-11c-0.222,1.637-0.443,3.274-0.665,4.911
				c15.942-1.952,31.948-2.923,48-2c-0.589-1.422-1.179-2.845-1.768-4.268c-5.626,5.546-11.681,10.58-18.494,14.609
				c1.224,0.498,2.448,0.996,3.672,1.494C361.159,56.996,358.01,51.091,351,50.5c-3.215-0.271-3.188,4.731,0,5
				c4.544,0.383,5.858,5.461,6.589,9.165c0.315,1.598,2.358,2.271,3.672,1.494c7.167-4.238,13.587-9.556,19.506-15.391
				c1.626-1.603,0.345-4.146-1.768-4.268c-16.052-0.923-32.058,0.048-48,2c-2.678,0.328-3.551,4.06-0.665,4.911
				c23.442,6.914,48.164,6.189,72,11c0.222-1.637,0.443-3.274,0.665-4.911c-18.928,1.071-38.638,3.267-57.335-0.911
				c0,1.607,0,3.214,0,4.821c36.42-8.78,73.646,0.924,110.335,2.089c0-1.667,0-3.333,0-5c-32.36,0.078-64.625,3.945-97,3
				c0,1.667,0,3.333,0,5c27.235-2.221,56.536-11.313,83.335-2.089c0.222-1.637,0.443-3.274,0.665-4.911
				c-32.353,2.162-66.604,5.598-98.335-2.911c0,1.607,0,3.214,0,4.821c25.649-7.043,52.923-8.955,79.335-5.911
				c-0.222-1.637-0.443-3.274-0.665-4.911C392.388,60.902,359.704,58.533,328,59.5c-3.301,0.101-3.127,4.63,0,5
				c6.512,0.771,12.54-1.058,18.665-3.089c3.068-1.018,1.827-5.475-1.329-4.821c-9.888,2.047-19.355,5.205-28.597,9.252
				c-2.682,1.174-0.721,5.216,1.926,4.569C331.254,67.334,344.09,65.535,357,64.5c-0.222-1.637-0.443-3.274-0.665-4.911
				c-4.066,1.148-7.935,2.852-12,4c0.443,1.607,0.886,3.214,1.329,4.821c10.026-2.952,20.238-5.207,30-9
				c2.509-0.975,2.33-4.934-0.665-4.911c-17.8,0.139-35.269,3.91-53,5c0.222,1.637,0.443,3.274,0.665,4.911
				C345.442,60.174,368.542,51.561,392,53.5c-0.222-1.637-0.443-3.274-0.665-4.911c-23.583,4.266-49.705,7.81-68.103,24.643
				c-1.699,1.554-0.291,4.164,1.768,4.268c15.259,0.767,30.566,1.345,45.784-0.389c12.871-1.467,29.274-4.647,36.374-16.85
				c0.559-0.958,0.417-2.25-0.391-3.029c-11.637-11.227-30.761-14.083-46.136-15.551c-15.901-1.518-35.838-1.652-49.894,7.16
				c-2.211,1.386-1.167,4.446,1.262,4.659c11.664,1.021,23.272,2.891,35,3c0-1.667,0-3.333,0-5c-14.509,0.241-28.439,5.754-43,5
				c0.42,1.553,0.841,3.106,1.262,4.659c10.21-6.517,22.828-7.353,34.601-8.132c11.97-0.792,24.272-0.944,35.802-4.616
				c2.691-0.857,2.194-4.835-0.665-4.911c-32.12-0.845-63.88,5.845-96,5c0,1.667,0,3.333,0,5c45.725,0.086,91.252,5.896,137,5
				c3.246-0.063,3.197-4.804,0-5c-31.653-1.938-63.413-2.007-95-5c0.222,1.637,0.443,3.274,0.665,4.911
				c15.435-3.474,31.431-4.312,47.21-3.911c15.637,0.397,31.794,2.194,46.46,7.911c0-1.607,0-3.214,0-4.821
				c-18.31,7.643-39.074,4.834-58.408,6.172c-18.033,1.249-38.569,4.736-55.665-2.92c0.383,0.941,0.766,1.882,1.149,2.823
				c2.866-10.616,18.663-15.461,27.757-18.364c10.945-3.493,23.256-6.44,34.833-5.801c-0.42-1.553-0.841-3.106-1.262-4.659
				c-13.124,7.314-30.501,6.841-40.506,19.391c-1.172,1.47-0.824,3.565,1.103,4.178c25.302,8.048,51.894,1.254,77.665,0.089
				c-0.222-1.637-0.443-3.274-0.665-4.911C383.277,52.861,364.738,58.377,346,57.5c0.222,1.637,0.443,3.274,0.665,4.911
				c11.662-4.11,23.436-7.898,35.493-10.681c11.34-2.617,26.554-6.063,37.581-0.571c-0.299-1.14-0.598-2.28-0.896-3.42
				c-4.855,9.687-16.173,14.727-26.006,17.726c-9.633,2.938-22.095,4.852-31.574,0.377c0.299,1.14,0.598,2.28,0.897,3.42
				c5.127-11.339,20.086-15.178,30.976-18.275c11.675-3.32,24.239-5.243,35.127-10.828c2.222-1.14,1.175-4.733-1.262-4.659
				c-19.199,0.589-38.408,0.938-57.518,3.042c-18.038,1.987-36.727,5.349-52.744,14.299c-2.337,1.306-1.066,4.437,1.262,4.659
				c26.819,2.559,53.741,3.664,80.659,4.565c10.902,0.365,21.703-0.194,32.588-0.042c4.65,0.065,10.291,0.205,14.392,2.678
				c1.511,0.912,2.8,2.107,3.979,3.407c2.239,2.47-2.206,0.842-3.952,0.481c0.582,1.025,1.164,2.05,1.746,3.075
				c3.524-13.263,18.364-20.048,28.356-27.897c-1.179-1.178-2.356-2.357-3.535-3.535c-8.426,7.389-17.491,15.203-22.391,25.506
				c-0.715,1.502,0.097,4.01,2.158,3.762c18.773-2.258,36.41-8.986,53.262-17.341c2.522-1.251,0.732-5.567-1.927-4.569
				c-16.368,6.146-32.78,12.639-50,16c0.443,1.607,0.887,3.214,1.33,4.821C472.817,61.888,490.405,51.82,510,50.5
				c-0.589-1.422-1.179-2.845-1.768-4.268c-5.756,5.566-13.083,9.488-20.212,12.995c-7.71,3.793-16.377,7.453-25.021,8.272
				c0.804,1.055,1.607,2.11,2.411,3.165c1.392-8.358,6.886-15.25,10-23c1.012-2.52-2.491-3.921-4.179-2.432
				c-9.745,8.593-20.511,16.999-32.897,21.357c0.643,1.523,1.285,3.046,1.927,4.569C451.438,63.126,464.836,54.843,479,54.5
				c-0.222-1.637-0.443-3.274-0.665-4.911c-19.281,7.538-38.434,16.565-59,20c0.643,1.523,1.285,3.046,1.927,4.569
				c11.934-5.11,25.755-5.731,38.374-8.229c10.563-2.091,23.177-5.12,29.522-14.667c0.851-1.279,0.049-3.378-1.493-3.672
				c-24.838-4.744-49.189,7.553-74,3c0,1.607,0,3.214,0,4.821c23.687-8.406,52.087-10.385,76.67-5c0-1.607,0-3.214,0-4.821
				c-18.671,7.412-39.231,7.347-58.648,11.777c-8.573,1.957-16.929,4.796-25.467,6.904c-8.205,2.025-17.267,3.829-25.555,1.319
				c0.368,1.393,0.735,2.786,1.103,4.178c6.274-6.47,15.831-8.304,24.397-9.607c8.891-1.353,17.913-1.506,26.839-2.534
				C460.152,54.499,486.566,47.636,514,46.5C517.212,46.367,517.226,41.367,514,41.5L514,41.5z"/>
		</g>
	</g>
</g>
</svg>
