<?xml version="1.0" encoding="utf-8"?>
<!-- Generator: Adobe Illustrator 16.0.3, SVG Export Plug-In . SVG Version: 6.00 Build 0)  -->
<!DOCTYPE svg PUBLIC "-//W3C//DTD SVG 1.1//EN" "http://www.w3.org/Graphics/SVG/1.1/DTD/svg11.dtd">
<svg version="1.1" xmlns="http://www.w3.org/2000/svg" xmlns:xlink="http://www.w3.org/1999/xlink" x="0px" y="0px" width="1165px"
	 height="800px" viewBox="0 0 1165 800" enable-background="new 0 0 1165 800" xml:space="preserve">
<g id="background">
	<polyline fill="#EDD1A9" points="0,800 0,0 1165,0 1165,800 	"/>
</g>
<g id="objects">
	<g>
		<polygon fill="#D5E6DB" points="712.591,270.144 694.588,233.399 824.346,176.45 		"/>
		<polygon fill="#6F9AAC" points="822.586,177.531 712.591,270.144 727.243,245.143 		"/>
		<polygon fill="#FFFFFF" points="824.346,176.45 727.243,245.143 764.112,261.453 		"/>
		<polygon fill="#FFFFFF" points="694.588,233.399 660.021,222.433 824.346,176.45 		"/>
	</g>
	<path fill="none" stroke="#FFFFFF" stroke-width="2" stroke-miterlimit="10" stroke-dasharray="5" d="M169.11,634.079
		c39.142-0.12,91.175-22.192,101.619-64.574c4.214-17.104,0.468-35.43-13.088-47.912c-17.131-15.775-35.94-1.36-31.312,20.657
		c7.603,36.168,51.777,62.952,85.352,63.33c19.405,0.219,37.61-9.086,44.586-28.101c11.132-30.344-8.497-49.836-23.738-73.901
		c-18.951-29.919-65.475-84.67-40.819-121.676c17.306-25.973,59.86-24.434,85.235-13.785c29.836,12.522,53.833,38.654,67.307,67.707
		C464.276,479,455.647,530.18,494.403,565.47c16.713,15.219,36.77,15.59,53.986,0.676c15.666-13.571,15.146-33.168,16.416-52.084
		c1.714-25.538,1.71-51.291,0.285-76.841c-1.367-24.514-18.335-47.56-44.519-49.392c-6.797-0.475-14.387,3-16.335,9.529
		c-1.47,4.923,0.61,10.356,4.032,14.191c24.916,27.929,57.479,17.134,78.841-8.768c19.228-23.314,31.05-54.679,24.398-84.943
		c-2.143-9.752-6.524-24.461,5.68-30.027c8.963-4.087,19.596,3.555,24.617,10.484c11.286,15.574,24.409,43.542,45.983,20.287
		c5.48-5.908,8.737-13.5,11.617-21.027c3.41-8.911,6.753-18.914,12.479-26.641"/>
</g>
</svg>
