<?xml version="1.0" encoding="utf-8"?>
<!-- Generator: Adobe Illustrator 16.0.3, SVG Export Plug-In . SVG Version: 6.00 Build 0)  -->
<!DOCTYPE svg PUBLIC "-//W3C//DTD SVG 1.1//EN" "http://www.w3.org/Graphics/SVG/1.1/DTD/svg11.dtd">
<svg version="1.1" xmlns="http://www.w3.org/2000/svg" xmlns:xlink="http://www.w3.org/1999/xlink" x="0px" y="0px" width="1400px"
	 height="800px" viewBox="0 0 1400 800" enable-background="new 0 0 1400 800" xml:space="preserve">
<g id="Background">
	<rect fill="#FFFFEA" width="1400" height="800"/>
</g>
<g id="Objects">
	<g>
		<g>
			<path opacity="0.2" fill="#FFB53A" d="M91.005,647.501c-31.394,0-61.606,0.28-89.895,0.796v30.408
				c28.289,0.516,58.501,0.796,89.895,0.796c159.106,0,288.086-7.163,288.086-16S250.111,647.501,91.005,647.501z"/>
			<g>
				<g>
					<g>
						<path fill="#27C2A3" d="M756.528,665.276c-1.756,0.741-3.311,1.643-4.671,2.777c0.179-2.109,0.134-4.248,0.252-6.364
							c0.017-0.279,0.045-0.556,0.066-0.832c-0.406-0.214-0.755-0.547-0.951-1.04c-0.532-1.341-0.92-2.728-1.146-4.131
							c-1.754,5.008-2.012,11.032-1.11,15.627c-0.075,0.116,1.215,0.938,1.393,0.914c3.39,2.211,6.76,1.994,10.385-0.171
							c3.323-1.985,7.713-6.291,8.655-10.16C769.522,661.396,760.354,663.661,756.528,665.276z"/>
						<path fill="#FFB53A" d="M752.176,660.857c0.965,0.508,2.296,0.274,2.999-0.648c1.495-1.962,1.994-4.51,2.008-6.928
							c0-0.456-0.008-0.947-0.026-1.448c2.143,0.917,4.533,1.323,6.829,1.262c1.521-0.043,3.313-1.267,2.811-3.056
							c-0.702-2.487-1.846-4.537-4.25-5.706c-0.157-0.078-0.325-0.141-0.488-0.208c1.266-0.863,2.197-2.103,2.522-4.152
							c0.259-1.629-1.494-3.229-3.089-2.841c-1.408,0.34-3.015,0.913-4.571,1.673c0.613-1.838,0.527-3.833,0.109-5.706
							c-0.323-1.451-2.148-2.351-3.37-1.257c-1.945,1.743-3.121,3.772-3.533,6.355c-0.196,1.225-0.218,2.703-0.066,4.131
							c-0.936-3.822-3.408-6.552-8.219-7.337c-1.402-0.229-2.62,1.248-2.364,2.575c0.612,3.181,2.18,6.41,4.639,8.475
							c-1.896,0.468-3.709,1.293-5.334,2.49c-1.043,0.77-1.146,2.407-0.342,3.371c0.976,1.167,1.734,1.957,3.345,1.964
							c1.624,0.007,3.143-0.396,4.661-0.938c1.212-0.431,2.413-1.109,3.52-1.941c-0.189,1.565-0.137,3.143,0.113,4.699
							c0.227,1.403,0.614,2.79,1.146,4.131C751.421,660.311,751.77,660.644,752.176,660.857z M750.205,648.934
							c-0.22-0.336-0.354-0.718-0.334-1.181c0.023-0.554,0.266-1.09,0.669-1.471c0.01-0.007,0.017-0.015,0.025-0.021
							c0.029-0.027,0.067-0.044,0.097-0.071c0.462-0.627,1.186-1.076,2.165-1.109c3.533-0.119,3.291,5.357-0.228,5.477
							C751.287,650.601,750.501,649.869,750.205,648.934z"/>
						<path fill="#E65F5B" d="M752.827,645.08c-0.979,0.033-1.703,0.482-2.165,1.109c-0.029,0.027-0.067,0.044-0.097,0.071
							c-0.009,0.007-0.016,0.015-0.025,0.021c-0.403,0.381-0.646,0.917-0.669,1.471c-0.02,0.463,0.114,0.845,0.334,1.181
							c0.296,0.936,1.082,1.667,2.395,1.623C756.118,650.438,756.36,644.961,752.827,645.08z"/>
					</g>
					<g>
						<path fill="#27C2A3" d="M404.6,661.896c0.942,3.869,5.332,8.175,8.655,10.16c3.625,2.165,6.995,2.382,10.385,0.171
							c0.178,0.023,1.468-0.798,1.393-0.914c0.901-4.595,0.644-10.619-1.11-15.627c-0.227,1.403-0.614,2.79-1.146,4.131
							c-0.196,0.493-0.545,0.826-0.951,1.04c0.021,0.276,0.05,0.553,0.066,0.832c0.118,2.116,0.073,4.255,0.252,6.364
							c-1.36-1.135-2.915-2.036-4.671-2.777C413.646,663.661,404.478,661.396,404.6,661.896z"/>
						<path fill="#FFB53A" d="M422.775,659.817c0.532-1.341,0.92-2.728,1.146-4.131c0.25-1.557,0.303-3.134,0.113-4.699
							c1.106,0.832,2.308,1.511,3.52,1.941c1.519,0.542,3.037,0.944,4.661,0.938c1.61-0.007,2.369-0.797,3.345-1.964
							c0.805-0.964,0.701-2.602-0.342-3.371c-1.625-1.197-3.438-2.022-5.334-2.49c2.459-2.064,4.026-5.294,4.639-8.475
							c0.256-1.327-0.962-2.804-2.364-2.575c-4.811,0.785-7.283,3.515-8.219,7.337c0.151-1.428,0.13-2.906-0.066-4.131
							c-0.412-2.583-1.588-4.612-3.533-6.355c-1.222-1.094-3.047-0.194-3.37,1.257c-0.418,1.873-0.504,3.868,0.109,5.706
							c-1.557-0.76-3.163-1.333-4.571-1.673c-1.595-0.388-3.348,1.212-3.089,2.841c0.325,2.05,1.257,3.289,2.522,4.152
							c-0.163,0.067-0.331,0.13-0.488,0.208c-2.404,1.169-3.548,3.219-4.25,5.706c-0.503,1.789,1.29,3.013,2.811,3.056
							c2.296,0.062,4.687-0.345,6.829-1.262c-0.019,0.501-0.026,0.992-0.026,1.448c0.014,2.418,0.513,4.966,2.008,6.928
							c0.703,0.923,2.034,1.156,2.999,0.648C422.23,660.644,422.579,660.311,422.775,659.817z M421.4,650.557
							c-3.519-0.119-3.761-5.596-0.228-5.477c0.979,0.033,1.703,0.482,2.165,1.109c0.029,0.027,0.067,0.044,0.097,0.071
							c0.009,0.007,0.016,0.015,0.025,0.021c0.403,0.381,0.646,0.917,0.669,1.471c0.02,0.463-0.114,0.845-0.334,1.181
							C423.499,649.869,422.713,650.601,421.4,650.557z"/>
						<path fill="#E65F5B" d="M421.173,645.08c0.979,0.033,1.703,0.482,2.165,1.109c0.029,0.027,0.067,0.044,0.097,0.071
							c0.009,0.007,0.016,0.015,0.025,0.021c0.403,0.381,0.646,0.917,0.669,1.471c0.02,0.463-0.114,0.845-0.334,1.181
							c-0.296,0.936-1.082,1.667-2.395,1.623C417.882,650.438,417.64,644.961,421.173,645.08z"/>
					</g>
				</g>
				<rect x="439.501" y="636.5" fill="none" width="294.998" height="52.004"/>
			</g>
			<g>
				<g>
					<path fill="#27C2A3" d="M365.562,433.604c0.132-0.017,0.266-0.044,0.401-0.073c-0.003-0.04-0.006-0.081-0.01-0.121
						C365.825,433.479,365.694,433.543,365.562,433.604z"/>
					<path fill="#27C2A3" d="M363.263,430.448c-0.941-0.733-1.692-1.709-2.054-2.813c-0.968,0.002-1.981,0.31-2.777,0.736
						c-0.841,0.451-0.78,1.594,0.196,1.829c1.065,0.256,1.872,1.051,2.684,1.781c0.094-0.185,0.233-0.361,0.423-0.518
						C362.18,431.1,362.702,430.75,363.263,430.448z"/>
					<path fill="#27C2A3" d="M378.083,432.093c0.326-0.44-0.12-1.08-0.585-0.934c-0.067-0.076-0.15-0.141-0.256-0.175
						c-0.982-0.313-2.194-0.252-3.327-0.189c-0.433,0.171-0.872,0.322-1.32,0.451c0.335,0.494,0.602,1.04,0.774,1.626
						c0.266,0.893-0.36,1.65-1.281,1.592c-0.733-0.047-1.44-0.194-2.055-0.455c-0.054,0.211-0.109,0.419-0.164,0.628
						c0.686,0.257,1.371,0.44,1.992,0.531C374.407,435.546,376.625,434.058,378.083,432.093z"/>
					<path fill="#FFC274" d="M372.087,434.464c0.921,0.059,1.547-0.699,1.281-1.592c-0.172-0.586-0.438-1.132-0.774-1.626
						c0.448-0.129,0.888-0.28,1.32-0.451c0.954-0.377,1.871-0.854,2.75-1.443c0.987-0.661,0.523-2.154-0.563-2.354
						c-1.438-0.261-2.916,0.137-4.302,0.501c-0.152,0.041-0.31,0.081-0.468,0.123c1.25-1.274,2.145-2.953,2.484-4.57
						c0.195-0.935-0.734-1.906-1.678-1.748c-1.423,0.238-2.699,0.936-3.745,1.906c0.007-0.096,0.014-0.191,0.021-0.286
						c0.093-1.171-1.213-2.209-2.267-1.39c-1.464,1.141-2.113,2.656-2.18,4.249c-0.123-0.14-0.246-0.279-0.369-0.42
						c-0.965-1.097-2.684-0.513-2.625,1.003c0.018,0.438,0.103,0.86,0.237,1.269c0.362,1.104,1.113,2.08,2.054,2.813
						c-0.561,0.302-1.083,0.651-1.527,1.016c-0.19,0.156-0.329,0.333-0.423,0.518c-0.405,0.802,0.045,1.78,1.034,2.03
						c1.093,0.276,2.21,0.059,3.214-0.408c0.133-0.061,0.263-0.125,0.392-0.194c0.003,0.04,0.006,0.081,0.01,0.121
						c0.002,0.025,0.003,0.051,0.006,0.077c0.066,0.586,0.247,1.172,0.477,1.712c0.32,0.749,1.025,0.861,1.742,0.937
						c0.797,0.083,1.365-0.396,1.557-1.146c0.04-0.156,0.082-0.315,0.125-0.474c0.055-0.209,0.11-0.417,0.164-0.628
						C370.647,434.27,371.354,434.417,372.087,434.464z M367.401,428.305c0.06,0.091,0.112,0.183,0.158,0.278
						c0.022-0.026,0.044-0.053,0.066-0.079c0.004-0.01,0.005-0.02,0.012-0.031c0.086-0.174,0.262-0.348,0.448-0.427
						c0.526-0.328,1.289,0.367,0.979,0.938c-0.04,0.071-0.081,0.14-0.12,0.21c0.063,0.255-0.017,0.467-0.147,0.677
						c0.157-0.022,0.466,0.048,0.625,0.051c0.011-0.002,0.18,0.079,0.184,0.079h0.001c0.014,0-0.09-0.084-0.056-0.084
						c0.408,0.031,0.319,0.68-0.092,0.683c-0.492,0.035-0.97,0.29-1.47,0.288c-0.14,0-0.299-0.07-0.395-0.167
						c-0.024-0.007-0.054-0.023-0.078-0.032c-0.01,0.005-0.027,0.006-0.039,0.01c-0.2,0.146-0.482,0.193-0.72,0.103
						c-0.605-0.232-0.823-0.938-1.179-1.424c-0.35-0.478,0.094-0.982,0.567-0.944C366.321,427.907,367.115,427.871,367.401,428.305z
						"/>
					<path fill="#FFFFEA" d="M365.578,429.374c0.356,0.486,0.573,1.192,1.179,1.425c0.237,0.091,0.516,0.041,0.717-0.104
						c0.011-0.003,0.022-0.006,0.034-0.011c0.022,0.009,0.045,0.019,0.068,0.025c0.097,0.096,0.236,0.158,0.376,0.158
						c0.5,0.001,0.94-0.275,1.432-0.31c0.412-0.003,0.576-0.61,0.168-0.642c-0.034,0,0.069,0.084,0.056,0.084h-0.001
						c-0.004,0-0.173-0.081-0.184-0.079c-0.158-0.003-0.392-0.032-0.548-0.011c0.13-0.21,0.171-0.441,0.108-0.695
						c0.04-0.07,0.062-0.149,0.101-0.22c0.31-0.571-0.46-1.273-0.987-0.945c-0.186,0.08-0.366,0.252-0.453,0.425
						c-0.007,0.012-0.011,0.021-0.015,0.03c-0.022,0.026-0.044,0.052-0.067,0.078c-0.046-0.095-0.098-0.188-0.159-0.278
						c-0.286-0.433-1.082-0.397-1.257,0.127C365.672,428.393,365.228,428.896,365.578,429.374z"/>
				</g>
				<g>
					<path fill="#27C2A3" d="M506.07,379.714c0.214-0.084,0.425-0.187,0.638-0.291c-0.022-0.067-0.045-0.135-0.067-0.201
						C506.456,379.392,506.265,379.556,506.07,379.714z"/>
					<path fill="#27C2A3" d="M500.896,375.419c-1.882-0.824-3.548-2.136-4.621-3.826c-1.614,0.412-3.177,1.357-4.324,2.406
						c-1.212,1.109-0.627,2.991,1.104,2.97c1.888-0.023,3.568,0.963,5.235,1.837c0.078-0.35,0.236-0.703,0.486-1.043
						C499.363,376.966,500.087,376.161,500.896,375.419z"/>
					<path fill="#27C2A3" d="M526.333,371.886c0.357-0.872-0.657-1.752-1.372-1.31c-0.145-0.099-0.309-0.172-0.501-0.184
						c-1.774-0.106-3.771,0.509-5.634,1.092c-0.65,0.469-1.32,0.91-2.014,1.314c0.771,0.683,1.444,1.481,1.982,2.386
						c0.819,1.381,0.095,2.91-1.467,3.202c-1.243,0.232-2.486,0.284-3.622,0.109c0,0.376-0.004,0.747-0.009,1.121
						c1.254,0.138,2.476,0.153,3.551,0.043C521.658,379.209,524.732,375.785,526.333,371.886z"/>
					<path fill="#FFC274" d="M517.328,378.386c1.562-0.292,2.286-1.821,1.467-3.202c-0.538-0.905-1.212-1.704-1.982-2.386
						c0.693-0.404,1.363-0.845,2.014-1.314c1.432-1.032,2.761-2.218,3.979-3.573c1.367-1.521-0.041-3.818-1.939-3.689
						c-2.51,0.171-4.809,1.462-6.968,2.657c-0.238,0.133-0.484,0.268-0.73,0.406c1.548-2.658,2.331-5.84,2.212-8.683
						c-0.07-1.644-2.033-2.874-3.541-2.209c-2.275,1.001-4.11,2.706-5.445,4.771c-0.028-0.164-0.059-0.326-0.086-0.488
						c-0.342-1.993-2.961-3.174-4.373-1.359c-1.962,2.524-2.405,5.332-1.841,8.018c-0.265-0.181-0.529-0.363-0.795-0.545
						c-2.077-1.421-4.697,0.281-3.955,2.787c0.214,0.722,0.535,1.394,0.932,2.017c1.073,1.69,2.739,3.002,4.621,3.826
						c-0.809,0.742-1.532,1.547-2.12,2.344c-0.25,0.34-0.408,0.693-0.486,1.043c-0.336,1.51,0.831,2.954,2.586,2.951
						c1.941-0.001,3.717-0.839,5.195-2.043c0.194-0.158,0.386-0.322,0.57-0.492c0.022,0.066,0.045,0.133,0.067,0.201
						c0.013,0.042,0.026,0.083,0.042,0.126c0.359,0.948,0.91,1.85,1.522,2.653c0.851,1.116,2.076,1.005,3.306,0.827
						c1.364-0.197,2.11-1.24,2.112-2.571c0-0.277,0.003-0.562,0.007-0.842c0.005-0.374,0.009-0.745,0.009-1.121
						C514.842,378.67,516.085,378.618,517.328,378.386z M506.896,370.086c0.139,0.127,0.264,0.26,0.382,0.399
						c0.025-0.053,0.05-0.106,0.076-0.159c0.003-0.02,0.002-0.038,0.007-0.058c0.072-0.328,0.291-0.691,0.566-0.903
						c0.74-0.771,2.307,0.067,2.031,1.152c-0.034,0.134-0.074,0.266-0.109,0.4c0.212,0.4,0.169,0.786,0.041,1.191
						c0.252-0.104,0.511-0.19,0.778-0.253c0.017-0.008,0.034-0.013,0.052-0.02c0.001,0.002,0.001,0.003,0.002,0.005
						c0.053-0.012,0.102-0.033,0.156-0.042c0.695-0.121,0.967,1.032,0.28,1.21c-0.807,0.267-1.424,0.916-2.259,1.125
						c-0.235,0.059-0.492,0.014-0.695-0.105c-0.041-0.003-0.083-0.01-0.125-0.013c-0.017,0.012-0.035,0.021-0.052,0.033
						c-0.272,0.327-0.719,0.53-1.153,0.478c-1.108-0.133-1.77-1.219-2.57-1.88c-0.787-0.649-0.258-1.677,0.548-1.815
						C504.924,369.882,506.234,369.486,506.896,370.086z"/>
					<path fill="#FFFFEA" d="M504.304,372.646c0.801,0.661,1.462,1.747,2.57,1.88c0.435,0.052,0.881-0.151,1.153-0.478
						c0.017-0.012,0.035-0.021,0.052-0.033c0.042,0.003,0.084,0.01,0.125,0.013c0.203,0.119,0.46,0.164,0.695,0.105
						c0.835-0.209,1.452-0.857,2.259-1.125c0.687-0.178,0.415-1.331-0.28-1.21c-0.055,0.009-0.104,0.03-0.156,0.042
						c-0.001-0.002-0.001-0.003-0.002-0.005c-0.018,0.007-0.035,0.012-0.052,0.02c-0.268,0.063-0.526,0.149-0.778,0.253
						c0.128-0.405,0.171-0.791-0.041-1.191c0.035-0.134,0.075-0.266,0.109-0.4c0.275-1.085-1.291-1.923-2.031-1.152
						c-0.275,0.211-0.494,0.575-0.566,0.903c-0.005,0.02-0.004,0.039-0.007,0.058c-0.026,0.053-0.051,0.105-0.076,0.159
						c-0.118-0.139-0.243-0.272-0.382-0.399c-0.661-0.601-1.972-0.204-2.044,0.745C504.046,370.969,503.517,371.998,504.304,372.646
						z"/>
				</g>
				<g>
					<path fill="#454C53" d="M465.91,442.991c2.023,2.245,3.963,6.034,3.682,9.305c0.016-0.019,0.034-0.034,0.05-0.053
						c0.518-0.582,0.68-1.274,0.598-1.964c0.355-0.256,0.677-0.55,0.925-0.923c0.865-1.295,0.855-3.378-0.876-4.039
						c-0.406-0.156-0.811-0.3-1.216-0.439c-0.031-0.425-0.146-0.841-0.347-1.204c-0.131-0.244-0.299-0.461-0.493-0.646
						c0.204-0.151,0.406-0.306,0.613-0.453c1.554-1.104,0.843-3.108-0.768-3.614c-1.646-0.517-3.209-0.021-4.732,0.609
						c-0.12-0.028-0.23-0.055-0.348-0.083c-0.271,0.28-0.546,0.559-0.828,0.832C463.571,440.937,464.865,441.831,465.91,442.991z"/>
					<path fill="#E65F5B" d="M449.839,442.476c-0.4,1.117-0.638,2.317-0.697,3.53c0.029-0.068,0.067-0.13,0.092-0.2
						C449.593,444.77,449.761,443.619,449.839,442.476z"/>
					<path fill="#E65F5B" d="M452.442,446.823c-0.085,0.316-0.204,0.674-0.349,1.047c2.694,1.57,4.23,4.348,5.373,7.272
						c1.204,0.435,1.547,2.03,0.888,2.995c2.99,0.463,6.038,0.112,8.267-1.183c1.958-1.14,2.813-2.817,2.971-4.659
						c0.281-3.271-1.658-7.06-3.682-9.305c-1.045-1.16-2.339-2.055-3.74-2.672c0.282-0.273,0.558-0.552,0.828-0.832
						c0.948-0.976,1.827-1.977,2.618-2.953c0.563-0.695,0.158-1.564-0.506-1.818c-0.106-0.108-0.243-0.191-0.437-0.21
						c-4.931-0.494-10.052,1.715-13.313,5.421C452.634,442.084,453.099,444.346,452.442,446.823z"/>
					<path fill="#27C2A3" d="M457.467,455.143c-1.143-2.925-2.679-5.702-5.373-7.272c0.145-0.373,0.264-0.73,0.349-1.047
						c0.656-2.478,0.191-4.739-1.081-6.896c-0.028-0.047-0.051-0.095-0.08-0.144c-0.003-0.006-0.009-0.008-0.012-0.013
						c0.262-0.381-0.174-0.868-0.582-0.611c-4.032,2.535-5.384,6.855-4.694,10.812c-0.339,0.211-0.662,0.454-0.96,0.676
						c-0.531,0.393-1.037,0.73-1.564,1.006c-0.947,0.165-1.877,0.446-2.769,0.818c-1.65,0.689-1.266,3.467,0.672,3.194
						c0.714-0.101,1.489-0.324,2.254-0.651c0.929-0.188,1.868-0.221,2.875-0.057c0.671,0.11,1.416,0.43,2.144,0.584
						c1.938,2.188,4.789,3.588,8.321,3.349c0.654-0.044,1.11-0.343,1.389-0.752C459.014,457.173,458.671,455.577,457.467,455.143z"
						/>
				</g>
				<g>
					<path fill="#27C2A3" d="M649.563,254.389c0.124-0.193,0.235-0.4,0.347-0.609c-0.058-0.042-0.115-0.083-0.172-0.123
						C649.688,253.902,649.629,254.146,649.563,254.389z"/>
					<path fill="#27C2A3" d="M642.854,253.934c-2.009,0.433-4.127,0.344-5.986-0.398c-1.068,1.278-1.782,2.959-2.099,4.481
						c-0.334,1.609,1.242,2.792,2.633,1.762c1.517-1.123,3.457-1.308,5.32-1.574c-0.142-0.329-0.22-0.708-0.216-1.13
						C642.518,256.085,642.633,255.009,642.854,253.934z"/>
					<path fill="#27C2A3" d="M661.413,236.183c-0.221-0.916-1.559-1.037-1.88-0.259c-0.175,0.005-0.351,0.041-0.514,0.145
						c-1.501,0.952-2.759,2.619-3.929,4.182c-0.253,0.762-0.538,1.511-0.864,2.245c1.024,0.103,2.038,0.355,3.004,0.775
						c1.473,0.64,1.78,2.304,0.685,3.454c-0.872,0.916-1.85,1.686-2.873,2.208c0.22,0.305,0.434,0.608,0.648,0.914
						c1.098-0.623,2.097-1.325,2.904-2.043C661.908,244.856,662.396,240.281,661.413,236.183z"/>
					<path fill="#FFC274" d="M657.915,246.723c1.096-1.15,0.788-2.814-0.685-3.454c-0.966-0.419-1.979-0.672-3.004-0.775
						c0.326-0.734,0.611-1.483,0.864-2.245c0.557-1.674,0.94-3.414,1.135-5.225c0.219-2.034-2.268-3.073-3.731-1.856
						c-1.935,1.607-3.043,4-4.095,6.232c-0.116,0.247-0.236,0.5-0.355,0.757c-0.3-3.062-1.527-6.101-3.288-8.335
						c-1.019-1.292-3.33-1.14-4.164,0.281c-1.259,2.144-1.749,4.599-1.623,7.054c-0.119-0.115-0.238-0.229-0.355-0.345
						c-1.443-1.416-4.259-0.841-4.342,1.457c-0.113,3.195,1.171,5.731,3.2,7.579c-0.32,0.008-0.642,0.015-0.964,0.023
						c-2.516,0.063-3.644,2.977-1.576,4.574c0.597,0.46,1.25,0.816,1.937,1.09c1.859,0.742,3.978,0.831,5.986,0.398
						c-0.222,1.075-0.337,2.151-0.348,3.141c-0.004,0.422,0.074,0.801,0.216,1.13c0.611,1.421,2.402,1.909,3.824,0.88
						c1.573-1.138,2.522-2.855,3.017-4.697c0.065-0.242,0.125-0.487,0.175-0.732c0.057,0.041,0.114,0.082,0.172,0.123
						c0.035,0.026,0.07,0.053,0.108,0.078c0.846,0.559,1.82,0.967,2.787,1.26c1.343,0.407,2.271-0.399,3.164-1.264
						c0.991-0.958,0.985-2.241,0.208-3.321c-0.162-0.225-0.326-0.458-0.487-0.687c-0.215-0.306-0.429-0.609-0.648-0.914
						C656.065,248.409,657.043,247.639,657.915,246.723z M644.599,246.099c0.187,0.021,0.366,0.056,0.543,0.1
						c-0.011-0.058-0.021-0.115-0.031-0.173c-0.009-0.018-0.021-0.032-0.028-0.051c-0.133-0.308-0.169-0.731-0.069-1.063
						c0.149-1.059,1.91-1.296,2.321-0.255c0.051,0.129,0.096,0.259,0.146,0.389c0.406,0.2,0.597,0.539,0.73,0.942
						c0.144-0.232,0.303-0.453,0.482-0.661c0.01-0.016,0.021-0.03,0.03-0.046c0.002,0.001,0.003,0.002,0.005,0.003
						c0.036-0.04,0.063-0.086,0.103-0.125c0.493-0.505,1.388,0.271,0.936,0.817c-0.498,0.689-0.619,1.576-1.174,2.234
						c-0.156,0.185-0.391,0.3-0.625,0.322c-0.035,0.022-0.073,0.041-0.109,0.063c-0.006,0.02-0.016,0.038-0.022,0.058
						c-0.029,0.424-0.272,0.85-0.655,1.062c-0.977,0.542-2.148,0.048-3.185-0.02c-1.018-0.066-1.19-1.209-0.618-1.792
						C642.88,247.087,643.711,245.999,644.599,246.099z"/>
					<path fill="#FFFFEA" d="M643.995,249.692c1.036,0.067,2.208,0.561,3.185,0.02c0.383-0.212,0.626-0.638,0.655-1.062
						c0.007-0.02,0.017-0.038,0.022-0.058c0.036-0.021,0.074-0.041,0.109-0.063c0.234-0.022,0.469-0.137,0.625-0.322
						c0.555-0.658,0.676-1.545,1.174-2.234c0.452-0.546-0.442-1.322-0.936-0.817c-0.039,0.039-0.066,0.085-0.103,0.125
						c-0.002-0.001-0.003-0.002-0.005-0.003c-0.01,0.016-0.021,0.03-0.03,0.046c-0.18,0.208-0.339,0.429-0.482,0.661
						c-0.134-0.403-0.324-0.742-0.73-0.942c-0.05-0.129-0.095-0.259-0.146-0.389c-0.411-1.041-2.172-0.804-2.321,0.255
						c-0.1,0.333-0.063,0.755,0.069,1.063c0.008,0.019,0.02,0.034,0.028,0.051c0.01,0.058,0.021,0.115,0.031,0.173
						c-0.177-0.044-0.356-0.079-0.543-0.1c-0.888-0.1-1.719,0.988-1.222,1.8C642.805,248.482,642.978,249.626,643.995,249.692z"/>
				</g>
				<g>
					<path fill="#27C2A3" d="M769.218,271.675c0.16-0.034,0.321-0.081,0.483-0.13c-0.008-0.05-0.016-0.1-0.023-0.148
						C769.527,271.494,769.373,271.587,769.218,271.675z"/>
					<path fill="#27C2A3" d="M766.085,268.033c-1.227-0.805-2.244-1.928-2.799-3.246c-1.186,0.098-2.399,0.576-3.332,1.179
						c-0.986,0.637-0.798,2.032,0.423,2.223c1.332,0.208,2.398,1.104,3.469,1.918c0.096-0.237,0.25-0.467,0.467-0.677
						C764.822,268.94,765.427,268.458,766.085,268.033z"/>
					<path fill="#27C2A3" d="M784.423,268.578c0.356-0.571-0.254-1.313-0.811-1.086c-0.09-0.087-0.196-0.158-0.331-0.189
						c-1.236-0.287-2.716-0.091-4.098,0.097c-0.515,0.253-1.038,0.484-1.575,0.686c0.461,0.573,0.841,1.215,1.111,1.917
						c0.413,1.071-0.279,2.062-1.414,2.08c-0.903,0.015-1.785-0.096-2.564-0.355c-0.045,0.265-0.092,0.526-0.14,0.789
						c0.867,0.247,1.726,0.403,2.495,0.453C780.257,273.178,782.83,271.133,784.423,268.578z"/>
					<path fill="#FFC274" d="M777.306,272.082c1.135-0.019,1.827-1.009,1.414-2.08c-0.271-0.702-0.65-1.344-1.111-1.917
						c0.537-0.202,1.061-0.432,1.575-0.686c1.131-0.556,2.209-1.233,3.228-2.042c1.146-0.909,0.428-2.694-0.925-2.829
						c-1.788-0.179-3.562,0.457-5.226,1.04c-0.184,0.064-0.372,0.131-0.563,0.199c1.408-1.688,2.34-3.836,2.594-5.852
						c0.147-1.166-1.089-2.267-2.23-1.978c-1.722,0.434-3.217,1.416-4.403,2.71c-0.001-0.118-0.003-0.237-0.003-0.354
						c-0.003-1.445-1.707-2.589-2.918-1.479c-1.683,1.544-2.33,3.469-2.252,5.428c-0.165-0.16-0.33-0.319-0.495-0.479
						c-1.294-1.249-3.343-0.362-3.118,1.491c0.064,0.534,0.211,1.045,0.415,1.532c0.555,1.318,1.572,2.441,2.799,3.246
						c-0.658,0.426-1.263,0.907-1.772,1.397c-0.217,0.21-0.371,0.44-0.467,0.677c-0.417,1.023,0.232,2.18,1.469,2.387
						c1.368,0.23,2.719-0.147,3.903-0.819c0.155-0.088,0.31-0.181,0.46-0.278c0.008,0.049,0.016,0.099,0.023,0.148
						c0.005,0.031,0.009,0.063,0.015,0.095c0.14,0.71,0.421,1.411,0.757,2.051c0.465,0.887,1.342,0.955,2.229,0.976
						c0.985,0.024,1.635-0.622,1.795-1.559c0.033-0.195,0.069-0.395,0.105-0.592c0.048-0.262,0.095-0.524,0.14-0.789
						C775.521,271.985,776.402,272.097,777.306,272.082z M770.947,264.992c0.082,0.106,0.154,0.214,0.221,0.327
						c0.023-0.035,0.049-0.068,0.073-0.103c0.004-0.014,0.005-0.027,0.012-0.041c0.09-0.222,0.287-0.452,0.506-0.568
						c0.614-0.455,1.617,0.322,1.294,1.053c-0.041,0.091-0.084,0.179-0.125,0.269c0.102,0.308,0.025,0.574-0.113,0.844
						c0.19-0.043,0.166-0.073,0.362-0.086c0.014-0.003-0.177-0.005-0.177-0.008c0,0.001,0,0.002,0,0.003
						c0-0.001,0.291-0.011,0.33-0.011c0.506-0.002,0.667,0.843,0.163,0.886c-0.602,0.091-1.059,0.475-1.671,0.522
						c-0.173,0.013-0.322-0.049-0.451-0.157c-0.028-0.007-0.044-0.017-0.072-0.024c-0.014,0.007-0.021,0.012-0.034,0.017
						c-0.23,0.198-0.565,0.287-0.866,0.199c-0.764-0.226-1.099-1.069-1.584-1.63c-0.478-0.551,0.02-1.212,0.604-1.213
						C769.581,264.613,770.553,264.491,770.947,264.992z"/>
					<path fill="#FFFFEA" d="M768.816,266.486c0.485,0.562,0.821,1.405,1.586,1.63c0.3,0.088,0.639-0.001,0.869-0.199
						c0.014-0.005,0.027-0.01,0.041-0.017c0.028,0.007,0.058,0.017,0.086,0.024c0.129,0.108,0.305,0.17,0.478,0.157
						c0.612-0.047,1.124-0.431,1.726-0.522c0.504-0.043,0.234-0.888-0.271-0.886c-0.039,0-0.33,0.009-0.33,0.011
						c0-0.001,0-0.002,0-0.003c0,0.003,0.19,0.004,0.177,0.008c-0.196,0.013-0.28,0.043-0.47,0.086
						c0.139-0.271,0.269-0.537,0.167-0.844c0.041-0.09,0.11-0.178,0.151-0.269c0.323-0.731-0.666-1.508-1.28-1.053
						c-0.219,0.116-0.409,0.347-0.499,0.568c-0.007,0.013-0.004,0.027-0.008,0.041c-0.024,0.034-0.049,0.068-0.072,0.103
						c-0.066-0.112-0.138-0.22-0.22-0.327c-0.395-0.501-1.364-0.379-1.527,0.281C768.835,265.274,768.339,265.935,768.816,266.486z"
						/>
				</g>
				<g>
					<path fill="#27C2A3" d="M531.218,292.675c0.16-0.034,0.321-0.081,0.483-0.13c-0.008-0.05-0.016-0.1-0.023-0.148
						C531.527,292.494,531.373,292.587,531.218,292.675z"/>
					<path fill="#27C2A3" d="M528.085,289.033c-1.227-0.805-2.244-1.928-2.799-3.246c-1.186,0.098-2.399,0.576-3.332,1.179
						c-0.986,0.637-0.798,2.032,0.423,2.223c1.332,0.208,2.398,1.104,3.469,1.918c0.096-0.237,0.25-0.467,0.467-0.677
						C526.822,289.94,527.427,289.458,528.085,289.033z"/>
					<path fill="#27C2A3" d="M546.423,289.578c0.356-0.571-0.254-1.313-0.811-1.086c-0.09-0.087-0.196-0.158-0.331-0.189
						c-1.236-0.287-2.716-0.091-4.098,0.097c-0.515,0.253-1.038,0.484-1.575,0.686c0.461,0.573,0.841,1.215,1.111,1.917
						c0.413,1.071-0.279,2.062-1.414,2.08c-0.903,0.015-1.785-0.096-2.564-0.355c-0.045,0.265-0.092,0.526-0.14,0.789
						c0.867,0.247,1.726,0.403,2.495,0.453C542.257,294.178,544.83,292.133,546.423,289.578z"/>
					<path fill="#FFC274" d="M539.306,293.082c1.135-0.019,1.827-1.009,1.414-2.08c-0.271-0.702-0.65-1.344-1.111-1.917
						c0.537-0.202,1.061-0.432,1.575-0.686c1.131-0.556,2.209-1.233,3.228-2.042c1.146-0.909,0.428-2.694-0.925-2.829
						c-1.788-0.179-3.562,0.457-5.226,1.04c-0.184,0.064-0.372,0.131-0.563,0.199c1.408-1.688,2.34-3.836,2.594-5.852
						c0.147-1.166-1.089-2.267-2.23-1.978c-1.722,0.434-3.217,1.416-4.403,2.71c-0.001-0.118-0.003-0.237-0.003-0.354
						c-0.003-1.445-1.707-2.589-2.918-1.479c-1.683,1.544-2.33,3.469-2.252,5.428c-0.165-0.16-0.33-0.319-0.495-0.479
						c-1.294-1.249-3.343-0.362-3.118,1.491c0.064,0.534,0.211,1.045,0.415,1.532c0.555,1.318,1.572,2.441,2.799,3.246
						c-0.658,0.426-1.263,0.907-1.772,1.397c-0.217,0.21-0.371,0.44-0.467,0.677c-0.417,1.023,0.232,2.18,1.469,2.387
						c1.368,0.23,2.719-0.147,3.903-0.819c0.155-0.088,0.31-0.181,0.46-0.278c0.008,0.049,0.016,0.099,0.023,0.148
						c0.005,0.031,0.009,0.063,0.015,0.095c0.14,0.71,0.421,1.411,0.757,2.051c0.465,0.887,1.342,0.955,2.229,0.976
						c0.985,0.024,1.635-0.622,1.795-1.559c0.033-0.195,0.069-0.395,0.105-0.592c0.048-0.262,0.095-0.524,0.14-0.789
						C537.521,292.985,538.402,293.097,539.306,293.082z M532.947,285.992c0.082,0.106,0.154,0.214,0.221,0.327
						c0.023-0.035,0.049-0.068,0.073-0.103c0.004-0.014,0.005-0.027,0.012-0.041c0.09-0.222,0.287-0.452,0.506-0.568
						c0.614-0.455,1.617,0.322,1.294,1.053c-0.041,0.091-0.084,0.179-0.125,0.269c0.102,0.308,0.025,0.574-0.113,0.844
						c0.19-0.043,0.166-0.073,0.362-0.086c0.014-0.003-0.177-0.005-0.177-0.008c0,0.001,0,0.002,0,0.003
						c0-0.001,0.291-0.011,0.33-0.011c0.506-0.002,0.667,0.843,0.163,0.886c-0.602,0.091-1.059,0.475-1.671,0.522
						c-0.173,0.013-0.322-0.049-0.451-0.157c-0.028-0.007-0.044-0.017-0.072-0.024c-0.014,0.007-0.021,0.012-0.034,0.017
						c-0.23,0.198-0.565,0.287-0.866,0.199c-0.764-0.226-1.099-1.069-1.584-1.63c-0.478-0.551,0.02-1.212,0.604-1.213
						C531.581,285.613,532.553,285.491,532.947,285.992z"/>
					<path fill="#FFFFEA" d="M530.816,287.486c0.485,0.562,0.821,1.405,1.586,1.63c0.3,0.088,0.639-0.001,0.869-0.199
						c0.014-0.005,0.027-0.01,0.041-0.017c0.028,0.007,0.058,0.017,0.086,0.024c0.129,0.108,0.305,0.17,0.478,0.157
						c0.612-0.047,1.124-0.431,1.726-0.522c0.504-0.043,0.234-0.888-0.271-0.886c-0.039,0-0.33,0.009-0.33,0.011
						c0-0.001,0-0.002,0-0.003c0,0.003,0.19,0.004,0.177,0.008c-0.196,0.013-0.28,0.043-0.47,0.086
						c0.139-0.271,0.269-0.537,0.167-0.844c0.041-0.09,0.11-0.178,0.151-0.269c0.323-0.731-0.666-1.508-1.28-1.053
						c-0.219,0.116-0.409,0.347-0.499,0.568c-0.007,0.013-0.004,0.027-0.008,0.041c-0.024,0.034-0.049,0.068-0.072,0.103
						c-0.066-0.112-0.138-0.22-0.22-0.327c-0.395-0.501-1.364-0.379-1.527,0.281C530.835,286.274,530.339,286.935,530.816,287.486z"
						/>
				</g>
				<g>
					<path fill="#27C2A3" d="M569.803,322.234c-5.258-1.777-12.695,0.247-17.229,3.167c-0.81,0.521-0.349,1.904,0.627,1.782
						c2.619-0.325,5.027-1.466,7.516-2.294c2.926-0.975,5.861-1.328,8.904-1.652C570.104,323.186,570.331,322.413,569.803,322.234z"
						/>
					<path fill="#FFB53A" d="M576.273,329.424c0.129-1.159,0.138-2.531-0.009-3.917c1.221,0.97,2.754,1.452,4.286,1.651
						c1.186,0.155,2.368-0.979,1.876-2.203c-0.781-1.95-1.993-3.398-3.834-4.42c-0.874-0.486-1.985-0.909-3.106-1.188
						c3.148,0.344,5.893-0.775,7.809-4.197c0.561-0.999-0.223-2.326-1.296-2.497c-2.574-0.411-5.449-0.116-7.687,1.178
						c0.167-1.563,0.041-3.161-0.417-4.721c-0.295-0.999-1.505-1.527-2.454-1.184c-1.151,0.417-1.958,0.774-2.405,1.99
						c-0.452,1.227-0.567,2.485-0.574,3.783c-0.007,1.035,0.176,2.132,0.501,3.196c-2.152-1.09-4.577-1.55-7.024-1.475
						c-1.437,0.045-2.101,1.762-1.383,2.878c1.072,1.672,2.862,2.751,4.688,3.425c0.344,0.126,0.717,0.253,1.102,0.378
						c-1.283,1.368-2.248,3.065-2.833,4.817c-0.386,1.162,0.047,2.856,1.539,2.966c2.074,0.153,3.939-0.147,5.484-1.645
						c0.102-0.098,0.195-0.207,0.292-0.312c0.305,1.194,0.986,2.24,2.447,3.051C574.436,331.623,576.127,330.737,576.273,329.424z"
						/>
					<path fill="#E65F5B" d="M573.354,320.497c-0.315-0.723-0.866-1.13-1.473-1.289c-0.028-0.015-0.053-0.038-0.081-0.052
						c-0.009-0.004-0.018-0.009-0.025-0.013c-0.403-0.189-0.877-0.21-1.297-0.065c-0.354,0.124-0.599,0.337-0.784,0.601
						c-0.614,0.5-0.927,1.305-0.505,2.273C570.322,324.548,574.492,323.104,573.354,320.497z"/>
				</g>
				<g>
					<path fill="#27C2A3" d="M728.928,202.257c-5.278,1.717-10.032,7.784-11.923,12.834c-0.338,0.902,0.858,1.735,1.567,1.054
						c1.906-1.826,3.155-4.179,4.656-6.33c1.764-2.53,3.906-4.567,6.152-6.646C729.738,202.84,729.458,202.085,728.928,202.257z"/>
					<path fill="#FFB53A" d="M738.412,204.156c-0.589-1.006-1.402-2.112-2.348-3.136c1.559,0.048,3.076-0.481,4.424-1.237
						c1.043-0.583,1.314-2.199,0.188-2.887c-1.791-1.097-3.628-1.534-5.715-1.253c-0.991,0.132-2.136,0.457-3.2,0.904
						c2.729-1.605,4.262-4.143,3.754-8.031c-0.147-1.136-1.568-1.732-2.531-1.228c-2.31,1.208-4.438,3.163-5.46,5.537
						c-0.8-1.354-1.855-2.56-3.155-3.537c-0.833-0.625-2.119-0.325-2.675,0.517c-0.674,1.023-1.108,1.791-0.74,3.033
						c0.37,1.254,1.03,2.332,1.8,3.376c0.612,0.834,1.414,1.604,2.312,2.264c-2.377,0.412-4.597,1.492-6.515,3.014
						c-1.125,0.895-0.632,2.668,0.611,3.134c1.858,0.7,3.939,0.496,5.806-0.055c0.352-0.104,0.727-0.225,1.109-0.354
						c-0.211,1.864,0.029,3.801,0.606,5.555c0.385,1.162,1.745,2.263,3.007,1.459c1.755-1.116,3.071-2.472,3.415-4.596
						c0.022-0.139,0.033-0.282,0.048-0.424c0.958,0.775,2.129,1.207,3.785,0.984C738.252,207.018,739.079,205.297,738.412,204.156z"
						/>
					<path fill="#E65F5B" d="M730.737,198.742c-0.685-0.391-1.37-0.389-1.951-0.154c-0.031,0.005-0.064,0.001-0.096,0.007
						c-0.01,0.002-0.02,0.004-0.028,0.005c-0.437,0.089-0.829,0.355-1.078,0.723c-0.211,0.311-0.279,0.628-0.271,0.95
						c-0.193,0.768,0.036,1.6,0.954,2.125C730.727,203.802,733.208,200.153,730.737,198.742z"/>
				</g>
				<g>
					<path fill="#27C2A3" d="M191.375,501.895c-7.357,4.57-12.297,15.535-13.277,23.894c-0.176,1.492,1.947,2.309,2.768,1.013
						c2.207-3.478,3.222-7.51,4.693-11.329c1.729-4.491,4.215-8.378,6.843-12.364C192.82,502.474,192.113,501.435,191.375,501.895z"
						/>
					<path fill="#FFB53A" d="M206.454,501.232c-1.268-1.305-2.913-2.677-4.727-3.875c2.38-0.509,4.481-1.878,6.242-3.526
						c1.362-1.272,1.17-3.822-0.793-4.443c-3.123-0.995-6.069-0.972-9.127,0.232c-1.452,0.571-3.065,1.489-4.511,2.563
						c3.537-3.449,4.912-7.866,2.692-13.569c-0.647-1.663-3.022-2.039-4.293-0.915c-3.049,2.691-5.545,6.448-6.207,10.427
						c-1.717-1.752-3.766-3.187-6.101-4.182c-1.496-0.636-3.332,0.297-3.86,1.781c-0.64,1.8-1.011,3.126,0.009,4.871
						c1.029,1.762,2.432,3.148,3.987,4.444c1.239,1.036,2.741,1.902,4.346,2.568c-3.447,1.511-6.408,3.976-8.746,6.997
						c-1.371,1.775,0.038,4.278,2.095,4.521c3.077,0.366,6.154-0.719,8.777-2.248c0.494-0.291,1.016-0.614,1.548-0.954
						c0.375,2.904,1.462,5.751,2.991,8.192c1.017,1.617,3.488,2.777,5.101,1.089c2.242-2.346,3.731-4.892,3.46-8.237
						c-0.018-0.221-0.055-0.44-0.086-0.662c1.741,0.818,3.675,1.034,6.103,0.08C207.278,505.628,207.89,502.711,206.454,501.232z"/>
					<path fill="#E65F5B" d="M192.805,495.893c-1.184-0.339-2.221-0.079-3.014,0.493c-0.045,0.021-0.097,0.027-0.143,0.046
						c-0.014,0.01-0.028,0.014-0.041,0.02c-0.628,0.299-1.124,0.848-1.363,1.497c-0.204,0.55-0.189,1.057-0.056,1.541
						c-0.006,1.234,0.651,2.41,2.238,2.862C194.677,503.563,197.075,497.107,192.805,495.893z"/>
				</g>
				<g>
					<path fill="#27C2A3" d="M335.255,489.323c0.731-0.353,1.171-1.238,0.388-1.919c-2.896-2.517-5.089-5.09-7.465-8.096
						c-1.091-1.382-2.273-2.542-3.617-3.474c1.921-0.359,3.813-0.924,5.724-1.338c0.252-0.055,0.505-0.098,0.756-0.146
						c0.091-0.414,0.302-0.807,0.692-1.103c1.062-0.803,2.199-1.487,3.393-2.032c-4.885-0.332-10.308,0.917-14.173,2.848
						c-0.122-0.039-0.239-0.086-0.366-0.123c-0.575-0.168-0.998,0.706-0.434,0.984c0.077,0.037,0.145,0.085,0.219,0.125
						c0.003,0.164,0.045,0.324,0.108,0.476c-1.134,3.558-0.114,6.504,2.701,9.196c2.582,2.47,7.49,5.317,11.163,5.206
						C334.819,489.914,335.125,489.655,335.255,489.323z"/>
					<path fill="#FFB53A" d="M331.04,474.352c-0.216,0.982,0.32,2.109,1.313,2.508c2.112,0.85,4.502,0.669,6.655,0.086
						c0.405-0.111,0.84-0.24,1.282-0.379c-0.29,2.131-0.065,4.358,0.553,6.385c0.411,1.341,1.94,2.637,3.409,1.75
						c2.039-1.235,3.583-2.756,4.032-5.182c0.031-0.159,0.045-0.323,0.066-0.484c1.078,0.913,2.409,1.438,4.313,1.225
						c1.513-0.17,2.505-2.122,1.769-3.446c-0.648-1.169-1.553-2.457-2.61-3.655c1.786,0.096,3.539-0.472,5.103-1.304
						c1.212-0.643,1.563-2.487,0.291-3.306c-2.027-1.303-4.122-1.851-6.521-1.583c-1.139,0.126-2.459,0.469-3.691,0.954
						c3.171-1.77,4.992-4.64,4.509-9.11c-0.14-1.306-1.753-2.025-2.87-1.473c-2.68,1.326-5.168,3.513-6.4,6.208
						c-0.882-1.572-2.062-2.982-3.525-4.135c-0.94-0.738-2.422-0.429-3.082,0.523c-0.799,1.154-1.315,2.023-0.926,3.457
						c0.393,1.447,1.122,2.699,1.978,3.916c0.681,0.973,1.58,1.875,2.591,2.655c-1.438,0.216-2.829,0.649-4.152,1.255
						c-1.193,0.545-2.331,1.229-3.393,2.032C331.342,473.545,331.131,473.938,331.04,474.352z M341.164,469.671
						c0.244-0.277,0.551-0.489,0.968-0.587c0.498-0.114,1.035-0.031,1.473,0.235c0.008,0.006,0.017,0.011,0.025,0.017
						c0.032,0.021,0.056,0.049,0.087,0.069c0.672,0.256,1.249,0.789,1.519,1.652c0.974,3.113-3.959,4.243-4.928,1.143
						C339.946,471.043,340.403,470.165,341.164,469.671z"/>
					<path fill="#E65F5B" d="M345.235,471.058c-0.27-0.863-0.847-1.396-1.519-1.652c-0.031-0.021-0.055-0.049-0.087-0.069
						c-0.009-0.006-0.018-0.011-0.025-0.017c-0.438-0.267-0.975-0.35-1.473-0.235c-0.417,0.098-0.724,0.31-0.968,0.587
						c-0.761,0.494-1.218,1.372-0.856,2.529C341.276,475.301,346.209,474.171,345.235,471.058z"/>
				</g>
				<g>
					<path fill="#27C2A3" d="M259.346,464.403c1.241-0.522,3.187-0.782,4.03,0.518c0.003,0.002,0.007,0.002,0.01,0.004
						c1.155-2.435,1.21-3.789,0.938-5.582c-0.157-1.032-1.358-2.007-2.314-1.229c-1.339,1.086-2.561,2.563-3.369,4.159
						C259.102,462.893,259.313,463.663,259.346,464.403z"/>
					<path fill="#27C2A3" d="M250.756,462.838c-0.891-1.179-2.149-2.158-3.361-2.797c-0.779-0.408-1.747,0.271-1.668,1.131
						c0.135,1.511,0.715,3.127,1.643,4.487c0.792-0.356,1.687-0.521,2.646-0.403C250.042,464.426,250.312,463.586,250.756,462.838z"
						/>
					<path fill="#27C2A3" d="M248.829,475.206c-0.606-0.016-1.238-0.129-1.893-0.391c-0.052-0.02-0.097-0.045-0.147-0.067
						c-1.727,0.479-3.352,1.533-4.639,2.671c-1.01,0.894-0.85,2.533,0.598,2.873c1.967,0.46,4.113-0.015,5.871-0.946
						C248.149,477.999,248.225,476.495,248.829,475.206z"/>
					<path fill="#27C2A3" d="M257.423,481.652c-0.518,0.454-1.117,0.814-1.771,1.05c-0.05,0.017-0.099,0.023-0.147,0.039
						c-0.045,1.354,0.31,2.683,1.314,3.993c1.149,1.5,3.222,0.606,3.276-1.158c0.027-0.844-0.001-1.688-0.057-2.534
						c-0.396-0.13-0.791-0.264-1.186-0.396C258.327,482.436,257.844,482.08,257.423,481.652z"/>
					<path fill="#27C2A3" d="M272.472,471.608c-2.022-0.777-4.112-0.843-6.14-0.381c-0.306,0.903-0.824,1.732-1.537,2.382
						c0.388,0.342,0.724,0.753,1.005,1.187c0.017-0.011,0.035-0.022,0.053-0.033c2.082,1.146,4.511,0.864,6.798-0.763
						C273.44,473.438,273.479,471.997,272.472,471.608z"/>
					<path fill="#E65F5B" d="M266.332,471.228c0.386-1.144,0.343-2.202-0.088-3.404c-0.481-1.347-1.532-2.371-2.858-2.898
						c-0.003-0.002-0.006-0.002-0.01-0.004c-0.843-1.3-2.789-1.04-4.03-0.518c-0.033-0.74-0.224-1.561-0.685-2.184
						c-0.431-0.578-1.039-1.128-1.908-1.474c-2.611-1.038-4.884,0.226-6.008,2.116c-0.443,0.749-0.708,1.575-0.734,2.406
						c-0.959-0.117-1.852,0.042-2.644,0.396c-3.576,1.609-5.025,7.178-0.58,9.088c0.05,0.021,0.097,0.045,0.149,0.064
						c0.654,0.262,1.287,0.375,1.893,0.391c-0.604,1.289-0.68,2.792-0.21,4.139c0.004,0.011,0.007,0.023,0.011,0.036
						c0.448,1.256,1.488,2.576,2.761,3.084c0.45,0.151,0.899,0.302,1.349,0.454c0.94,0.178,1.86,0.114,2.764-0.179
						c0.048-0.016,0.098-0.022,0.147-0.039c0.654-0.235,1.253-0.596,1.771-1.05c0.42,0.428,0.904,0.783,1.43,0.993
						c0.395,0.133,0.79,0.267,1.186,0.396c0.05,0.02,0.101,0.036,0.152,0.053c0.981,0.186,1.942,0.116,2.884-0.218
						c1.329-0.473,2.436-1.47,3.056-2.734c0.64-1.31,0.724-2.852,0.232-4.223c-0.135-0.378-0.331-0.759-0.563-1.124
						c-0.281-0.434-0.617-0.845-1.005-1.187C265.508,472.96,266.026,472.131,266.332,471.228z M256.715,474.71
						c-0.466-0.14-1.013-0.168-1.468-0.187c-0.447-0.021-0.96-0.27-1.064-0.741c-0.803,0.038-1.383-0.851-1.052-1.63
						c0.031-0.069,0.071-0.13,0.102-0.199c-0.529-0.644,0.049-1.527,0.819-1.709c-0.009-0.498-0.001-1.001,0.051-1.506
						c0.128-1.251,2.027-1.047,2.141,0.128c0.033,0.343,0.089,0.734,0.11,1.129c0.586-0.682,1.662,0.043,1.545,0.853
						c-0.014,0.096-0.017,0.188-0.025,0.283c0.115,0.067,0.227,0.149,0.325,0.267c0.665,0.781,0.016,2.067-0.412,2.779
						C257.576,474.529,257.156,474.844,256.715,474.71z"/>
					<path fill="#FFFFEA" d="M258.199,471.397c-0.098-0.117-0.21-0.199-0.325-0.267c0.008-0.095,0.011-0.188,0.025-0.283
						c0.117-0.81-0.958-1.534-1.545-0.853c-0.021-0.395-0.078-0.786-0.11-1.129c-0.114-1.175-2.013-1.379-2.141-0.128
						c-0.052,0.505-0.061,1.008-0.051,1.506c-0.77,0.182-1.348,1.065-0.819,1.709c-0.031,0.069-0.07,0.13-0.102,0.199
						c-0.332,0.779,0.249,1.668,1.052,1.63c0.104,0.472,0.617,0.721,1.064,0.741c0.455,0.019,1.002,0.047,1.468,0.187
						c0.441,0.134,0.861-0.181,1.072-0.533C258.214,473.465,258.863,472.179,258.199,471.397z"/>
				</g>
				<g>
					<path fill="#27C2A3" d="M585.094,238.88c1.07-1.053,2.98-1.482,4.392-1.375c0.004,0,0.008,0.001,0.012,0.001
						c0.192-2.035-0.31-4.18-1.332-5.928c-0.589-1.005-2.235-1.396-2.907-0.196c-0.939,1.678-1.597,3.653-1.775,5.64
						C584.217,237.478,584.753,238.125,585.094,238.88z"/>
					<path fill="#27C2A3" d="M575.54,241.049c-1.409-0.854-3.119-1.35-4.64-1.511c-0.977-0.103-1.699,1.002-1.263,1.862
						c0.764,1.511,2.032,2.945,3.556,3.973c0.675-0.696,1.534-1.236,2.578-1.511C575.456,242.99,575.389,242.009,575.54,241.049z"/>
					<path fill="#27C2A3" d="M578.648,254.67c-0.635,0.233-1.338,0.376-2.123,0.376c-0.063,0-0.12-0.007-0.182-0.009
						c-1.594,1.208-2.842,2.974-3.707,4.684c-0.679,1.344,0.165,2.979,1.806,2.731c2.229-0.334,4.259-1.713,5.696-3.405
						C579.096,257.846,578.555,256.257,578.648,254.67z"/>
					<path fill="#27C2A3" d="M590.22,257.805c-0.349,0.686-0.821,1.307-1.403,1.819c-0.044,0.038-0.092,0.067-0.135,0.104
						c0.511,1.421,1.428,2.653,3.01,3.597c1.812,1.081,3.592-0.7,2.92-2.553c-0.32-0.886-0.699-1.751-1.105-2.604
						c-0.465,0.026-0.929,0.051-1.393,0.076C591.48,258.244,590.832,258.075,590.22,257.805z"/>
					<path fill="#27C2A3" d="M601.677,241.181c-2.418,0.028-4.612,0.822-6.523,2.138c0.057,1.063-0.139,2.138-0.61,3.104
						c0.544,0.194,1.063,0.481,1.532,0.816c0.014-0.019,0.027-0.038,0.041-0.058c2.632,0.33,5.035-0.964,6.733-3.597
						C603.436,242.677,602.882,241.166,601.677,241.181z"/>
					<path fill="#E65F5B" d="M595.153,243.318c-0.071-1.344-0.554-2.67-1.495-3.738c-1.056-1.2-2.568-1.949-4.161-2.074
						c-0.004,0-0.008-0.001-0.012-0.001c-1.411-0.107-3.321,0.322-4.392,1.375c-0.341-0.754-0.877-1.402-1.611-1.856
						c-0.686-0.424-1.543-0.68-2.587-0.68c-3.136,0-4.971,2.28-5.355,4.705c-0.151,0.96-0.084,1.941,0.231,2.813
						c-1.044,0.274-1.903,0.814-2.578,1.511c-3.044,3.143-2.247,9.521,3.15,9.664c0.062,0.002,0.119,0.009,0.182,0.009
						c0.785,0,1.488-0.143,2.123-0.376c-0.094,1.587,0.447,3.176,1.49,4.377c0.01,0.012,0.018,0.023,0.027,0.035
						c0.982,1.116,2.606,2.057,4.136,2.057c0.529-0.028,1.058-0.058,1.587-0.086c1.047-0.203,1.975-0.649,2.793-1.325
						c0.043-0.036,0.091-0.065,0.135-0.104c0.582-0.513,1.055-1.134,1.403-1.819c0.612,0.271,1.261,0.439,1.894,0.439
						c0.464-0.025,0.928-0.05,1.393-0.076c0.06-0.002,0.119-0.006,0.18-0.01c1.094-0.212,2.062-0.683,2.901-1.415
						c1.182-1.04,1.919-2.53,2.039-4.099c0.123-1.62-0.427-3.253-1.502-4.474c-0.296-0.336-0.656-0.649-1.049-0.932
						c-0.47-0.335-0.988-0.622-1.532-0.816C595.015,245.456,595.21,244.382,595.153,243.318z M586.619,250.9
						c-0.541,0.046-1.119,0.243-1.599,0.411c-0.472,0.165-1.107,0.118-1.409-0.327c-0.817,0.369-1.785-0.311-1.763-1.256
						c0.003-0.086,0.019-0.165,0.022-0.25c-0.814-0.448-0.58-1.604,0.144-2.109c-0.216-0.514-0.414-1.037-0.569-1.583
						c-0.383-1.351,1.67-1.923,2.273-0.751c0.176,0.342,0.396,0.726,0.58,1.126c0.327-0.95,1.741-0.642,1.954,0.245
						c0.025,0.104,0.06,0.203,0.091,0.305c0.146,0.021,0.297,0.062,0.447,0.142c1.012,0.537,0.869,2.138,0.72,3.053
						C587.438,250.357,587.133,250.856,586.619,250.9z"/>
					<path fill="#FFFFEA" d="M586.791,246.853c-0.15-0.08-0.301-0.12-0.447-0.142c-0.031-0.102-0.065-0.201-0.091-0.305
						c-0.213-0.887-1.627-1.195-1.954-0.245c-0.185-0.4-0.404-0.784-0.58-1.126c-0.604-1.172-2.656-0.6-2.273,0.751
						c0.155,0.546,0.354,1.069,0.569,1.583c-0.724,0.506-0.958,1.661-0.144,2.109c-0.004,0.085-0.02,0.164-0.022,0.25
						c-0.022,0.945,0.945,1.625,1.763,1.256c0.302,0.445,0.938,0.492,1.409,0.327c0.479-0.168,1.058-0.365,1.599-0.411
						c0.514-0.044,0.818-0.543,0.892-0.995C587.66,248.99,587.803,247.39,586.791,246.853z"/>
				</g>
				<g>
					<path fill="#27C2A3" d="M670.523,184.909c0.688-0.676,1.916-0.909,2.822-0.909c0.003,0,0.006,0,0.008,0
						c0.124-1-0.199-2.66-0.855-3.783c-0.379-0.646-1.437-0.884-1.869-0.113c-0.604,1.078-1.025,2.341-1.141,3.618
						C669.96,184.015,670.305,184.425,670.523,184.909z"/>
					<path fill="#27C2A3" d="M664.385,186.329c-0.906-0.548-2.005-0.867-2.982-0.971c-0.627-0.066-1.092,0.644-0.812,1.197
						c0.491,0.971,1.307,1.893,2.285,2.553c0.434-0.447,0.986-0.794,1.657-0.971C664.33,187.577,664.287,186.946,664.385,186.329z"
						/>
					<path fill="#27C2A3" d="M666.382,195.083c-0.408,0.15-0.859,0.242-1.364,0.242c-0.04,0-0.077-0.004-0.117-0.006
						c-1.023,0.776-1.826,1.911-2.382,3.01c-0.437,0.863,0.106,1.914,1.16,1.755c1.433-0.215,2.737-1.101,3.661-2.188
						C666.669,197.124,666.321,196.103,666.382,195.083z"/>
					<path fill="#27C2A3" d="M673.818,197.097c-0.225,0.44-0.528,0.84-0.902,1.169c-0.028,0.025-0.059,0.043-0.086,0.067
						c0.328,0.913,0.917,1.705,1.934,2.311c1.164,0.695,2.309-0.45,1.877-1.64c-0.206-0.569-0.449-1.125-0.711-1.673
						c-0.299,0.017-0.597,0.033-0.895,0.049C674.628,197.379,674.212,197.271,673.818,197.097z"/>
					<path fill="#27C2A3" d="M681.181,186.414c-1.554,0.018-2.964,0.528-4.192,1.374c0.037,0.684-0.089,1.374-0.392,1.995
						c0.35,0.125,0.683,0.31,0.984,0.524c0.009-0.012,0.018-0.024,0.026-0.037c1.691,0.212,3.235-0.62,4.327-2.312
						C682.312,187.375,681.955,186.404,681.181,186.414z"/>
					<path fill="#FFA79E" d="M676.988,187.788c-0.046-0.864-0.355-1.742-0.961-2.428c-0.678-0.771-1.65-1.359-2.674-1.359
						c-0.002,0-0.005,0-0.008,0c-0.906,0-2.134,0.233-2.822,0.909c-0.219-0.484-0.563-0.888-1.035-1.18
						c-0.44-0.272-0.991-0.43-1.662-0.43c-2.016,0-3.194,1.468-3.441,3.026c-0.098,0.617-0.055,1.25,0.148,1.81
						c-0.671,0.176-1.224,0.524-1.657,0.971c-1.956,2.02-1.444,6.119,2.024,6.211c0.04,0.001,0.077,0.006,0.117,0.006
						c0.505,0,0.956-0.092,1.364-0.242c-0.061,1.02,0.287,2.041,0.958,2.813c0.006,0.007,0.011,0.015,0.018,0.022
						c0.631,0.717,1.675,1.322,2.657,1.322c0.341-0.018,0.68-0.037,1.021-0.055c0.672-0.131,1.269-0.417,1.795-0.852
						c0.027-0.023,0.058-0.042,0.086-0.067c0.374-0.329,0.678-0.729,0.902-1.169c0.394,0.174,0.81,0.282,1.217,0.282
						c0.298-0.016,0.596-0.032,0.895-0.049c0.038-0.001,0.077-0.004,0.115-0.006c0.703-0.136,1.325-0.438,1.865-0.909
						c0.759-0.668,1.232-1.626,1.311-2.634c0.078-1.041-0.274-2.09-0.966-2.875c-0.19-0.216-0.422-0.417-0.674-0.599
						c-0.302-0.215-0.635-0.399-0.984-0.524C676.899,189.161,677.025,188.471,676.988,187.788z M671.504,192.66
						c-0.348,0.029-0.719,0.156-1.027,0.264c-0.303,0.106-0.711,0.076-0.905-0.21c-0.525,0.237-1.147-0.199-1.133-0.807
						c0.002-0.056,0.012-0.106,0.015-0.161c-0.523-0.288-0.373-1.031,0.092-1.356c-0.139-0.33-0.266-0.667-0.365-1.017
						c-0.246-0.868,1.072-1.236,1.461-0.482c0.112,0.219,0.254,0.466,0.372,0.723c0.211-0.61,1.119-0.412,1.256,0.158
						c0.017,0.066,0.038,0.13,0.059,0.196c0.094,0.014,0.19,0.04,0.287,0.091c0.65,0.345,0.559,1.374,0.463,1.962
						C672.03,192.311,671.834,192.632,671.504,192.66z"/>
					<path fill="#FFFFEA" d="M671.614,190.059c-0.097-0.051-0.193-0.077-0.287-0.091c-0.021-0.065-0.042-0.129-0.059-0.196
						c-0.137-0.57-1.045-0.768-1.256-0.158c-0.118-0.257-0.26-0.504-0.372-0.723c-0.389-0.753-1.707-0.386-1.461,0.482
						c0.1,0.351,0.227,0.687,0.365,1.017c-0.465,0.325-0.615,1.068-0.092,1.356c-0.003,0.054-0.013,0.105-0.015,0.161
						c-0.015,0.607,0.607,1.044,1.133,0.807c0.194,0.287,0.603,0.316,0.905,0.21c0.309-0.108,0.68-0.235,1.027-0.264
						c0.33-0.028,0.526-0.349,0.573-0.64C672.173,191.433,672.265,190.404,671.614,190.059z"/>
				</g>
				<g>
					<path fill="#454C53" d="M309.682,419.297c1.037,2.699,1.467,6.748,0.094,9.57c0.021-0.011,0.041-0.018,0.063-0.029
						c0.661-0.344,1.044-0.906,1.207-1.549c0.405-0.105,0.794-0.259,1.143-0.506c1.217-0.859,1.924-2.723,0.605-3.907
						c-0.311-0.278-0.622-0.546-0.936-0.81c0.116-0.39,0.156-0.801,0.103-1.193c-0.031-0.263-0.107-0.514-0.218-0.745
						c0.233-0.065,0.467-0.134,0.703-0.194c1.766-0.453,1.817-2.485,0.556-3.489c-1.294-1.026-2.858-1.12-4.436-1.079
						c-0.098-0.067-0.187-0.129-0.28-0.193c-0.339,0.156-0.68,0.309-1.026,0.457C308.299,416.662,309.146,417.903,309.682,419.297z"
						/>
					<path fill="#E65F5B" d="M295.513,413.322c-0.741,0.859-1.365,1.851-1.834,2.912c0.049-0.051,0.104-0.092,0.15-0.146
						C294.506,415.286,295.05,414.317,295.513,413.322z"/>
					<path fill="#E65F5B" d="M296.344,418.098c-0.184,0.254-0.412,0.532-0.67,0.814c1.866,2.326,2.285,5.332,2.301,8.336
						c0.926,0.801,0.684,2.343-0.234,2.979c2.51,1.439,5.352,2.172,7.784,1.779c2.14-0.344,3.479-1.549,4.251-3.139
						c1.373-2.822,0.943-6.871-0.094-9.57c-0.535-1.394-1.383-2.635-2.423-3.668c0.347-0.148,0.688-0.301,1.026-0.457
						c1.181-0.547,2.309-1.139,3.35-1.739c0.742-0.427,0.678-1.342,0.172-1.796c-0.057-0.133-0.15-0.255-0.316-0.338
						c-4.232-2.133-9.563-1.918-13.744,0.271C298.142,413.933,297.78,416.111,296.344,418.098z"/>
					<path fill="#27C2A3" d="M297.975,427.248c-0.016-3.004-0.435-6.01-2.301-8.336c0.258-0.282,0.486-0.561,0.67-0.814
						c1.437-1.986,1.798-4.165,1.402-6.527c-0.01-0.053-0.013-0.104-0.022-0.156c-0.002-0.006-0.005-0.01-0.006-0.016
						c0.363-0.25,0.142-0.833-0.311-0.744c-4.469,0.879-7.159,4.271-7.9,8.039c-0.375,0.072-0.747,0.18-1.089,0.273
						c-0.608,0.171-1.176,0.297-1.742,0.362c-0.901-0.178-1.827-0.246-2.751-0.22c-1.71,0.049-2.32,2.661-0.496,3.083
						c0.671,0.154,1.44,0.22,2.235,0.192c0.894,0.149,1.743,0.441,2.585,0.936c0.563,0.328,1.116,0.868,1.714,1.256
						c0.979,2.619,3.044,4.847,6.279,5.845c0.599,0.185,1.108,0.075,1.498-0.194C298.658,429.591,298.9,428.049,297.975,427.248z"/>
				</g>
			</g>
			<g>
				<g>
					<g>
						<path fill="#454C53" d="M195.971,426.129c-10.208,0-18.713-4.961-24.314-14.691c-4.835-8.398-5.583-16.479-2.225-24.018
							c3.446-7.732,11.251-15.02,23.861-22.279c16.325-9.396,196.163-112.929,196.163-112.929l4.989,8.666
							c0,0-179.839,103.534-196.163,112.93c-10.563,6.081-17.197,12.03-19.716,17.682c-2.041,4.579-1.482,9.333,1.757,14.959
							c4.604,7.996,14.184,15.172,33.678,3.95c2.393-1.38,5.45-0.555,6.828,1.839c1.377,2.393,0.554,5.45-1.839,6.827
							C210.775,423.795,202.972,426.129,195.971,426.129z"/>
					</g>
					<g>
						<g>
							<circle fill="#FFA79E" cx="410.945" cy="414.461" r="36.585"/>
							<circle fill="#E65F5B" cx="374.443" cy="351.047" r="36.585"/>
							<circle fill="#FFA79E" cx="337.941" cy="287.633" r="36.585"/>
							<circle fill="#E65F5B" cx="301.438" cy="224.218" r="36.585"/>
							<circle fill="#FFA79E" cx="264.936" cy="160.804" r="36.585"/>
						</g>
						<g opacity="0.1">
							<circle fill="#FFFFEA" cx="410.945" cy="414.461" r="36.585"/>
							<circle fill="#FFFFEA" cx="374.443" cy="351.047" r="36.585"/>
							<circle fill="#FFFFEA" cx="337.941" cy="287.633" r="36.585"/>
							<circle fill="#FFFFEA" cx="301.438" cy="224.218" r="36.585"/>
							<circle fill="#FFFFEA" cx="264.936" cy="160.804" r="36.585"/>
						</g>
						
							<ellipse transform="matrix(-0.4989 -0.8667 0.8667 -0.4989 570.929 724.6196)" fill="#454C53" cx="494.954" cy="197.253" rx="5.862" ry="16.606"/>
						<g>
							<path fill="#FFA79E" d="M245.673,129.396c87.674-50.466,199.66-20.305,250.125,67.369
								c50.469,87.675,20.306,199.66-67.368,250.126"/>
							<path fill="#E65F5B" d="M282.712,193.741c87.675-50.466,183.076-49.113,213.087,3.024
								c30.012,52.137-16.734,135.314-104.408,185.781"/>
							<path fill="#FFA79E" d="M318.777,256.395c87.675-50.467,166.929-77.164,177.021-59.63
								c10.095,17.536-52.797,72.661-140.472,123.128"/>
						</g>
					</g>
				</g>
				<g>
					<g>
						<path fill="#FFC274" d="M158.749,389c3-1,31-14,36-8s6,31-6,33s-32-9-32-9L158.749,389z"/>
						<path fill="#E65F5B" d="M0,357.543C46,377.919,156.819,407,156.819,407l5.854-20.994C121.024,374.016,31,332.899,0,318.825
							V357.543z"/>
					</g>
					<g>
						<path fill="#FFB53A" d="M96.749,558l-27.543-32.602l0,0l5.308,6.283c-7.594,2.67-15.253,5.154-22.992,7.404
							c-1.81,0.463-3.624,0.908-5.44,1.345c-2.647-3.361-5.249-6.702-7.728-9.908h0C51.775,547.886,68.862,569.24,76.749,576
							c8.351,7.158,32.355,13.248,50.369,16.997l6.282-23.871L96.749,558z"/>
						<path fill="#FFB53A" d="M46.082,540.431c1.816-0.437,3.63-0.882,5.44-1.345c7.739-2.25,15.398-4.734,22.992-7.404
							l-5.308-6.283c-10.048,2.812-20.413,4.668-30.851,5.124C40.833,533.729,43.435,537.069,46.082,540.431z"/>
						<path opacity="0.2" fill="#BF882C" d="M46.082,540.431c1.816-0.437,3.63-0.882,5.44-1.345
							c7.739-2.25,15.398-4.734,22.992-7.404l-5.308-6.283c-10.048,2.812-20.413,4.668-30.851,5.124
							C40.833,533.729,43.435,537.069,46.082,540.431z"/>
					</g>
					<g>
						<path fill="#E65F5B" d="M4.376,387.802c10.186,12.121,18.28,26.224,25.538,40.204c10.971,21.134,17.471,43.584,23.571,66.402
							c1.752,5.7,3.849,11.269,6.408,16.643c1.353,1.933,2.784,3.805,4.29,5.621c1.869,1.513,3.802,2.941,5.79,4.297
							c1.901,0.878,3.832,1.684,5.774,2.46c1.031-0.334,2.057-0.68,3.08-1.031c0.246-0.085,0.492-0.17,0.738-0.256
							c0.989-0.345,1.975-0.694,2.956-1.055c0.033-0.012,0.066-0.023,0.1-0.036c1.012-0.372,2.017-0.755,3.019-1.142
							c0.247-0.096,0.494-0.192,0.74-0.289c0.927-0.362,1.85-0.729,2.767-1.104c0.077-0.031,0.154-0.062,0.23-0.093
							c0.983-0.403,1.958-0.814,2.931-1.229c0.243-0.104,0.486-0.209,0.729-0.314c0.879-0.38,1.755-0.764,2.625-1.153
							c0.102-0.045,0.204-0.09,0.305-0.136c0.954-0.429,1.9-0.864,2.842-1.304c0.237-0.11,0.474-0.222,0.71-0.333
							c0.832-0.392,1.659-0.786,2.48-1.185c0.127-0.062,0.256-0.122,0.383-0.184c0.921-0.449,1.834-0.903,2.742-1.359
							c0.231-0.116,0.461-0.233,0.691-0.35c0.794-0.403,1.583-0.808,2.367-1.216c0.135-0.07,0.272-0.141,0.407-0.211
							c0.889-0.465,1.77-0.934,2.646-1.404c0.224-0.12,0.446-0.241,0.669-0.361c0.752-0.408,1.499-0.816,2.24-1.228
							c0.147-0.082,0.296-0.163,0.443-0.245c0.854-0.475,1.7-0.953,2.539-1.433c0.212-0.121,0.423-0.242,0.635-0.364
							c0.709-0.407,1.414-0.816,2.112-1.226c0.16-0.094,0.321-0.188,0.48-0.281c0.813-0.479,1.617-0.958,2.414-1.438
							c0.206-0.124,0.409-0.248,0.613-0.372c0.671-0.406,1.336-0.813,1.996-1.22c0.159-0.099,0.321-0.197,0.479-0.295
							c0.775-0.481,1.542-0.962,2.299-1.441c0.192-0.121,0.382-0.242,0.573-0.364c0.629-0.4,1.253-0.8,1.871-1.199
							c0.164-0.105,0.33-0.212,0.492-0.317c0.732-0.476,1.455-0.949,2.168-1.422c0.179-0.118,0.354-0.235,0.532-0.354
							c0.59-0.393,1.175-0.783,1.752-1.173c0.163-0.109,0.328-0.22,0.489-0.329c0.688-0.467,1.366-0.93,2.035-1.391
							c0.162-0.111,0.32-0.222,0.481-0.332c0.555-0.385,1.104-0.767,1.646-1.146c0.154-0.108,0.311-0.218,0.464-0.325
							c0.645-0.454,1.28-0.905,1.904-1.352c0.138-0.099,0.273-0.196,0.411-0.295c0.522-0.375,1.037-0.747,1.544-1.115
							c0.147-0.106,0.295-0.214,0.441-0.32c0.595-0.434,1.18-0.863,1.752-1.288c0.125-0.093,0.247-0.184,0.371-0.275
							c0.477-0.354,0.946-0.705,1.407-1.051c0.14-0.106,0.282-0.212,0.421-0.317c0.539-0.406,1.067-0.808,1.583-1.201
							c0.12-0.092,0.236-0.182,0.354-0.272c0.426-0.326,0.844-0.648,1.253-0.966c0.131-0.103,0.264-0.205,0.394-0.306
							c0.485-0.378,0.961-0.749,1.422-1.113c0.096-0.075,0.188-0.147,0.282-0.223c0.392-0.31,0.775-0.613,1.148-0.911
							c0.113-0.09,0.227-0.181,0.337-0.27c0.433-0.347,0.856-0.687,1.263-1.017c0.073-0.059,0.143-0.115,0.215-0.175
							c0.348-0.282,0.686-0.558,1.014-0.826c0.1-0.082,0.201-0.165,0.299-0.245c0.372-0.307,0.734-0.605,1.08-0.893
							c0.058-0.048,0.112-0.094,0.169-0.142c0.302-0.251,0.593-0.495,0.874-0.73c0.08-0.067,0.161-0.136,0.24-0.202
							c0.311-0.262,0.612-0.517,0.895-0.758c0.043-0.037,0.083-0.071,0.126-0.108c0.249-0.212,0.487-0.416,0.713-0.61
							c0.063-0.055,0.126-0.109,0.188-0.162c0.25-0.216,0.49-0.424,0.709-0.615c0.015-0.013,0.028-0.024,0.043-0.037
							c0.202-0.176,0.387-0.338,0.562-0.492c0.056-0.05,0.111-0.099,0.165-0.146c0.17-0.15,0.332-0.294,0.474-0.42
							c0.029-0.025,0.051-0.046,0.079-0.07c0.117-0.104,0.223-0.199,0.319-0.285c0.04-0.035,0.078-0.07,0.114-0.103
							c0.099-0.09,0.192-0.174,0.263-0.238c0.004-0.004,0.006-0.006,0.01-0.009c0.079-0.071,0.14-0.128,0.181-0.166
							c0.003-0.003,0.008-0.007,0.011-0.01c0.035-0.032,0.059-0.054,0.059-0.054s-63.197,24.469-96-27
							c-0.793-1.245-1.593-2.46-2.396-3.651c-0.266-0.395-0.534-0.772-0.801-1.161c-0.539-0.785-1.079-1.57-1.621-2.333
							c-0.318-0.447-0.638-0.878-0.957-1.317c-0.496-0.682-0.992-1.364-1.49-2.027c-0.337-0.448-0.676-0.886-1.014-1.326
							c-0.484-0.63-0.968-1.258-1.453-1.871c-0.346-0.436-0.692-0.863-1.039-1.291c-0.481-0.594-0.962-1.183-1.444-1.761
							c-0.349-0.418-0.698-0.829-1.047-1.238c-0.484-0.567-0.968-1.127-1.453-1.679c-0.344-0.392-0.689-0.78-1.034-1.164
							c-0.495-0.552-0.99-1.093-1.485-1.628c-0.333-0.359-0.667-0.72-0.999-1.072c-0.514-0.544-1.027-1.075-1.541-1.602
							c-0.313-0.322-0.627-0.647-0.941-0.963c-0.545-0.549-1.09-1.083-1.634-1.613c-0.28-0.273-0.561-0.553-0.841-0.821
							c-0.613-0.587-1.224-1.156-1.835-1.721c-0.209-0.193-0.419-0.395-0.629-0.586c-1.668-1.522-3.327-2.963-4.97-4.323
							c-0.059-0.049-0.117-0.094-0.176-0.143c-0.751-0.62-1.5-1.226-2.245-1.813c-0.199-0.157-0.396-0.307-0.595-0.462
							c-0.603-0.471-1.205-0.937-1.803-1.387c-0.242-0.183-0.482-0.357-0.724-0.537c-0.552-0.41-1.103-0.815-1.649-1.209
							c-0.256-0.184-0.509-0.362-0.764-0.542c-0.528-0.374-1.054-0.744-1.577-1.103c-0.259-0.178-0.517-0.353-0.774-0.527
							c-0.513-0.347-1.024-0.688-1.531-1.021c-0.255-0.167-0.509-0.333-0.763-0.498c-0.507-0.328-1.01-0.649-1.51-0.963
							c-0.243-0.152-0.485-0.305-0.726-0.454c-0.51-0.316-1.015-0.623-1.517-0.925c-0.222-0.133-0.444-0.269-0.665-0.399
							c-0.525-0.312-1.043-0.613-1.558-0.91c-0.188-0.108-0.379-0.221-0.566-0.327c-0.565-0.322-1.122-0.633-1.674-0.938
							c-0.129-0.071-0.261-0.146-0.389-0.216c-2.066-1.132-4.037-2.145-5.891-3.057c-0.115-0.056-0.225-0.109-0.339-0.165
							c-0.491-0.24-0.977-0.476-1.451-0.702c-0.168-0.08-0.331-0.157-0.498-0.235c-0.411-0.195-0.819-0.387-1.216-0.572
							c-0.184-0.085-0.362-0.167-0.543-0.251c-0.372-0.172-0.741-0.342-1.1-0.505c-0.181-0.082-0.359-0.163-0.536-0.243
							c-0.356-0.162-0.709-0.321-1.051-0.474c-0.158-0.071-0.315-0.142-0.47-0.21c-0.426-0.19-0.846-0.378-1.247-0.557
							c-0.164-0.073-0.335-0.15-0.495-0.221C3.518,386.79,3.951,387.295,4.376,387.802z"/>
						<g>
							<path fill="#E65F5B" d="M69.206,525.637L69.206,525.637c2.196-0.613,4.378-1.389,6.541-2.089
								c-1.943-0.776-3.873-1.642-5.774-2.52c-1.988-1.355-3.92-2.813-5.79-4.326c-1.505-1.816-2.937-3.704-4.29-5.637
								c-2.559-5.374-4.655-10.949-6.408-16.649c-6.1-22.818-12.6-45.272-23.571-66.406c-7.257-13.98-15.352-28.085-25.538-40.206
								c-0.425-0.506-0.858-1.013-1.29-1.519c0.159,0.071,0.401,0.147,0.565,0.22C2.253,385.882,1,385.327,0,384.822v140.1
								C13,529.518,25.424,531,38.299,531h0.028C48.766,530,59.158,528.449,69.206,525.637z"/>
							<path opacity="0.1" fill="#FFFFFF" d="M4.376,387.802c10.186,12.121,18.28,26.224,25.538,40.204
								c10.971,21.134,17.471,43.584,23.571,66.402c1.752,5.7,3.849,11.269,6.408,16.643c1.353,1.933,2.784,3.805,4.29,5.621
								c1.869,1.513,3.802,2.941,5.79,4.297c1.901,0.878,3.832,1.684,5.774,2.46c1.031-0.334,2.057-0.68,3.08-1.031
								c0.246-0.085,0.492-0.17,0.738-0.256c0.989-0.345,1.975-0.694,2.956-1.055c0.033-0.012,0.066-0.023,0.1-0.036
								c1.012-0.372,2.017-0.755,3.019-1.142c0.247-0.096,0.494-0.192,0.74-0.289c0.927-0.362,1.85-0.729,2.767-1.104
								c0.077-0.031,0.154-0.062,0.23-0.093c0.983-0.403,1.958-0.814,2.931-1.229c0.243-0.104,0.486-0.209,0.729-0.314
								c0.879-0.38,1.755-0.764,2.625-1.153c0.102-0.045,0.204-0.09,0.305-0.136c0.954-0.429,1.9-0.864,2.842-1.304
								c0.237-0.11,0.474-0.222,0.71-0.333c0.832-0.392,1.659-0.786,2.48-1.185c0.127-0.062,0.256-0.122,0.383-0.184
								c0.921-0.449,1.834-0.903,2.742-1.359c0.231-0.116,0.461-0.233,0.691-0.35c0.794-0.403,1.583-0.808,2.367-1.216
								c0.135-0.07,0.272-0.141,0.407-0.211c0.889-0.465,1.77-0.934,2.646-1.404c0.224-0.12,0.446-0.241,0.669-0.361
								c0.752-0.408,1.499-0.816,2.24-1.228c0.147-0.082,0.296-0.163,0.443-0.245c0.854-0.475,1.7-0.953,2.539-1.433
								c0.212-0.121,0.423-0.242,0.635-0.364c0.709-0.407,1.414-0.816,2.112-1.226c0.16-0.094,0.321-0.188,0.48-0.281
								c0.813-0.479,1.617-0.958,2.414-1.438c0.206-0.124,0.409-0.248,0.613-0.372c0.671-0.406,1.336-0.813,1.996-1.22
								c0.159-0.099,0.321-0.197,0.479-0.295c0.775-0.481,1.542-0.962,2.299-1.441c0.192-0.121,0.382-0.242,0.573-0.364
								c0.629-0.4,1.253-0.8,1.871-1.199c0.164-0.105,0.33-0.212,0.492-0.317c0.732-0.476,1.455-0.949,2.168-1.422
								c0.179-0.118,0.354-0.235,0.532-0.354c0.59-0.393,1.175-0.783,1.752-1.173c0.163-0.109,0.328-0.22,0.489-0.329
								c0.688-0.467,1.366-0.93,2.035-1.391c0.162-0.111,0.32-0.222,0.481-0.332c0.555-0.385,1.104-0.767,1.646-1.146
								c0.154-0.108,0.311-0.218,0.464-0.325c0.645-0.454,1.28-0.905,1.904-1.352c0.138-0.099,0.273-0.196,0.411-0.295
								c0.522-0.375,1.037-0.747,1.544-1.115c0.147-0.106,0.295-0.214,0.441-0.32c0.595-0.434,1.18-0.863,1.752-1.288
								c0.125-0.093,0.247-0.184,0.371-0.275c0.477-0.354,0.946-0.705,1.407-1.051c0.14-0.106,0.282-0.212,0.421-0.317
								c0.539-0.406,1.067-0.808,1.583-1.201c0.12-0.092,0.236-0.182,0.354-0.272c0.426-0.326,0.844-0.648,1.253-0.966
								c0.131-0.103,0.264-0.205,0.394-0.306c0.485-0.378,0.961-0.749,1.422-1.113c0.096-0.075,0.188-0.147,0.282-0.223
								c0.392-0.31,0.775-0.613,1.148-0.911c0.113-0.09,0.227-0.181,0.337-0.27c0.433-0.347,0.856-0.687,1.263-1.017
								c0.073-0.059,0.143-0.115,0.215-0.175c0.348-0.282,0.686-0.558,1.014-0.826c0.1-0.082,0.201-0.165,0.299-0.245
								c0.372-0.307,0.734-0.605,1.08-0.893c0.058-0.048,0.112-0.094,0.169-0.142c0.302-0.251,0.593-0.495,0.874-0.73
								c0.08-0.067,0.161-0.136,0.24-0.202c0.311-0.262,0.612-0.517,0.895-0.758c0.043-0.037,0.083-0.071,0.126-0.108
								c0.249-0.212,0.487-0.416,0.713-0.61c0.063-0.055,0.126-0.109,0.188-0.162c0.25-0.216,0.49-0.424,0.709-0.615
								c0.015-0.013,0.028-0.024,0.043-0.037c0.202-0.176,0.387-0.338,0.562-0.492c0.056-0.05,0.111-0.099,0.165-0.146
								c0.17-0.15,0.332-0.294,0.474-0.42c0.029-0.025,0.051-0.046,0.079-0.07c0.117-0.104,0.223-0.199,0.319-0.285
								c0.04-0.035,0.078-0.07,0.114-0.103c0.099-0.09,0.192-0.174,0.263-0.238c0.004-0.004,0.006-0.006,0.01-0.009
								c0.079-0.071,0.14-0.128,0.181-0.166c0.003-0.003,0.008-0.007,0.011-0.01c0.035-0.032,0.059-0.054,0.059-0.054
								s-63.197,24.469-96-27c-0.793-1.245-1.593-2.46-2.396-3.651c-0.266-0.395-0.534-0.772-0.801-1.161
								c-0.539-0.785-1.079-1.57-1.621-2.333c-0.318-0.447-0.638-0.878-0.957-1.317c-0.496-0.682-0.992-1.364-1.49-2.027
								c-0.337-0.448-0.676-0.886-1.014-1.326c-0.484-0.63-0.968-1.258-1.453-1.871c-0.346-0.436-0.692-0.863-1.039-1.291
								c-0.481-0.594-0.962-1.183-1.444-1.761c-0.349-0.418-0.698-0.829-1.047-1.238c-0.484-0.567-0.968-1.127-1.453-1.679
								c-0.344-0.392-0.689-0.78-1.034-1.164c-0.495-0.552-0.99-1.093-1.485-1.628c-0.333-0.359-0.667-0.72-0.999-1.072
								c-0.514-0.544-1.027-1.075-1.541-1.602c-0.313-0.322-0.627-0.647-0.941-0.963c-0.545-0.549-1.09-1.083-1.634-1.613
								c-0.28-0.273-0.561-0.553-0.841-0.821c-0.613-0.587-1.224-1.156-1.835-1.721c-0.209-0.193-0.419-0.395-0.629-0.586
								c-1.668-1.522-3.327-2.963-4.97-4.323c-0.059-0.049-0.117-0.094-0.176-0.143c-0.751-0.62-1.5-1.226-2.245-1.813
								c-0.199-0.157-0.396-0.307-0.595-0.462c-0.603-0.471-1.205-0.937-1.803-1.387c-0.242-0.183-0.482-0.357-0.724-0.537
								c-0.552-0.41-1.103-0.815-1.649-1.209c-0.256-0.184-0.509-0.362-0.764-0.542c-0.528-0.374-1.054-0.744-1.577-1.103
								c-0.259-0.178-0.517-0.353-0.774-0.527c-0.513-0.347-1.024-0.688-1.531-1.021c-0.255-0.167-0.509-0.333-0.763-0.498
								c-0.507-0.328-1.01-0.649-1.51-0.963c-0.243-0.152-0.485-0.305-0.726-0.454c-0.51-0.316-1.015-0.623-1.517-0.925
								c-0.222-0.133-0.444-0.269-0.665-0.399c-0.525-0.312-1.043-0.613-1.558-0.91c-0.188-0.108-0.379-0.221-0.566-0.327
								c-0.565-0.322-1.122-0.633-1.674-0.938c-0.129-0.071-0.261-0.146-0.389-0.216c-2.066-1.132-4.037-2.145-5.891-3.057
								c-0.115-0.056-0.225-0.109-0.339-0.165c-0.491-0.24-0.977-0.476-1.451-0.702c-0.168-0.08-0.331-0.157-0.498-0.235
								c-0.411-0.195-0.819-0.387-1.216-0.572c-0.184-0.085-0.362-0.167-0.543-0.251c-0.372-0.172-0.741-0.342-1.1-0.505
								c-0.181-0.082-0.359-0.163-0.536-0.243c-0.356-0.162-0.709-0.321-1.051-0.474c-0.158-0.071-0.315-0.142-0.47-0.21
								c-0.426-0.19-0.846-0.378-1.247-0.557c-0.164-0.073-0.335-0.15-0.495-0.221C3.518,386.79,3.951,387.295,4.376,387.802z"/>
						</g>
					</g>
					<g>
						<g>
							<path fill="#AD4722" d="M230.749,648c-1-19,0-57,0-57l-57.229-11.006c-0.343,0.932-0.685,1.864-1.02,2.796
								c-3.058,8.512-5.996,17.375-8.244,26.352l-10.608-3.946l0,0L190.749,619c0,0,15,24,21,33S231.749,667,230.749,648z"/>
							<path opacity="0.3" fill="#454C53" d="M230.749,648c-1-19,0-57,0-57l-6.308-1.213c-0.432,23.405-2.001,46.771-3.142,70.153
								C226.538,661.799,231.349,659.412,230.749,648z"/>
							<path fill="#AD4722" d="M153.647,605.195l10.608,3.946c2.248-8.977,5.187-17.84,8.244-26.352
								c0.334-0.932,0.676-1.864,1.02-2.796l-12.185-2.343L153.647,605.195z"/>
							<path opacity="0.3" fill="#454C53" d="M153.647,605.195l10.608,3.946c2.248-8.977,5.187-17.84,8.244-26.352
								c0.334-0.932,0.676-1.864,1.02-2.796l-12.185-2.343L153.647,605.195z"/>
						</g>
						<polygon fill="#E65F5B" points="161.334,577.651 161.334,577.651 163.749,569 134.749,564 133.399,569.126 127.118,592.997 
							124.749,602 151.749,612 153.647,605.195 153.647,605.195 						"/>
					</g>
					<g>
						<path fill="#FFB53A" d="M55.617,236.074c3.167,11.131,7.093,21.975,12.348,32.277c5.163,8.181,11.151,15.722,17.724,22.816
							c5.958,5.551,12.314,10.608,19.147,15.03c4.593,2.309,9.321,4.285,14.203,5.894c0.06,0.011,0.12,0.02,0.18,0.032
							c-7.305-6.407-10.553-13.813-10.553-13.813c0.304,0.09,0.604,0.158,0.907,0.238c-0.145-0.29-0.218-0.452-0.218-0.452
							c16.962,4.847,30.983-5.962,35.749-10.299c0.763-0.708,1.168-1.143,1.168-1.143s-21.206,1.214-37.077-19.534
							c0.182-0.013,0.357-0.035,0.537-0.051c-0.044-0.056-0.09-0.109-0.134-0.167c0.998-0.078,1.965-0.205,2.894-0.383
							c9.645-1.852,15.538-8.646,16.898-10.368c-7.481,1.691-30.979-9.628-46.862-30.903c-4.217-5.545-7.922-11.771-10.673-18.648
							c-12.894-32.235-29.974-55.542-45.638-70.743c3.108,6.958,6.019,14.004,8.622,21.182
							C44.189,182.819,49.021,209.598,55.617,236.074z M108.223,266.973c-0.142,0.015-0.395,0.02-0.9,0.016
							C107.627,266.991,107.924,266.981,108.223,266.973z M107.819,267.178c-0.142,0.014-0.395,0.017-0.9,0.007
							C107.223,267.191,107.521,267.183,107.819,267.178z"/>
						<g>
							<path fill="#FFB53A" d="M77.559,340.289c45.271,9.302,78.329-21.194,78.329-21.194
								c-30.603,8.346-44.441-16.845-46.284-20.547c-0.303-0.08-0.618-0.148-0.922-0.238c0,0,3.24,7.406,10.545,13.813
								c-0.06-0.012-0.124-0.021-0.184-0.032c-4.881-1.609-9.612-3.585-14.205-5.894c-6.833-4.422-13.19-9.479-19.148-15.03
								c-6.572-7.094-12.561-14.635-17.724-22.816c-5.255-10.302-9.181-21.146-12.348-32.277
								c-6.596-26.476-11.428-53.255-20.778-79.035c-2.603-7.178-5.388-14.224-8.496-21.182C16.497,126.302,7,119.94,0,116.605
								v166.92C15,319.095,53.999,335.449,77.559,340.289z"/>
							<path opacity="0.1" fill="#FFFFFF" d="M55.617,236.074c3.167,11.131,7.093,21.975,12.348,32.277
								c5.163,8.181,11.151,15.722,17.724,22.816c5.958,5.551,12.314,10.608,19.147,15.03c4.593,2.309,9.321,4.285,14.203,5.894
								c0.06,0.011,0.12,0.02,0.18,0.032c-7.305-6.407-10.553-13.813-10.553-13.813c0.304,0.09,0.604,0.158,0.907,0.238
								c-0.145-0.29-0.218-0.452-0.218-0.452c16.962,4.847,30.983-5.962,35.749-10.299c0.763-0.708,1.168-1.143,1.168-1.143
								s-21.206,1.214-37.077-19.534c0.182-0.013,0.357-0.035,0.537-0.051c-0.044-0.056-0.09-0.109-0.134-0.167
								c0.998-0.078,1.965-0.205,2.894-0.383c9.645-1.852,15.538-8.646,16.898-10.368c-7.481,1.691-30.979-9.628-46.862-30.903
								c-4.217-5.545-7.922-11.771-10.673-18.648c-12.894-32.235-29.974-55.542-45.638-70.743
								c3.108,6.958,6.019,14.004,8.622,21.182C44.189,182.819,49.021,209.598,55.617,236.074z M108.223,266.973
								c-0.142,0.015-0.395,0.02-0.9,0.016C107.627,266.991,107.924,266.981,108.223,266.973z M107.819,267.178
								c-0.142,0.014-0.395,0.017-0.9,0.007C107.223,267.191,107.521,267.183,107.819,267.178z"/>
						</g>
					</g>
				</g>
			</g>
		</g>
	</g>
</g>
</svg>
